<svg width="395" height="297" viewBox="0 0 395 297" fill="none" xmlns="http://www.w3.org/2000/svg">
<path d="M99.9513 173.568H59.0051V183.873H99.9513V173.568Z" fill="#FFD000" style="fill:#FFD000;fill:color(display-p3 1.0000 0.8157 0.0000);fill-opacity:1;"/>
<path d="M64.6154 184.94C64.0362 184.94 63.5483 184.452 63.5483 183.873V177.928C63.5483 177.348 64.0362 176.861 64.6154 176.861C65.1947 176.861 65.6825 177.348 65.6825 177.928V183.873C65.6825 184.452 65.1947 184.94 64.6154 184.94Z" fill="black" style="fill:black;fill-opacity:1;"/>
<path d="M71.9633 184.94C71.3841 184.94 70.8962 184.452 70.8962 183.873V173.568C70.8962 172.988 71.3841 172.5 71.9633 172.5C72.5426 172.5 73.0304 172.988 73.0304 173.568V183.873C73.0304 184.452 72.5426 184.94 71.9633 184.94Z" fill="black" style="fill:black;fill-opacity:1;"/>
<path d="M79.3413 184.94C78.762 184.94 78.2742 184.452 78.2742 183.873V173.568C78.2742 172.988 78.762 172.5 79.3413 172.5C79.9206 172.5 80.4084 172.988 80.4084 173.568V183.873C80.4084 184.452 79.9206 184.94 79.3413 184.94Z" fill="black" style="fill:black;fill-opacity:1;"/>
<path d="M86.6892 184.94C86.1099 184.94 85.6221 184.452 85.6221 183.873V176.19C85.6221 175.611 86.1099 175.123 86.6892 175.123C87.2685 175.123 87.7563 175.611 87.7563 176.19V183.873C87.7563 184.452 87.2685 184.94 86.6892 184.94Z" fill="black" style="fill:black;fill-opacity:1;"/>
<path d="M93.1528 184.94C92.5735 184.94 92.0857 184.452 92.0857 183.873V177.501C92.0857 176.922 92.5735 176.434 93.1528 176.434C93.7321 176.434 94.2199 176.922 94.2199 177.501V183.873C94.2199 184.452 93.7321 184.94 93.1528 184.94Z" fill="black" style="fill:black;fill-opacity:1;"/>
<path d="M105.135 163.232H64.189V173.537H105.135V163.232Z" fill="#FFD000" style="fill:#FFD000;fill:color(display-p3 1.0000 0.8157 0.0000);fill-opacity:1;"/>
<path d="M105.135 174.635H64.1884C63.6092 174.635 63.1213 174.147 63.1213 173.568C63.1213 172.988 63.6092 172.5 64.1884 172.5H105.135C105.714 172.5 106.202 172.988 106.202 173.568C106.202 174.147 105.714 174.635 105.135 174.635Z" fill="black" style="fill:black;fill-opacity:1;"/>
<path d="M69.7981 174.635C69.2188 174.635 68.731 174.147 68.731 173.568V163.263C68.731 162.683 69.2188 162.196 69.7981 162.196C70.3773 162.196 70.8652 162.683 70.8652 163.263V173.568C70.8652 174.147 70.3773 174.635 69.7981 174.635Z" fill="black" style="fill:black;fill-opacity:1;"/>
<path d="M77.1467 174.635C76.5674 174.635 76.0796 174.147 76.0796 173.568V163.263C76.0796 162.683 76.5674 162.196 77.1467 162.196C77.726 162.196 78.2138 162.683 78.2138 163.263V173.568C78.2138 174.147 77.7565 174.635 77.1467 174.635Z" fill="black" style="fill:black;fill-opacity:1;"/>
<path d="M84.5246 174.635C83.9453 174.635 83.4575 174.147 83.4575 173.568V164.726C83.4575 164.147 83.9453 163.659 84.5246 163.659C85.1039 163.659 85.5917 164.147 85.5917 164.726V173.568C85.5917 174.147 85.1039 174.635 84.5246 174.635Z" fill="black" style="fill:black;fill-opacity:1;"/>
<path d="M91.872 174.635C91.2927 174.635 90.8049 174.147 90.8049 173.568V165.885C90.8049 165.305 91.2927 164.818 91.872 164.818C92.4513 164.818 92.9391 165.305 92.9391 165.885V173.568C92.9391 174.147 92.4513 174.635 91.872 174.635Z" fill="black" style="fill:black;fill-opacity:1;"/>
<path d="M99.2204 174.635C98.6411 174.635 98.1533 174.147 98.1533 173.568V167.165C98.1533 166.586 98.6411 166.098 99.2204 166.098C99.7997 166.098 100.288 166.586 100.288 167.165V173.568C100.288 174.147 99.8302 174.635 99.2204 174.635Z" fill="black" style="fill:black;fill-opacity:1;"/>
<path d="M100.318 152.927H59.3716V163.232H100.318V152.927Z" fill="#FFD000" style="fill:#FFD000;fill:color(display-p3 1.0000 0.8157 0.0000);fill-opacity:1;"/>
<path d="M100.317 164.299H59.3708C58.7915 164.299 58.3037 163.811 58.3037 163.232C58.3037 162.653 58.7915 162.165 59.3708 162.165H100.317C100.896 162.165 101.384 162.653 101.384 163.232C101.384 163.811 100.896 164.299 100.317 164.299Z" fill="black" style="fill:black;fill-opacity:1;"/>
<path d="M64.9509 164.299C64.3716 164.299 63.8838 163.811 63.8838 163.232V154.421C63.8838 153.842 64.3716 153.354 64.9509 153.354C65.5302 153.354 66.018 153.842 66.018 154.421V163.232C66.018 163.842 65.5607 164.299 64.9509 164.299Z" fill="black" style="fill:black;fill-opacity:1;"/>
<path d="M72.3293 164.299C71.75 164.299 71.2622 163.811 71.2622 163.232V154.421C71.2622 153.842 71.75 153.354 72.3293 153.354C72.9086 153.354 73.3964 153.842 73.3964 154.421V163.232C73.3964 163.842 72.9086 164.299 72.3293 164.299Z" fill="black" style="fill:black;fill-opacity:1;"/>
<path d="M79.6767 164.299C79.0974 164.299 78.6096 163.811 78.6096 163.232V154.421C78.6096 153.842 79.0974 153.354 79.6767 153.354C80.256 153.354 80.7438 153.842 80.7438 154.421V163.232C80.7438 163.842 80.256 164.299 79.6767 164.299Z" fill="black" style="fill:black;fill-opacity:1;"/>
<path d="M87.0549 164.299C86.4756 164.299 85.9878 163.811 85.9878 163.232V155.549C85.9878 154.97 86.4756 154.482 87.0549 154.482C87.6342 154.482 88.122 154.97 88.122 155.549V163.232C88.122 163.842 87.6342 164.299 87.0549 164.299Z" fill="black" style="fill:black;fill-opacity:1;"/>
<path d="M94.4026 164.299C93.8233 164.299 93.3354 163.811 93.3354 163.232V156.86C93.3354 156.281 93.8233 155.793 94.4026 155.793C94.9818 155.793 95.4697 156.281 95.4697 156.86V163.232C95.4697 163.842 94.9818 164.299 94.4026 164.299Z" fill="black" style="fill:black;fill-opacity:1;"/>
<path d="M318.86 173.568H277.914V183.873H318.86V173.568Z" fill="#FFD000" style="fill:#FFD000;fill:color(display-p3 1.0000 0.8157 0.0000);fill-opacity:1;"/>
<path d="M283.493 184.94C282.914 184.94 282.426 184.452 282.426 183.873V177.928C282.426 177.348 282.914 176.861 283.493 176.861C284.072 176.861 284.56 177.348 284.56 177.928V183.873C284.56 184.452 284.103 184.94 283.493 184.94Z" fill="black" style="fill:black;fill-opacity:1;"/>
<path d="M290.871 184.94C290.292 184.94 289.804 184.452 289.804 183.873V173.568C289.804 172.988 290.292 172.5 290.871 172.5C291.45 172.5 291.938 172.988 291.938 173.568V183.873C291.938 184.452 291.45 184.94 290.871 184.94Z" fill="black" style="fill:black;fill-opacity:1;"/>
<path d="M298.219 184.94C297.64 184.94 297.152 184.452 297.152 183.873V173.568C297.152 172.988 297.64 172.5 298.219 172.5C298.799 172.5 299.287 172.988 299.287 173.568V183.873C299.287 184.452 298.829 184.94 298.219 184.94Z" fill="black" style="fill:black;fill-opacity:1;"/>
<path d="M305.598 184.94C305.019 184.94 304.531 184.452 304.531 183.873V176.19C304.531 175.611 305.019 175.123 305.598 175.123C306.177 175.123 306.665 175.611 306.665 176.19V183.873C306.665 184.452 306.177 184.94 305.598 184.94Z" fill="black" style="fill:black;fill-opacity:1;"/>
<path d="M312.061 184.94C311.482 184.94 310.994 184.452 310.994 183.873V177.501C310.994 176.922 311.482 176.434 312.061 176.434C312.64 176.434 313.128 176.922 313.128 177.501V183.873C313.128 184.452 312.64 184.94 312.061 184.94Z" fill="black" style="fill:black;fill-opacity:1;"/>
<path d="M324.043 163.232H283.097V173.537H324.043V163.232Z" fill="#FFD000" style="fill:#FFD000;fill:color(display-p3 1.0000 0.8157 0.0000);fill-opacity:1;"/>
<path d="M324.043 174.635H283.097C282.517 174.635 282.03 174.147 282.03 173.568C282.03 172.988 282.517 172.5 283.097 172.5H324.043C324.622 172.5 325.11 172.988 325.11 173.568C325.11 174.147 324.622 174.635 324.043 174.635Z" fill="black" style="fill:black;fill-opacity:1;"/>
<path d="M288.706 174.635C288.127 174.635 287.639 174.147 287.639 173.568V163.263C287.639 162.683 288.127 162.196 288.706 162.196C289.286 162.196 289.773 162.683 289.773 163.263V173.568C289.773 174.147 289.286 174.635 288.706 174.635Z" fill="black" style="fill:black;fill-opacity:1;"/>
<path d="M296.054 174.635C295.475 174.635 294.987 174.147 294.987 173.568V163.263C294.987 162.683 295.475 162.196 296.054 162.196C296.634 162.196 297.122 162.683 297.122 163.263V173.568C297.122 174.147 296.634 174.635 296.054 174.635Z" fill="black" style="fill:black;fill-opacity:1;"/>
<path d="M303.402 174.635C302.823 174.635 302.335 174.147 302.335 173.568V164.726C302.335 164.147 302.823 163.659 303.402 163.659C303.981 163.659 304.469 164.147 304.469 164.726V173.568C304.469 174.147 304.012 174.635 303.402 174.635Z" fill="black" style="fill:black;fill-opacity:1;"/>
<path d="M310.78 174.635C310.201 174.635 309.713 174.147 309.713 173.568V165.885C309.713 165.305 310.201 164.818 310.78 164.818C311.36 164.818 311.848 165.305 311.848 165.885V173.568C311.848 174.147 311.36 174.635 310.78 174.635Z" fill="black" style="fill:black;fill-opacity:1;"/>
<path d="M318.128 174.635C317.549 174.635 317.061 174.147 317.061 173.568V167.165C317.061 166.586 317.549 166.098 318.128 166.098C318.707 166.098 319.195 166.586 319.195 167.165V173.568C319.195 174.147 318.707 174.635 318.128 174.635Z" fill="black" style="fill:black;fill-opacity:1;"/>
<path d="M319.226 152.927H278.28V163.232H319.226V152.927Z" fill="#FFD000" style="fill:#FFD000;fill:color(display-p3 1.0000 0.8157 0.0000);fill-opacity:1;"/>
<path d="M319.195 164.299H278.28C277.7 164.299 277.213 163.811 277.213 163.232C277.213 162.653 277.7 162.165 278.28 162.165H319.195C319.775 162.165 320.263 162.653 320.263 163.232C320.263 163.811 319.805 164.299 319.195 164.299Z" fill="black" style="fill:black;fill-opacity:1;"/>
<path d="M283.859 164.299C283.28 164.299 282.792 163.811 282.792 163.232V154.421C282.792 153.842 283.28 153.354 283.859 153.354C284.439 153.354 284.926 153.842 284.926 154.421V163.232C284.926 163.842 284.439 164.299 283.859 164.299Z" fill="black" style="fill:black;fill-opacity:1;"/>
<path d="M291.237 164.299C290.658 164.299 290.17 163.811 290.17 163.232V154.421C290.17 153.842 290.658 153.354 291.237 153.354C291.817 153.354 292.304 153.842 292.304 154.421V163.232C292.304 163.842 291.817 164.299 291.237 164.299Z" fill="black" style="fill:black;fill-opacity:1;"/>
<path d="M298.585 164.299C298.005 164.299 297.518 163.811 297.518 163.232V154.421C297.518 153.842 298.005 153.354 298.585 153.354C299.164 153.354 299.652 153.842 299.652 154.421V163.232C299.652 163.842 299.164 164.299 298.585 164.299Z" fill="black" style="fill:black;fill-opacity:1;"/>
<path d="M305.933 164.299C305.354 164.299 304.866 163.811 304.866 163.232V155.549C304.866 154.97 305.354 154.482 305.933 154.482C306.513 154.482 307 154.97 307 155.549V163.232C307 163.842 306.543 164.299 305.933 164.299Z" fill="black" style="fill:black;fill-opacity:1;"/>
<path d="M313.312 164.299C312.732 164.299 312.245 163.811 312.245 163.232V156.86C312.245 156.281 312.732 155.793 313.312 155.793C313.891 155.793 314.379 156.281 314.379 156.86V163.232C314.379 163.842 313.891 164.299 313.312 164.299Z" fill="black" style="fill:black;fill-opacity:1;"/>
<path d="M326.055 142.439H285.109V152.744H326.055V142.439Z" fill="#FFD000" style="fill:#FFD000;fill:color(display-p3 1.0000 0.8157 0.0000);fill-opacity:1;"/>
<path d="M326.055 153.811H285.109C284.53 153.811 284.042 153.323 284.042 152.744C284.042 152.165 284.53 151.677 285.109 151.677H326.055C326.635 151.677 327.122 152.165 327.122 152.744C327.122 153.323 326.635 153.811 326.055 153.811Z" fill="black" style="fill:black;fill-opacity:1;"/>
<path d="M290.719 153.811C290.139 153.811 289.652 153.323 289.652 152.744V143.933C289.652 143.354 290.139 142.866 290.719 142.866C291.298 142.866 291.786 143.354 291.786 143.933V152.744C291.786 153.323 291.298 153.811 290.719 153.811Z" fill="black" style="fill:black;fill-opacity:1;"/>
<path d="M298.066 153.811C297.487 153.811 296.999 153.323 296.999 152.744V143.933C296.999 143.354 297.487 142.866 298.066 142.866C298.646 142.866 299.133 143.354 299.133 143.933V152.744C299.133 153.323 298.646 153.811 298.066 153.811Z" fill="black" style="fill:black;fill-opacity:1;"/>
<path d="M305.414 153.811C304.835 153.811 304.347 153.323 304.347 152.744V143.933C304.347 143.354 304.835 142.866 305.414 142.866C305.994 142.866 306.481 143.354 306.481 143.933V152.744C306.481 153.323 306.024 153.811 305.414 153.811Z" fill="black" style="fill:black;fill-opacity:1;"/>
<path d="M312.793 153.811C312.213 153.811 311.726 153.323 311.726 152.744V145.061C311.726 144.481 312.213 143.994 312.793 143.994C313.372 143.994 313.86 144.481 313.86 145.061V152.744C313.86 153.323 313.372 153.811 312.793 153.811Z" fill="black" style="fill:black;fill-opacity:1;"/>
<path d="M320.141 153.811C319.562 153.811 319.074 153.323 319.074 152.744V146.372C319.074 145.793 319.562 145.305 320.141 145.305C320.72 145.305 321.208 145.793 321.208 146.372V152.744C321.208 153.323 320.751 153.811 320.141 153.811Z" fill="black" style="fill:black;fill-opacity:1;"/>
<path d="M137.361 68.9614L86.4453 119.877L106.293 139.695L158.094 87.8948L137.361 68.9614Z" fill="#FFD000" style="fill:#FFD000;fill:color(display-p3 1.0000 0.8157 0.0000);fill-opacity:1;"/>
<path d="M171.844 146.402C167.088 146.402 162.637 144.543 159.283 141.189C158.856 140.762 158.856 140.091 159.283 139.695C159.71 139.268 160.381 139.268 160.777 139.695C163.734 142.652 167.667 144.268 171.844 144.268C176.021 144.268 179.954 142.652 182.912 139.695L200.046 122.56C200.473 122.134 201.144 122.134 201.54 122.56C201.967 122.987 201.967 123.658 201.54 124.054L184.406 141.189C181.052 144.543 176.57 146.402 171.844 146.402Z" fill="black" style="fill:black;fill-opacity:1;"/>
<path d="M160.014 135.122C159.74 135.122 159.465 135.03 159.252 134.817C158.825 134.39 158.825 133.719 159.252 133.323L184.832 107.743C194.832 97.7426 211.082 97.7426 221.052 107.743C221.479 108.17 221.479 108.84 221.052 109.237C220.625 109.664 219.955 109.664 219.558 109.237C210.412 100.09 195.503 100.09 186.356 109.237L160.776 134.817C160.563 135.03 160.288 135.122 160.014 135.122Z" fill="black" style="fill:black;fill-opacity:1;"/>
<path d="M245.626 169.604C245.352 169.604 245.077 169.513 244.864 169.299C244.437 168.873 244.437 168.202 244.864 167.805C254.01 158.659 254.01 143.75 244.864 134.603C244.437 134.177 244.437 133.506 244.864 133.109C245.291 132.683 245.961 132.683 246.358 133.109C256.358 143.11 256.358 159.36 246.358 169.33C246.175 169.482 245.9 169.604 245.626 169.604Z" fill="black" style="fill:black;fill-opacity:1;"/>
<path d="M130.44 190.398C127.483 190.398 124.556 189.27 122.3 187.044L122.086 186.831C119.922 184.666 118.702 181.769 118.702 178.69C118.702 175.611 119.891 172.714 122.086 170.55C126.477 166.159 133.581 166.159 137.971 170.55L138.611 171.19C140.745 173.324 141.904 176.129 141.904 179.147C141.904 182.166 140.745 184.971 138.611 187.105C136.325 189.27 133.398 190.398 130.44 190.398ZM130.013 169.33C127.696 169.33 125.349 170.214 123.58 171.983C121.812 173.751 120.836 176.099 120.836 178.629C120.836 181.129 121.812 183.507 123.58 185.276L123.794 185.489C127.452 189.148 133.398 189.148 137.056 185.489C138.764 183.782 139.709 181.495 139.709 179.056C139.709 176.617 138.764 174.33 137.056 172.623L136.416 171.983C134.678 170.245 132.331 169.33 130.013 169.33Z" fill="black" style="fill:black;fill-opacity:1;"/>
<path d="M145.441 205.337C142.331 205.337 139.374 204.117 137.178 201.922C134.983 199.727 133.764 196.77 133.764 193.66C133.764 190.55 134.983 187.593 137.178 185.397L144.008 178.568C146.264 176.312 149.282 175.062 152.484 175.062C155.685 175.062 158.673 176.312 160.96 178.568C163.124 180.733 164.283 183.568 164.283 186.617C164.283 189.666 163.094 192.532 160.96 194.666L153.703 201.922C151.508 204.117 148.581 205.337 145.441 205.337ZM152.484 177.196C149.862 177.196 147.392 178.233 145.532 180.062L138.703 186.891C136.904 188.69 135.898 191.099 135.898 193.629C135.898 196.19 136.904 198.568 138.703 200.367C140.502 202.166 142.91 203.172 145.441 203.172C147.971 203.172 150.38 202.166 152.179 200.367L159.435 193.111C161.173 191.373 162.149 189.026 162.149 186.556C162.149 184.086 161.173 181.769 159.435 180.001C157.575 178.202 155.106 177.196 152.484 177.196Z" fill="black" style="fill:black;fill-opacity:1;"/>
<path d="M160.441 220.337C157.331 220.337 154.374 219.118 152.179 216.923C149.983 214.727 148.764 211.77 148.764 208.66C148.764 205.55 149.983 202.593 152.179 200.398L159.222 193.355C161.417 191.16 164.374 189.94 167.484 189.94C170.594 189.94 173.551 191.16 175.746 193.355C176.173 193.782 176.173 194.452 175.746 194.849C175.32 195.276 174.649 195.276 174.252 194.849C172.454 193.05 170.045 192.044 167.514 192.044C164.984 192.044 162.575 193.05 160.776 194.849L153.703 201.922C151.904 203.721 150.898 206.13 150.898 208.66C150.898 211.221 151.904 213.599 153.703 215.398C155.502 217.197 157.91 218.203 160.441 218.203C162.972 218.203 165.38 217.227 167.179 215.429L174.191 207.471C174.222 207.441 174.283 207.38 174.313 207.349C175.411 206.435 178.155 203.569 177.454 201.312C177.271 200.764 177.576 200.154 178.155 199.971C178.704 199.788 179.314 200.093 179.496 200.672C180.716 204.544 176.387 208.386 175.746 208.935L168.764 216.862C168.764 216.892 168.734 216.892 168.703 216.923C166.508 219.118 163.581 220.337 160.441 220.337Z" fill="black" style="fill:black;fill-opacity:1;"/>
<path d="M175.472 235.399C172.393 235.399 169.496 234.21 167.332 232.015L167.118 231.801C164.953 229.637 163.734 226.74 163.734 223.661C163.734 220.581 164.923 217.685 167.118 215.52C171.508 211.13 178.612 211.13 183.003 215.52L183.643 216.161C185.777 218.295 186.936 221.1 186.936 224.118C186.936 227.136 185.777 229.941 183.643 232.076C181.448 234.21 178.551 235.399 175.472 235.399ZM175.045 214.362C172.606 214.362 170.319 215.307 168.612 217.014C166.844 218.783 165.868 221.13 165.868 223.661C165.868 226.161 166.844 228.539 168.612 230.307L168.825 230.521C170.594 232.289 172.941 233.265 175.472 233.265C177.972 233.265 180.35 232.289 182.119 230.521C183.826 228.813 184.771 226.527 184.771 224.088C184.771 221.649 183.826 219.362 182.119 217.655L181.478 217.014C179.74 215.307 177.454 214.362 175.045 214.362Z" fill="black" style="fill:black;fill-opacity:1;"/>
<path d="M238.553 162.104C238.278 162.104 238.004 162.013 237.79 161.799L205.991 129.969C205.564 129.542 205.564 128.872 205.991 128.475C206.418 128.048 207.088 128.048 207.485 128.475L239.315 160.275C239.742 160.702 239.742 161.372 239.315 161.769C239.101 162.013 238.827 162.104 238.553 162.104Z" fill="black" style="fill:black;fill-opacity:1;"/>
<path d="M196.113 235.338C193.125 235.338 190.137 234.21 187.851 231.923L185.015 229.087C184.588 228.661 184.588 227.99 185.015 227.563C185.442 227.136 186.113 227.136 186.509 227.563L189.345 230.399C193.064 234.118 199.131 234.118 202.851 230.399C206.571 226.679 206.571 220.612 202.851 216.892L191.906 205.947C191.479 205.52 191.479 204.849 191.906 204.453C192.332 204.026 193.003 204.026 193.4 204.453L204.345 215.398C208.888 219.941 208.888 227.35 204.345 231.923C202.089 234.21 199.101 235.338 196.113 235.338Z" fill="black" style="fill:black;fill-opacity:1;"/>
<path d="M211.144 220.337C208.034 220.337 205.077 219.118 202.881 216.922L188.765 202.806C188.338 202.379 188.338 201.709 188.765 201.312C189.192 200.916 189.863 200.885 190.259 201.312L204.375 215.429C206.174 217.227 208.583 218.233 211.113 218.233C213.644 218.233 216.053 217.227 217.851 215.429C219.65 213.63 220.656 211.221 220.656 208.691C220.656 206.13 219.65 203.751 217.851 201.953L199.436 183.537C199.009 183.111 199.009 182.44 199.436 182.044C199.863 181.617 200.534 181.617 200.93 182.044L219.345 200.459C221.54 202.654 222.76 205.611 222.76 208.721C222.76 211.831 221.54 214.788 219.345 216.983C217.181 219.118 214.254 220.337 211.144 220.337Z" fill="black" style="fill:black;fill-opacity:1;"/>
<path d="M226.144 205.337C223.034 205.337 220.077 204.117 217.882 201.922L199.466 183.507C199.04 183.08 199.04 182.409 199.466 182.013C199.893 181.586 200.564 181.586 200.96 182.013L219.375 200.428C221.174 202.227 223.583 203.233 226.113 203.233C228.644 203.233 231.053 202.227 232.851 200.428C234.65 198.629 235.656 196.221 235.656 193.69C235.656 191.129 234.65 188.751 232.851 186.952L218.186 172.287C217.76 171.86 217.76 171.19 218.186 170.793C218.613 170.397 219.284 170.366 219.68 170.793L234.345 185.458C236.541 187.653 237.76 190.611 237.76 193.721C237.76 196.83 236.541 199.788 234.345 201.983C232.181 204.117 229.254 205.337 226.144 205.337Z" fill="black" style="fill:black;fill-opacity:1;"/>
<path d="M241.145 190.306C238.157 190.306 235.169 189.178 232.882 186.891L221.937 175.946C221.51 175.519 221.51 174.848 221.937 174.452C222.364 174.025 223.034 174.025 223.431 174.452L234.376 185.397C238.096 189.117 244.163 189.117 247.883 185.397C251.602 181.678 251.602 175.61 247.883 171.891L240.443 164.452C240.017 164.025 240.017 163.354 240.443 162.958C240.87 162.561 241.541 162.531 241.937 162.958L249.377 170.397C253.919 174.94 253.919 182.348 249.377 186.922C247.12 189.178 244.133 190.306 241.145 190.306Z" fill="black" style="fill:black;fill-opacity:1;"/>
<path d="M250.535 142.774C250.261 142.774 249.986 142.683 249.773 142.469C249.346 142.043 249.346 141.372 249.773 140.975L256.877 133.872L220.26 97.1938L213.156 104.298C212.729 104.724 212.058 104.724 211.662 104.298C211.266 103.871 211.235 103.2 211.662 102.804L219.528 94.9376C219.924 94.5413 220.626 94.5413 221.022 94.9376L259.163 133.079C259.59 133.506 259.59 134.176 259.163 134.573L251.297 142.469C251.084 142.683 250.809 142.774 250.535 142.774Z" fill="black" style="fill:black;fill-opacity:1;"/>
<path d="M284.621 120.365L264.804 140.213L213.888 89.2973L233.736 69.4797" fill="#FFD000" style="fill:#FFD000;fill:color(display-p3 1.0000 0.8157 0.0000);fill-opacity:1;"/>
<path d="M264.804 141.28C264.529 141.28 264.255 141.189 264.041 140.976L213.125 90.0596C212.698 89.6327 212.698 88.962 213.125 88.5656C213.552 88.1693 214.223 88.1388 214.619 88.5656L265.535 139.451C265.962 139.878 265.962 140.549 265.535 140.945C265.352 141.189 265.078 141.28 264.804 141.28Z" fill="black" style="fill:black;fill-opacity:1;"/>
<path d="M185.808 109.359C185.533 109.359 185.259 109.267 185.045 109.054C180.625 104.633 174.71 102.164 168.429 102.164C162.148 102.164 156.264 104.603 151.813 109.054C151.386 109.481 150.715 109.481 150.319 109.054C149.922 108.627 149.892 107.956 150.319 107.56C155.167 102.712 161.6 100.06 168.429 100.06C175.259 100.06 181.692 102.712 186.539 107.56C186.966 107.987 186.966 108.658 186.539 109.054C186.326 109.237 186.051 109.359 185.808 109.359Z" fill="black" style="fill:black;fill-opacity:1;"/>
<path d="M126.355 169.97C126.08 169.97 125.806 169.879 125.592 169.665L125.013 169.086C115.013 159.086 115.013 142.835 125.013 132.866C125.44 132.439 126.111 132.439 126.507 132.866C126.903 133.292 126.934 133.963 126.507 134.359C117.36 143.506 117.36 158.415 126.507 167.562L127.086 168.141C127.513 168.568 127.513 169.238 127.086 169.635C126.903 169.879 126.629 169.97 126.355 169.97Z" fill="black" style="fill:black;fill-opacity:1;"/>
<path d="M158.673 104.115C158.398 104.115 158.124 104.023 157.911 103.81L150.044 95.9437C149.618 95.5169 149.618 94.8461 150.044 94.4498C150.471 94.0229 151.142 94.0229 151.538 94.4498L159.404 102.316C159.831 102.743 159.831 103.413 159.404 103.81C159.222 104.023 158.947 104.115 158.673 104.115Z" fill="black" style="fill:black;fill-opacity:1;"/>
<path d="M120.531 142.256C120.257 142.256 119.983 142.164 119.769 141.951L111.903 134.085C111.476 133.658 111.476 132.987 111.903 132.591L157.331 87.1629C157.758 86.7361 158.429 86.7361 158.825 87.1629C159.221 87.5897 159.252 88.2605 158.825 88.6568L114.159 133.323L121.263 140.426C121.69 140.853 121.69 141.524 121.263 141.92C121.08 142.164 120.806 142.256 120.531 142.256Z" fill="black" style="fill:black;fill-opacity:1;"/>
<path d="M106.293 140.762C106.019 140.762 105.744 140.67 105.531 140.457C105.104 140.03 105.104 139.359 105.531 138.963L141.355 103.139C141.782 102.712 142.453 102.712 142.849 103.139C143.276 103.566 143.276 104.237 142.849 104.633L107.025 140.457C106.811 140.67 106.537 140.762 106.293 140.762Z" fill="black" style="fill:black;fill-opacity:1;"/>
<path d="M91.5063 221.069C89.3112 221.069 87.2379 220.215 85.683 218.66C84.1281 217.106 83.2744 215.032 83.2744 212.837C83.2744 210.642 84.1281 208.569 85.683 207.014C87.2379 205.459 89.3112 204.605 91.5063 204.605C93.7015 204.605 95.7747 205.459 97.3297 207.014C98.8846 208.569 99.7383 210.642 99.7383 212.837C99.7383 215.032 98.8846 217.106 97.3297 218.66C95.7747 220.215 93.7015 221.069 91.5063 221.069ZM91.5063 206.709C89.8904 206.709 88.3355 207.349 87.177 208.508C86.0184 209.666 85.3781 211.191 85.3781 212.837C85.3781 214.484 86.0184 216.008 87.177 217.167C88.3355 218.325 89.86 218.965 91.5063 218.965C93.1222 218.965 94.6772 218.325 95.8357 217.167C96.9943 216.008 97.6346 214.484 97.6346 212.837C97.6346 211.191 96.9943 209.666 95.8357 208.508C94.6772 207.349 93.1527 206.709 91.5063 206.709Z" fill="#FFD000" style="fill:#FFD000;fill:color(display-p3 1.0000 0.8157 0.0000);fill-opacity:1;"/>
<path d="M108.122 237.685C105.927 237.685 103.854 236.832 102.299 235.277C99.0979 232.075 99.0979 226.831 102.299 223.63C103.854 222.075 105.927 221.221 108.122 221.221C110.318 221.221 112.391 222.075 113.946 223.63C117.147 226.831 117.147 232.075 113.946 235.277C112.391 236.832 110.348 237.685 108.122 237.685ZM108.122 223.325C106.507 223.325 104.952 223.965 103.793 225.124C101.415 227.502 101.415 231.374 103.793 233.752C104.952 234.911 106.476 235.551 108.122 235.551C109.738 235.551 111.293 234.911 112.452 233.752C114.83 231.374 114.83 227.502 112.452 225.124C111.293 223.965 109.769 223.325 108.122 223.325Z" fill="#FFD000" style="fill:#FFD000;fill:color(display-p3 1.0000 0.8157 0.0000);fill-opacity:1;"/>
<path d="M84.463 237.563C84.1886 237.563 83.9142 237.472 83.7007 237.258C83.2739 236.832 83.2739 236.161 83.7007 235.734L114.464 204.971C114.891 204.544 115.561 204.544 115.958 204.971C116.385 205.398 116.385 206.069 115.958 206.465L85.1947 237.258C85.0118 237.472 84.7374 237.563 84.463 237.563Z" fill="#FFD000" style="fill:#FFD000;fill:color(display-p3 1.0000 0.8157 0.0000);fill-opacity:1;"/>
<path d="M313.616 220.734C312.183 220.734 310.842 220.185 309.805 219.148C307.702 217.045 307.702 213.63 309.805 211.557C310.811 210.55 312.183 209.971 313.616 209.971C315.049 209.971 316.391 210.52 317.427 211.557C319.531 213.66 319.531 217.075 317.427 219.148C316.391 220.154 315.049 220.734 313.616 220.734ZM313.616 212.105C312.763 212.105 311.94 212.441 311.33 213.051C310.08 214.301 310.08 216.374 311.33 217.624C311.94 218.234 312.763 218.569 313.616 218.569C314.47 218.569 315.293 218.234 315.903 217.624C317.153 216.374 317.153 214.301 315.903 213.051C315.293 212.441 314.47 212.105 313.616 212.105Z" fill="black" style="fill:black;fill-opacity:1;"/>
<path d="M323.586 230.703C322.214 230.703 320.842 230.185 319.775 229.118C318.768 228.112 318.189 226.74 318.189 225.307C318.189 223.874 318.738 222.532 319.775 221.496C321.878 219.392 325.293 219.392 327.366 221.496C328.372 222.502 328.952 223.874 328.952 225.307C328.952 226.74 328.403 228.081 327.366 229.118C326.36 230.185 324.958 230.703 323.586 230.703ZM323.586 222.106C322.763 222.106 321.939 222.41 321.299 223.051C320.689 223.66 320.354 224.484 320.354 225.337C320.354 226.191 320.689 227.014 321.299 227.624C322.549 228.874 324.622 228.874 325.872 227.624C326.482 227.014 326.817 226.191 326.817 225.337C326.817 224.484 326.482 223.66 325.872 223.051C325.263 222.41 324.439 222.106 323.586 222.106Z" fill="black" style="fill:black;fill-opacity:1;"/>
<path d="M309.378 230.642C309.103 230.642 308.829 230.551 308.616 230.338C308.189 229.911 308.189 229.24 308.616 228.813L327.092 210.337C327.518 209.91 328.189 209.91 328.586 210.337C329.012 210.764 329.012 211.435 328.586 211.861L310.109 230.338C309.927 230.551 309.652 230.642 309.378 230.642Z" fill="black" style="fill:black;fill-opacity:1;"/>
<path d="M67.3286 56.6135C65.9566 56.6135 64.5846 56.0952 63.5175 55.0281C61.4138 52.9244 61.4138 49.5097 63.5175 47.4364C65.6212 45.3327 69.0359 45.3327 71.1092 47.4364C73.2129 49.5401 73.2129 52.9549 71.1092 55.0281C70.0725 56.0952 68.7006 56.6135 67.3286 56.6135ZM67.3286 48.0157C66.5054 48.0157 65.6822 48.3206 65.0419 48.9609C63.7919 50.2109 63.7919 52.2841 65.0419 53.5342C66.2919 54.7842 68.3652 54.7842 69.6152 53.5342C70.8652 52.2841 70.8652 50.2109 69.6152 48.9609C69.0054 48.3206 68.1518 48.0157 67.3286 48.0157Z" fill="black" style="fill:black;fill-opacity:1;"/>
<path d="M77.2986 66.6138C75.8656 66.6138 74.5241 66.065 73.4875 65.0284C72.4814 64.0222 71.9021 62.6502 71.9021 61.2173C71.9021 59.7843 72.4509 58.4428 73.4875 57.4062C74.4936 56.4001 75.8656 55.8208 77.2986 55.8208C78.7316 55.8208 80.0731 56.3696 81.1097 57.4062C82.1158 58.4123 82.6951 59.7843 82.6951 61.2173C82.6951 62.6502 82.1463 63.9917 81.1097 65.0284C80.1035 66.0345 78.762 66.6138 77.2986 66.6138ZM77.2986 57.9855C76.4449 57.9855 75.6217 58.3209 75.0119 58.9306C74.4022 59.5404 74.0668 60.3636 74.0668 61.2173C74.0668 62.071 74.4022 62.8942 75.0119 63.5039C75.6217 64.1137 76.4449 64.4491 77.2986 64.4491C78.1523 64.4491 78.9755 64.1137 79.5852 63.5039C80.195 62.8942 80.5304 62.071 80.5304 61.2173C80.5304 60.3636 80.195 59.5404 79.5852 58.9306C79.0059 58.3209 78.1828 57.9855 77.2986 57.9855Z" fill="black" style="fill:black;fill-opacity:1;"/>
<path d="M63.0914 66.5526C62.817 66.5526 62.5426 66.4611 62.3292 66.2477C61.9023 65.8208 61.9023 65.1501 62.3292 64.7537L80.8053 46.2776C81.2321 45.8508 81.9029 45.8508 82.2992 46.2776C82.6956 46.7045 82.7261 47.3752 82.2992 47.7716L63.8231 66.2477C63.6402 66.4306 63.3658 66.5526 63.0914 66.5526Z" fill="black" style="fill:black;fill-opacity:1;"/>
<path d="M308.403 100.883C305.72 100.883 303.037 99.8767 300.994 97.834C299.012 95.8522 297.915 93.2302 297.915 90.4252C297.915 87.6203 299.012 84.9983 300.994 83.0165C305.08 78.931 311.726 78.931 315.812 83.0165C317.793 84.9983 318.891 87.6203 318.891 90.4252C318.891 93.2302 317.793 95.8522 315.812 97.834C313.769 99.8462 311.086 100.883 308.403 100.883ZM308.403 82.0713C306.269 82.0713 304.134 82.8945 302.519 84.5104C300.933 86.0958 300.079 88.1691 300.079 90.3947C300.079 92.6204 300.933 94.7241 302.519 96.279C305.781 99.5413 311.055 99.5413 314.318 96.279C315.903 94.6936 316.757 92.6204 316.757 90.3947C316.757 88.1691 315.903 86.0654 314.318 84.5104C312.671 82.8641 310.537 82.0713 308.403 82.0713Z" fill="black" style="fill:black;fill-opacity:1;"/>
<path d="M330.201 122.682C327.518 122.682 324.835 121.676 322.793 119.633C320.811 117.652 319.713 115.029 319.713 112.225C319.713 109.42 320.811 106.798 322.793 104.816C326.878 100.73 333.525 100.73 337.61 104.816C339.592 106.798 340.69 109.42 340.69 112.225C340.69 115.029 339.592 117.652 337.61 119.633C335.567 121.646 332.884 122.682 330.201 122.682ZM330.201 103.871C328.067 103.871 325.933 104.694 324.317 106.31C322.732 107.895 321.878 109.968 321.878 112.194C321.878 114.42 322.732 116.523 324.317 118.078C327.579 121.341 332.854 121.341 336.116 118.078C337.702 116.493 338.555 114.42 338.555 112.194C338.555 109.968 337.702 107.865 336.116 106.31C334.47 104.663 332.336 103.871 330.201 103.871Z" fill="black" style="fill:black;fill-opacity:1;"/>
<path d="M299.134 122.53C298.86 122.53 298.586 122.438 298.372 122.225C297.945 121.798 297.945 121.127 298.372 120.731L338.709 80.3946C339.135 79.9678 339.806 79.9678 340.203 80.3946C340.599 80.8214 340.629 81.4922 340.203 81.8885L299.897 122.225C299.683 122.438 299.409 122.53 299.134 122.53Z" fill="black" style="fill:black;fill-opacity:1;"/>
<path d="M179.466 53.0768C176.875 53.0768 174.435 52.0706 172.576 50.2413C168.795 46.4607 168.795 40.2715 172.576 36.491C174.405 34.6616 176.844 33.6555 179.466 33.6555C182.088 33.6555 184.497 34.6616 186.357 36.491C188.186 38.3203 189.192 40.7594 189.192 43.3814C189.192 45.9729 188.186 48.412 186.357 50.2718C184.497 52.0706 182.058 53.0768 179.466 53.0768ZM179.466 35.7592C177.423 35.7592 175.533 36.5519 174.1 37.9849C171.143 40.9423 171.143 45.7595 174.1 48.7169C175.533 50.1499 177.454 50.9426 179.466 50.9426C181.478 50.9426 183.399 50.1499 184.832 48.7169C186.265 47.2839 187.058 45.3631 187.058 43.3509C187.058 41.3082 186.265 39.4179 184.832 37.9849C183.399 36.5519 181.478 35.7592 179.466 35.7592Z" fill="#FFD000" style="fill:#FFD000;fill:color(display-p3 1.0000 0.8157 0.0000);fill-opacity:1;"/>
<path d="M199.528 73.1688C197.028 73.1688 194.558 72.2237 192.637 70.3334C188.857 66.5528 188.857 60.3636 192.637 56.583C196.418 52.8024 202.607 52.8024 206.388 56.583C210.168 60.3636 210.168 66.5528 206.388 70.3334C204.528 72.2237 202.028 73.1688 199.528 73.1688ZM199.528 55.8513C197.576 55.8513 195.625 56.583 194.162 58.0769C191.204 61.0343 191.204 65.8515 194.162 68.8089C197.119 71.7663 201.936 71.7663 204.894 68.8089C207.851 65.8515 207.851 61.0343 204.894 58.0769C203.43 56.583 201.479 55.8513 199.528 55.8513Z" fill="#FFD000" style="fill:#FFD000;fill:color(display-p3 1.0000 0.8157 0.0000);fill-opacity:1;"/>
<path d="M170.929 73.0469C170.655 73.0469 170.38 72.9554 170.167 72.742C169.74 72.3152 169.74 71.6444 170.167 71.2481L198.765 42.6802C199.192 42.2534 199.863 42.2534 200.259 42.6802C200.686 43.1071 200.686 43.7778 200.259 44.1742L171.661 72.742C171.478 72.9554 171.204 73.0469 170.929 73.0469Z" fill="#FFD000" style="fill:#FFD000;fill:color(display-p3 1.0000 0.8157 0.0000);fill-opacity:1;"/>
<path d="M201.875 42.1313C201.601 42.1313 201.326 42.0399 201.113 41.8264C200.686 41.3996 200.686 40.7289 201.113 40.3325L207.302 34.0823C207.729 33.6555 208.4 33.6555 208.796 34.0823C209.223 34.5092 209.223 35.1799 208.796 35.5763L202.607 41.8264C202.424 42.0399 202.149 42.1313 201.875 42.1313Z" fill="#FFD000" style="fill:#FFD000;fill:color(display-p3 1.0000 0.8157 0.0000);fill-opacity:1;"/>
<path d="M267.578 67.193C265.901 67.193 264.194 66.5528 262.913 65.2723C261.663 64.0222 260.992 62.3758 260.992 60.6075C260.992 58.8392 261.694 57.1928 262.913 55.9428C264.163 54.6927 265.81 54.022 267.578 54.022C269.346 54.022 270.993 54.7232 272.243 55.9428C274.804 58.5038 274.804 62.7112 272.243 65.2723C270.962 66.5528 269.285 67.193 267.578 67.193ZM267.578 56.1562C266.389 56.1562 265.261 56.6135 264.407 57.4672C263.553 58.3209 263.096 59.4185 263.096 60.638C263.096 61.8575 263.553 62.9551 264.407 63.8088C266.145 65.5467 268.98 65.5467 270.718 63.8088C272.456 62.071 272.456 59.2355 270.718 57.4977C269.895 56.6135 268.767 56.1562 267.578 56.1562Z" fill="black" style="fill:black;fill-opacity:1;"/>
<path d="M59.3714 216.404C57.6946 216.404 55.9872 215.764 54.7067 214.483C52.1456 211.922 52.1456 207.715 54.7067 205.154C55.9567 203.904 57.6031 203.233 59.3714 203.233C61.1398 203.233 62.7862 203.934 64.0362 205.154C65.2862 206.404 65.957 208.05 65.957 209.819C65.957 211.587 65.2557 213.233 64.0362 214.483C62.7557 215.764 61.0483 216.404 59.3714 216.404ZM59.3714 205.367C58.1824 205.367 57.0543 205.825 56.2006 206.678C54.4628 208.416 54.4628 211.252 56.2006 212.99C57.9385 214.727 60.7739 214.727 62.5118 212.99C63.3654 212.136 63.8228 211.038 63.8228 209.819C63.8228 208.63 63.3654 207.502 62.5118 206.648C61.6886 205.825 60.5605 205.367 59.3714 205.367Z" fill="black" style="fill:black;fill-opacity:1;"/>
<path d="M281.298 212.898C280.718 212.898 280.23 212.41 280.23 211.831V196.709C280.23 196.129 280.718 195.642 281.298 195.642C281.877 195.642 282.365 196.129 282.365 196.709V211.831C282.365 212.41 281.877 212.898 281.298 212.898Z" fill="#FFD000" style="fill:#FFD000;fill:color(display-p3 1.0000 0.8157 0.0000);fill-opacity:1;"/>
<path d="M288.828 205.337H273.706C273.127 205.337 272.639 204.849 272.639 204.27C272.639 203.69 273.127 203.203 273.706 203.203H288.828C289.408 203.203 289.895 203.69 289.895 204.27C289.895 204.849 289.438 205.337 288.828 205.337Z" fill="#FFD000" style="fill:#FFD000;fill:color(display-p3 1.0000 0.8157 0.0000);fill-opacity:1;"/>
<path d="M175.259 262.625C174.679 262.625 174.192 262.137 174.192 261.558V246.436C174.192 245.856 174.679 245.368 175.259 245.368C175.838 245.368 176.326 245.856 176.326 246.436V261.558C176.326 262.137 175.838 262.625 175.259 262.625Z" fill="black" style="fill:black;fill-opacity:1;"/>
<path d="M182.789 255.064H167.667C167.087 255.064 166.6 254.576 166.6 253.997C166.6 253.418 167.087 252.93 167.667 252.93H182.789C183.368 252.93 183.856 253.418 183.856 253.997C183.856 254.576 183.399 255.064 182.789 255.064Z" fill="black" style="fill:black;fill-opacity:1;"/>
<path d="M132.3 50.8815C131.721 50.8815 131.233 50.3937 131.233 49.8144V34.6921C131.233 34.1128 131.721 33.625 132.3 33.625C132.88 33.625 133.367 34.1128 133.367 34.6921V49.8144C133.367 50.3937 132.88 50.8815 132.3 50.8815Z" fill="black" style="fill:black;fill-opacity:1;"/>
<path d="M139.861 43.3205H124.739C124.159 43.3205 123.672 42.8327 123.672 42.2534C123.672 41.6741 124.159 41.1863 124.739 41.1863H139.861C140.44 41.1863 140.928 41.6741 140.928 42.2534C140.928 42.8327 140.44 43.3205 139.861 43.3205Z" fill="black" style="fill:black;fill-opacity:1;"/>
<path d="M120.44 184.818H45.56C44.9807 184.818 44.4929 184.33 44.4929 183.751C44.4929 183.172 44.9807 182.684 45.56 182.684H120.44C121.019 182.684 121.507 183.172 121.507 183.751C121.507 184.33 121.019 184.818 120.44 184.818Z" fill="black" style="fill:black;fill-opacity:1;"/>
<path d="M349.44 184.818H250.443C249.864 184.818 249.376 184.33 249.376 183.751C249.376 183.172 249.864 182.684 250.443 182.684H349.44C350.019 182.684 350.507 183.172 350.507 183.751C350.507 184.33 350.019 184.818 349.44 184.818Z" fill="black" style="fill:black;fill-opacity:1;"/>
<path d="M133.825 173.11L135.959 175.245C137.666 176.952 137.666 179.726 135.959 181.434L135.014 182.379C133.306 184.086 130.532 184.086 128.825 182.379L126.69 180.245C124.983 178.537 124.983 175.763 126.69 174.056L127.636 173.11C129.343 171.403 132.117 171.403 133.825 173.11Z" fill="#FFD000" style="fill:#FFD000;fill:color(display-p3 1.0000 0.8157 0.0000);fill-opacity:1;"/>
<path d="M155.624 181.342L157.758 183.476C159.465 185.184 159.465 187.958 157.758 189.666L156.813 190.611C155.106 192.318 152.331 192.318 150.624 190.611L148.49 188.477C146.782 186.769 146.782 183.995 148.49 182.287L149.435 181.342C151.142 179.635 153.916 179.635 155.624 181.342Z" fill="#FFD000" style="fill:#FFD000;fill:color(display-p3 1.0000 0.8157 0.0000);fill-opacity:1;"/>
<path d="M170.655 196.373L172.789 198.507C174.496 200.215 174.496 202.989 172.789 204.697L171.844 205.642C170.136 207.349 167.362 207.349 165.654 205.642L163.52 203.508C161.813 201.8 161.813 199.026 163.52 197.318L164.465 196.373C166.173 194.666 168.947 194.666 170.655 196.373Z" fill="#FFD000" style="fill:#FFD000;fill:color(display-p3 1.0000 0.8157 0.0000);fill-opacity:1;"/>
<path d="M178.857 218.142L180.991 220.276C182.698 221.984 182.698 224.758 180.991 226.465L180.046 227.411C178.338 229.118 175.564 229.118 173.857 227.411L171.722 225.276C170.015 223.569 170.015 220.795 171.722 219.087L172.668 218.142C174.375 216.435 177.149 216.435 178.857 218.142Z" fill="#FFD000" style="fill:#FFD000;fill:color(display-p3 1.0000 0.8157 0.0000);fill-opacity:1;"/>
<path d="M61.1396 133.475C60.5603 133.475 60.0725 132.987 60.0725 132.408C60.0725 130.06 62.0543 128.932 63.6702 128.018C65.2251 127.134 66.1702 126.524 66.1702 125.457C66.1702 124.39 65.2251 123.81 63.6702 122.896C62.0848 121.981 60.0725 120.853 60.0725 118.505C60.0725 116.158 62.0543 115.03 63.6702 114.115C65.2251 113.231 66.1702 112.621 66.1702 111.554C66.1702 110.487 65.2251 109.908 63.6702 108.993C62.0848 108.078 60.0725 106.95 60.0725 104.602C60.0725 102.255 62.0543 101.127 63.6702 100.212C65.2251 99.328 66.1702 98.7182 66.1702 97.6511C66.1702 97.0718 66.6581 96.584 67.2373 96.584C67.8166 96.584 68.3044 97.0718 68.3044 97.6511C68.3044 99.9987 66.3227 101.127 64.7068 102.041C63.1519 102.926 62.2067 103.535 62.2067 104.602C62.2067 105.67 63.1519 106.249 64.7068 107.164C66.2922 108.078 68.3044 109.206 68.3044 111.554C68.3044 113.902 66.3227 115.03 64.7068 115.944C63.1519 116.828 62.2067 117.438 62.2067 118.505C62.2067 119.572 63.1519 120.152 64.7068 121.066C66.2922 121.981 68.3044 123.109 68.3044 125.457C68.3044 127.804 66.3227 128.932 64.7068 129.847C63.1519 130.731 62.2067 131.341 62.2067 132.408C62.2067 132.987 61.7494 133.475 61.1396 133.475Z" fill="#FFD000" style="fill:#FFD000;fill:color(display-p3 1.0000 0.8157 0.0000);fill-opacity:1;"/>
<path d="M259.774 237.502C257.426 237.502 256.298 235.52 255.383 233.905C254.499 232.35 253.889 231.404 252.822 231.404C251.755 231.404 251.176 232.35 250.261 233.905C249.347 235.49 248.218 237.502 245.871 237.502C243.523 237.502 242.395 235.52 241.48 233.905C240.596 232.35 239.986 231.404 238.919 231.404C237.852 231.404 237.273 232.35 236.358 233.905C235.444 235.49 234.316 237.502 231.968 237.502C229.62 237.502 228.492 235.52 227.578 233.905C226.693 232.35 226.084 231.404 225.017 231.404C224.437 231.404 223.949 230.917 223.949 230.337C223.949 229.758 224.437 229.27 225.017 229.27C227.364 229.27 228.492 231.252 229.407 232.868C230.291 234.423 230.901 235.368 231.968 235.368C233.035 235.368 233.614 234.423 234.529 232.868C235.444 231.283 236.572 229.27 238.919 229.27C241.267 229.27 242.395 231.252 243.31 232.868C244.194 234.423 244.804 235.368 245.871 235.368C246.938 235.368 247.517 234.423 248.432 232.868C249.347 231.283 250.475 229.27 252.822 229.27C255.17 229.27 256.298 231.252 257.213 232.868C258.097 234.423 258.706 235.368 259.774 235.368C260.353 235.368 260.841 235.856 260.841 236.435C260.841 237.014 260.353 237.502 259.774 237.502Z" fill="black" style="fill:black;fill-opacity:1;"/>
</svg>
