<svg width="395" height="297" viewBox="0 0 395 297" fill="none" xmlns="http://www.w3.org/2000/svg">
<path d="M292.101 214.641C312.019 214.641 328.166 198.494 328.166 178.576C328.166 158.658 312.019 142.511 292.101 142.511C272.183 142.511 256.036 158.658 256.036 178.576C256.036 198.494 272.183 214.641 292.101 214.641Z" fill="#FFD000" style="fill:#FFD000;fill:color(display-p3 1.0000 0.8157 0.0000);fill-opacity:1;"/>
<path d="M311.14 145.501C311.14 146.294 311.079 147.088 310.987 147.85C305.495 144.464 298.996 142.48 292.07 142.48C285.144 142.48 278.645 144.433 273.153 147.82C273.061 147.057 273 146.264 273 145.47C273 134.944 281.543 126.4 292.07 126.4C302.627 126.431 311.14 134.974 311.14 145.501Z" fill="#FFD000" style="fill:#FFD000;fill:color(display-p3 1.0000 0.8157 0.0000);fill-opacity:1;"/>
<path d="M298.874 220.927H285.296V262.057H298.874V220.927Z" fill="#FFD000" style="fill:#FFD000;fill:color(display-p3 1.0000 0.8157 0.0000);fill-opacity:1;"/>
<path d="M269.43 220.927H255.853V262.057H269.43V220.927Z" fill="#FFD000" style="fill:#FFD000;fill:color(display-p3 1.0000 0.8157 0.0000);fill-opacity:1;"/>
<path d="M326.703 220.927H313.125V262.057H326.703V220.927Z" fill="#FFD000" style="fill:#FFD000;fill:color(display-p3 1.0000 0.8157 0.0000);fill-opacity:1;"/>
<path d="M349.189 220.927H234.982V229.867H349.189V220.927Z" fill="#FFD000" style="fill:#FFD000;fill:color(display-p3 1.0000 0.8157 0.0000);fill-opacity:1;"/>
<path d="M336.924 230.935H246.974C246.394 230.935 245.906 230.446 245.906 229.867C245.906 229.287 246.394 228.799 246.974 228.799H336.924C337.503 228.799 337.992 229.287 337.992 229.867C337.992 230.446 337.503 230.935 336.924 230.935Z" fill="black" style="fill:black;fill-opacity:1;"/>
<path d="M310.072 83.7751H274.129V92.5321H310.072V83.7751Z" fill="#FFD000" style="fill:#FFD000;fill:color(display-p3 1.0000 0.8157 0.0000);fill-opacity:1;"/>
<path d="M298.874 58.1145H285.296V83.7752H298.874V58.1145Z" fill="#FFD000" style="fill:#FFD000;fill:color(display-p3 1.0000 0.8157 0.0000);fill-opacity:1;"/>
<path d="M196.355 167.927H126.97C123.065 167.927 119.892 164.754 119.892 160.849V119.779C119.892 96.7122 138.595 78.0083 161.663 78.0083C184.73 78.0083 203.434 96.7122 203.434 119.779V160.849C203.434 164.754 200.26 167.927 196.355 167.927Z" fill="#FFD000" style="fill:#FFD000;fill:color(display-p3 1.0000 0.8157 0.0000);fill-opacity:1;"/>
<path d="M197.758 126.828C197.087 146.386 180.732 161.978 161.174 161.703C142.226 161.428 126.787 146.569 125.658 127.835C128.557 128.567 131.578 128.963 134.69 128.963C151.319 128.963 165.324 117.735 169.504 102.448C169.718 101.625 170.846 101.533 171.213 102.296C176.156 112.701 185.919 120.39 197.636 122.434C197.758 123.898 197.789 125.363 197.758 126.828Z" fill="white" style="fill:white;fill-opacity:1;"/>
<path d="M161.662 162.801C161.479 162.801 161.327 162.801 161.143 162.801C151.715 162.679 142.775 159.018 135.971 152.488C129.167 145.989 125.139 137.263 124.56 127.926C124.529 127.59 124.682 127.255 124.956 127.041C125.231 126.828 125.566 126.736 125.902 126.828C128.77 127.56 131.699 127.926 134.69 127.926C150.434 127.926 164.317 117.338 168.466 102.174C168.68 101.35 169.382 100.801 170.206 100.709C171.029 100.648 171.823 101.076 172.189 101.838C177.071 112.121 186.652 119.444 197.819 121.366C198.307 121.458 198.673 121.854 198.704 122.312C198.826 123.838 198.887 125.363 198.826 126.828C198.49 136.561 194.402 145.654 187.292 152.427C180.305 159.14 171.212 162.801 161.662 162.801ZM126.817 129.208C128.618 146.691 143.446 160.391 161.174 160.635C161.327 160.635 161.479 160.635 161.662 160.635C180.397 160.635 196.049 145.562 196.69 126.797C196.72 125.668 196.72 124.509 196.629 123.349C185.248 121.091 175.515 113.616 170.419 103.12C165.873 118.986 151.227 130.062 134.69 130.062C132.035 130.062 129.38 129.787 126.817 129.208Z" fill="black" style="fill:black;fill-opacity:1;"/>
<path d="M193.974 211.468V262.057H129.929V211.468C129.929 199.172 136.886 188.462 147.046 183.122C147.291 191.147 153.851 197.585 161.936 197.585C169.991 197.585 176.582 191.147 176.826 183.122C179.694 184.617 182.318 186.57 184.576 188.828C190.404 194.625 193.974 202.62 193.974 211.468Z" fill="#FFD000" style="fill:#FFD000;fill:color(display-p3 1.0000 0.8157 0.0000);fill-opacity:1;"/>
<path d="M169.199 62.0504C167.52 62.0504 165.812 61.4096 164.53 60.1281C161.967 57.5651 161.967 53.3544 164.53 50.7914C165.781 49.5404 167.429 48.8691 169.199 48.8691C170.968 48.8691 172.616 49.5709 173.867 50.7914C176.43 53.3544 176.43 57.5651 173.867 60.1281C172.555 61.4096 170.877 62.0504 169.199 62.0504ZM169.199 50.9745C168.009 50.9745 166.88 51.4322 166.025 52.2865C164.286 54.0257 164.286 56.8633 166.025 58.6025C167.764 60.3417 170.602 60.3417 172.341 58.6025C174.08 56.8633 174.08 54.0257 172.341 52.2865C171.487 51.4322 170.388 50.9745 169.199 50.9745Z" fill="black" style="fill:black;fill-opacity:1;"/>
<path d="M250.33 69.5867C248.652 69.5867 246.944 68.946 245.662 67.6645C243.099 65.1015 243.099 60.8908 245.662 58.3278C248.225 55.7648 252.436 55.7648 254.999 58.3278C256.25 59.5788 256.921 61.2264 256.921 62.9961C256.921 64.7658 256.219 66.4135 254.999 67.6645C253.717 68.946 252.009 69.5867 250.33 69.5867ZM250.33 58.5414C249.201 58.5414 248.042 58.9685 247.157 59.8534C245.418 61.5926 245.418 64.4302 247.157 66.1694C248.896 67.9086 251.734 67.9086 253.473 66.1694C254.327 65.315 254.785 64.2166 254.785 62.9961C254.785 61.8062 254.327 60.6772 253.473 59.8229C252.619 58.9685 251.459 58.5414 250.33 58.5414Z" fill="#FFD000" style="fill:#FFD000;fill:color(display-p3 1.0000 0.8157 0.0000);fill-opacity:1;"/>
<path d="M96.1218 86.2159C94.4437 86.2159 92.735 85.5751 91.4535 84.2936C88.8905 81.7306 88.8905 77.5199 91.4535 74.9569C94.0165 72.3939 98.2272 72.3939 100.79 74.9569C103.353 77.5199 103.353 81.7306 100.79 84.2936C99.5087 85.5751 97.8 86.2159 96.1218 86.2159ZM96.1218 75.1705C94.9929 75.1705 93.8334 75.5977 92.9486 76.4825C91.2094 78.2217 91.2094 81.0593 92.9486 82.7985C94.6878 84.5377 97.5254 84.5377 99.2646 82.7985C101.004 81.0593 101.004 78.2217 99.2646 76.4825C98.4103 75.5977 97.2508 75.1705 96.1218 75.1705Z" fill="#FFD000" style="fill:#FFD000;fill:color(display-p3 1.0000 0.8157 0.0000);fill-opacity:1;"/>
<path d="M326.702 56.4971C326.122 56.4971 325.634 56.0089 325.634 55.4292V40.3257C325.634 39.746 326.122 39.2578 326.702 39.2578C327.281 39.2578 327.77 39.746 327.77 40.3257V55.4597C327.77 56.0394 327.281 56.4971 326.702 56.4971Z" fill="#FFD000" style="fill:#FFD000;fill:color(display-p3 1.0000 0.8157 0.0000);fill-opacity:1;"/>
<path d="M334.269 48.9608H319.135C318.555 48.9608 318.067 48.4726 318.067 47.8929C318.067 47.3131 318.555 46.825 319.135 46.825H334.269C334.848 46.825 335.337 47.3131 335.337 47.8929C335.337 48.4726 334.848 48.9608 334.269 48.9608Z" fill="#FFD000" style="fill:#FFD000;fill:color(display-p3 1.0000 0.8157 0.0000);fill-opacity:1;"/>
<path d="M73.3296 66.7493C72.7499 66.7493 72.2617 66.2611 72.2617 65.6814V50.5474C72.2617 49.9677 72.7499 49.4795 73.3296 49.4795C73.9094 49.4795 74.3976 49.9677 74.3976 50.5474V65.6814C74.3976 66.2611 73.9094 66.7493 73.3296 66.7493Z" fill="black" style="fill:black;fill-opacity:1;"/>
<path d="M80.8972 59.1825H65.7632C65.1835 59.1825 64.6953 58.6943 64.6953 58.1146C64.6953 57.5348 65.1835 57.0466 65.7632 57.0466H80.8972C81.4769 57.0466 81.9651 57.5348 81.9651 58.1146C81.9651 58.6943 81.4769 59.1825 80.8972 59.1825Z" fill="black" style="fill:black;fill-opacity:1;"/>
<path d="M221.099 251.957C220.519 251.957 220.031 251.469 220.031 250.889V235.755C220.031 235.176 220.519 234.688 221.099 234.688C221.679 234.688 222.167 235.176 222.167 235.755V250.889C222.167 251.5 221.679 251.957 221.099 251.957Z" fill="black" style="fill:black;fill-opacity:1;"/>
<path d="M228.667 244.421H213.533C212.953 244.421 212.465 243.933 212.465 243.353C212.465 242.773 212.953 242.285 213.533 242.285H228.667C229.246 242.285 229.735 242.773 229.735 243.353C229.735 243.933 229.246 244.421 228.667 244.421Z" fill="black" style="fill:black;fill-opacity:1;"/>
<path d="M105.275 242.59C102.926 242.59 101.797 240.607 100.882 238.99C99.9969 237.434 99.3866 236.488 98.3187 236.488C97.2508 236.488 96.6711 237.434 95.7557 238.99C94.8403 240.577 93.7114 242.59 91.362 242.59C89.0125 242.59 87.8836 240.607 86.9682 238.99C86.0834 237.434 85.4731 236.488 84.4052 236.488C83.3373 236.488 82.7576 237.434 81.8422 238.99C80.9269 240.577 79.7979 242.59 77.4485 242.59C75.0991 242.59 73.9701 240.607 73.0548 238.99C72.1699 237.434 71.5597 236.488 70.4917 236.488C69.912 236.488 69.4238 236 69.4238 235.42C69.4238 234.84 69.912 234.352 70.4917 234.352C72.8412 234.352 73.9701 236.335 74.8855 237.952C75.7703 239.509 76.3806 240.454 77.4485 240.454C78.5164 240.454 79.0961 239.509 80.0115 237.952C80.9269 236.366 82.0558 234.352 84.4052 234.352C86.7547 234.352 87.8836 236.335 88.799 237.952C89.6838 239.509 90.294 240.454 91.362 240.454C92.4299 240.454 93.0096 239.509 93.925 237.952C94.8403 236.366 95.9693 234.352 98.3187 234.352C100.668 234.352 101.797 236.335 102.712 237.952C103.597 239.509 104.208 240.454 105.275 240.454C105.855 240.454 106.343 240.943 106.343 241.522C106.343 242.102 105.855 242.59 105.275 242.59Z" fill="#FFD000" style="fill:#FFD000;fill:color(display-p3 1.0000 0.8157 0.0000);fill-opacity:1;"/>
<path d="M97.4957 123.593C95.1462 123.593 94.0173 121.61 93.1019 119.993C92.2171 118.437 91.6068 117.491 90.5389 117.491C89.471 117.491 88.8913 118.437 87.9759 119.993C87.0606 121.579 85.9316 123.593 83.5822 123.593C81.2328 123.593 80.1038 121.61 79.1885 119.993C78.3036 118.437 77.6934 117.491 76.6254 117.491C75.5575 117.491 74.9778 118.437 74.0624 119.993C73.1471 121.579 72.0181 123.593 69.6687 123.593C67.3193 123.593 66.1903 121.61 65.275 119.993C64.3901 118.437 63.7799 117.491 62.712 117.491C62.1322 117.491 61.644 117.003 61.644 116.423C61.644 115.843 62.1322 115.355 62.712 115.355C65.0614 115.355 66.1903 117.338 67.1057 118.955C67.9905 120.512 68.6008 121.457 69.6687 121.457C70.7366 121.457 71.3164 120.512 72.2317 118.955C73.1471 117.369 74.276 115.355 76.6254 115.355C78.9749 115.355 80.1038 117.338 81.0192 118.955C81.904 120.512 82.5143 121.457 83.5822 121.457C84.6501 121.457 85.2298 120.512 86.1452 118.955C87.0606 117.369 88.1895 115.355 90.5389 115.355C92.8883 115.355 94.0173 117.338 94.9327 118.955C95.8175 120.512 96.4277 121.457 97.4957 121.457C98.0754 121.457 98.5636 121.946 98.5636 122.525C98.5636 123.105 98.0754 123.593 97.4957 123.593Z" fill="black" style="fill:black;fill-opacity:1;"/>
<g opacity="0.1">
<path opacity="0.1" d="M208.559 33.3076C208.528 33.3076 208.498 33.3076 208.467 33.338C208.467 33.2771 208.467 33.1859 208.467 33.125C208.498 33.125 208.498 33.125 208.528 33.125C208.65 33.1554 208.741 33.1859 208.863 33.2163C208.772 33.2467 208.65 33.2771 208.559 33.3076Z" fill="#0079B5" style="fill:#0079B5;fill:color(display-p3 0.0000 0.4745 0.7098);fill-opacity:1;"/>
</g>
<path d="M147.078 184.312C146.681 184.312 146.315 184.099 146.132 183.732C145.857 183.214 146.071 182.573 146.59 182.298C151.289 179.827 156.628 178.515 161.968 178.515C167.338 178.515 172.647 179.827 177.346 182.298C177.865 182.573 178.078 183.214 177.803 183.732C177.529 184.251 176.888 184.465 176.369 184.19C171.976 181.871 167.002 180.651 161.998 180.651C156.903 180.651 152.051 181.841 147.597 184.19C147.414 184.251 147.261 184.312 147.078 184.312Z" fill="black" style="fill:black;fill-opacity:1;"/>
<path d="M161.967 180.62C161.387 180.62 160.899 180.132 160.899 179.552V161.703C160.899 161.123 161.387 160.635 161.967 160.635C162.547 160.635 163.035 161.123 163.035 161.703V179.552C163.035 180.162 162.547 180.62 161.967 180.62Z" fill="black" style="fill:black;fill-opacity:1;"/>
<path d="M150.373 134.913C152.429 134.913 154.096 133.247 154.096 131.191C154.096 129.135 152.429 127.468 150.373 127.468C148.317 127.468 146.651 129.135 146.651 131.191C146.651 133.247 148.317 134.913 150.373 134.913Z" fill="black" style="fill:black;fill-opacity:1;"/>
<path d="M172.951 134.913C175.007 134.913 176.674 133.247 176.674 131.191C176.674 129.135 175.007 127.468 172.951 127.468C170.896 127.468 169.229 129.135 169.229 131.191C169.229 133.247 170.896 134.913 172.951 134.913Z" fill="black" style="fill:black;fill-opacity:1;"/>
<path d="M161.692 153.312C156.78 153.312 152.813 149.315 152.813 144.433C152.813 143.853 153.302 143.365 153.881 143.365C154.461 143.365 154.949 143.853 154.949 144.433C154.949 148.155 157.97 151.176 161.692 151.176C165.415 151.176 168.436 148.155 168.436 144.433C168.436 143.853 168.924 143.365 169.504 143.365C170.083 143.365 170.571 143.853 170.571 144.433C170.602 149.315 166.605 153.312 161.692 153.312Z" fill="black" style="fill:black;fill-opacity:1;"/>
<path d="M86.7249 217.448C83.6432 217.448 81.0192 216.808 78.9138 215.526C71.9571 211.285 70.462 200.453 74.4591 183.305C74.5811 182.726 75.1609 182.359 75.7406 182.512C76.3203 182.634 76.6865 183.214 76.5339 183.793C72.7504 199.934 73.9404 210.003 80.0123 213.695C86.1757 217.448 96.3362 214.092 103.781 210.614C112.111 206.708 121.631 200.514 129.228 194.046C129.686 193.649 130.357 193.71 130.723 194.168C131.12 194.625 131.059 195.297 130.601 195.663C122.851 202.253 113.179 208.569 104.666 212.536C97.7093 215.801 91.6374 217.448 86.7249 217.448Z" fill="black" style="fill:black;fill-opacity:1;"/>
<path d="M214.966 223.673C207.308 223.673 198.856 208.417 193.028 195.297C192.784 194.747 193.028 194.137 193.577 193.893C194.127 193.649 194.737 193.893 194.981 194.442C202.914 212.292 210.634 222.391 215.607 221.506C218.323 221.018 223.083 216.38 224.669 190.75C224.7 190.171 225.218 189.713 225.798 189.743C226.378 189.774 226.836 190.293 226.805 190.872C225.524 211.804 221.984 222.513 216.004 223.581C215.638 223.642 215.302 223.673 214.966 223.673Z" fill="black" style="fill:black;fill-opacity:1;"/>
<path d="M161.967 198.744C157.787 198.744 153.82 197.127 150.83 194.229C147.84 191.33 146.131 187.424 146.009 183.244C146.009 182.848 146.223 182.451 146.589 182.268C151.288 179.796 156.627 178.484 161.967 178.484C167.337 178.484 172.646 179.796 177.345 182.268C177.711 182.451 177.925 182.848 177.925 183.244C177.803 187.394 176.094 191.299 173.104 194.229C170.114 197.158 166.147 198.744 161.967 198.744ZM148.176 183.885C148.725 191.086 154.644 196.639 161.967 196.639C169.29 196.639 175.209 191.086 175.758 183.885C171.517 181.749 166.788 180.651 161.967 180.651C157.116 180.62 152.478 181.719 148.176 183.885Z" fill="black" style="fill:black;fill-opacity:1;"/>
<path d="M94.5967 199.782C88.8299 199.782 85.1379 194.808 82.2088 190.872C79.9509 187.821 77.815 184.953 75.4961 185.075C73.2993 185.167 70.5227 187.882 67.2579 193.13C64.9695 196.792 61.369 198.714 57.3109 198.378C52.5511 198.012 48.2794 194.625 46.1741 189.621C44.4959 185.594 44.2823 180.742 45.5943 175.586C47.1199 169.605 50.6288 163.32 56.0294 156.912C66.9528 143.914 86.4499 142.206 99.4481 153.129C107.29 159.719 112.202 170.704 111.683 180.529C111.317 187.547 108.327 193.161 103.018 196.761L102.408 195.876L103.018 196.761C99.7837 198.928 97.0071 199.782 94.5967 199.782ZM75.6182 182.939C78.944 182.939 81.3544 186.173 83.9174 189.621C88.1586 195.327 92.5523 201.246 101.859 194.961C107.839 190.933 109.364 184.8 109.609 180.407C110.097 171.223 105.489 160.94 98.136 154.746C86.0228 144.586 67.8986 146.142 57.7381 158.255C44.3128 174.243 46.6012 184.922 48.2184 188.767C50.0186 193.069 53.5885 195.907 57.555 196.242C60.7588 196.487 63.6575 194.961 65.5187 192.001C69.2717 185.96 72.4449 183.061 75.4656 182.939C75.4656 182.939 75.5571 182.939 75.6182 182.939Z" fill="black" style="fill:black;fill-opacity:1;"/>
<path d="M63.6272 181.444C67.1997 181.444 70.0958 178.548 70.0958 174.975C70.0958 171.403 67.1997 168.507 63.6272 168.507C60.0548 168.507 57.1587 171.403 57.1587 174.975C57.1587 178.548 60.0548 181.444 63.6272 181.444Z" fill="#FFD000" style="fill:#FFD000;fill:color(display-p3 1.0000 0.8157 0.0000);fill-opacity:1;"/>
<path d="M80.1033 168.08C83.6758 168.08 86.5719 165.184 86.5719 161.611C86.5719 158.039 83.6758 155.143 80.1033 155.143C76.5308 155.143 73.6348 158.039 73.6348 161.611C73.6348 165.184 76.5308 168.08 80.1033 168.08Z" fill="#FFD000" style="fill:#FFD000;fill:color(display-p3 1.0000 0.8157 0.0000);fill-opacity:1;"/>
<path d="M96.1228 181.536C99.6953 181.536 102.591 178.64 102.591 175.067C102.591 171.495 99.6953 168.599 96.1228 168.599C92.5504 168.599 89.6543 171.495 89.6543 175.067C89.6543 178.64 92.5504 181.536 96.1228 181.536Z" fill="#FFD000" style="fill:#FFD000;fill:color(display-p3 1.0000 0.8157 0.0000);fill-opacity:1;"/>
<path d="M161.967 263.125C161.387 263.125 160.899 262.637 160.899 262.057V197.677C160.899 197.097 161.387 196.609 161.967 196.609C162.547 196.609 163.035 197.097 163.035 197.677V262.027C163.035 262.637 162.547 263.125 161.967 263.125Z" fill="black" style="fill:black;fill-opacity:1;"/>
<path d="M169.198 216.411C170.479 216.411 171.517 215.373 171.517 214.092C171.517 212.812 170.479 211.773 169.198 211.773C167.918 211.773 166.879 212.812 166.879 214.092C166.879 215.373 167.918 216.411 169.198 216.411Z" fill="white" style="fill:white;fill-opacity:1;"/>
<path d="M169.198 217.479C167.337 217.479 165.812 215.953 165.812 214.092C165.812 212.231 167.337 210.705 169.198 210.705C171.06 210.705 172.585 212.231 172.585 214.092C172.585 215.953 171.06 217.479 169.198 217.479ZM169.198 212.841C168.497 212.841 167.947 213.39 167.947 214.092C167.947 214.794 168.497 215.343 169.198 215.343C169.9 215.343 170.449 214.794 170.449 214.092C170.449 213.39 169.87 212.841 169.198 212.841Z" fill="black" style="fill:black;fill-opacity:1;"/>
<path d="M169.198 232.186C170.479 232.186 171.517 231.147 171.517 229.867C171.517 228.586 170.479 227.548 169.198 227.548C167.918 227.548 166.879 228.586 166.879 229.867C166.879 231.147 167.918 232.186 169.198 232.186Z" fill="white" style="fill:white;fill-opacity:1;"/>
<path d="M169.198 233.253C167.337 233.253 165.812 231.728 165.812 229.867C165.812 228.005 167.337 226.48 169.198 226.48C171.06 226.48 172.585 228.005 172.585 229.867C172.585 231.728 171.06 233.253 169.198 233.253ZM169.198 228.616C168.497 228.616 167.947 229.165 167.947 229.867C167.947 230.568 168.497 231.118 169.198 231.118C169.9 231.118 170.449 230.568 170.449 229.867C170.449 229.195 169.87 228.616 169.198 228.616Z" fill="black" style="fill:black;fill-opacity:1;"/>
<path d="M169.198 247.991C170.479 247.991 171.517 246.953 171.517 245.672C171.517 244.391 170.479 243.353 169.198 243.353C167.918 243.353 166.879 244.391 166.879 245.672C166.879 246.953 167.918 247.991 169.198 247.991Z" fill="white" style="fill:white;fill-opacity:1;"/>
<path d="M169.198 249.059C167.337 249.059 165.812 247.533 165.812 245.672C165.812 243.811 167.337 242.285 169.198 242.285C171.06 242.285 172.585 243.811 172.585 245.672C172.585 247.533 171.06 249.059 169.198 249.059ZM169.198 244.421C168.497 244.421 167.947 244.97 167.947 245.672C167.947 246.374 168.497 246.923 169.198 246.923C169.9 246.923 170.449 246.374 170.449 245.672C170.449 244.97 169.87 244.421 169.198 244.421Z" fill="black" style="fill:black;fill-opacity:1;"/>
<path d="M170.297 102.845C169.717 102.845 169.229 102.357 169.229 101.777V89.1451C169.229 88.5653 169.717 88.0771 170.297 88.0771C170.877 88.0771 171.365 88.5653 171.365 89.1451V101.777C171.365 102.387 170.877 102.845 170.297 102.845Z" fill="black" style="fill:black;fill-opacity:1;"/>
<path d="M125.628 128.902C125.567 128.902 125.475 128.902 125.414 128.872C122.18 128.17 120.746 126.339 120.685 126.278C120.319 125.821 120.41 125.149 120.868 124.783C121.326 124.417 121.997 124.509 122.363 124.966C122.424 125.027 123.462 126.278 125.872 126.797C126.452 126.919 126.818 127.499 126.696 128.079C126.574 128.567 126.116 128.902 125.628 128.902Z" fill="black" style="fill:black;fill-opacity:1;"/>
<path d="M200.382 123.502H197.636C197.057 123.502 196.568 123.013 196.568 122.434C196.568 121.854 197.057 121.366 197.636 121.366H200.382C200.962 121.366 201.45 121.854 201.45 122.434C201.45 123.013 200.962 123.502 200.382 123.502Z" fill="black" style="fill:black;fill-opacity:1;"/>
<path d="M349.19 263.125H45.8389C45.2592 263.125 44.771 262.637 44.771 262.057C44.771 261.477 45.2592 260.989 45.8389 260.989H349.19C349.769 260.989 350.258 261.477 350.258 262.057C350.258 262.637 349.769 263.125 349.19 263.125Z" fill="black" style="fill:black;fill-opacity:1;"/>
<path d="M343.209 221.995H240.963C240.384 221.995 239.896 221.507 239.896 220.927V92.5626C239.896 91.9828 240.384 91.4946 240.963 91.4946H343.209C343.789 91.4946 344.277 91.9828 344.277 92.5626V220.927C344.277 221.507 343.789 221.995 343.209 221.995ZM242.031 219.859H342.141V93.6305H242.031V219.859Z" fill="black" style="fill:black;fill-opacity:1;"/>
<path d="M310.073 84.8429H274.129C273.55 84.8429 273.062 84.3547 273.062 83.775C273.062 83.1952 273.55 82.707 274.129 82.707H310.073C310.652 82.707 311.141 83.1952 311.141 83.775C311.141 84.3547 310.652 84.8429 310.073 84.8429Z" fill="black" style="fill:black;fill-opacity:1;"/>
<path d="M297.166 135.981C296.922 135.981 296.678 135.89 296.464 135.707C296.007 135.31 295.976 134.639 296.342 134.211L311.903 116.24C312.3 115.782 312.971 115.752 313.399 116.118C313.856 116.514 313.887 117.186 313.521 117.613L297.959 135.584C297.746 135.859 297.471 135.981 297.166 135.981Z" fill="black" style="fill:black;fill-opacity:1;"/>
<path d="M316.42 119.352C319.335 119.352 321.698 116.989 321.698 114.074C321.698 111.158 319.335 108.795 316.42 108.795C313.504 108.795 311.141 111.158 311.141 114.074C311.141 116.989 313.504 119.352 316.42 119.352Z" fill="#FFD000" style="fill:#FFD000;fill:color(display-p3 1.0000 0.8157 0.0000);fill-opacity:1;"/>
<path d="M287.554 135.981C287.249 135.981 286.975 135.859 286.761 135.615L270.895 117.643C270.498 117.216 270.559 116.515 270.986 116.148C271.413 115.752 272.115 115.813 272.481 116.24L288.348 134.212C288.744 134.639 288.683 135.34 288.256 135.707C288.073 135.89 287.798 135.981 287.554 135.981Z" fill="black" style="fill:black;fill-opacity:1;"/>
<path d="M267.966 119.352C270.881 119.352 273.244 116.989 273.244 114.074C273.244 111.158 270.881 108.795 267.966 108.795C265.05 108.795 262.687 111.158 262.687 114.074C262.687 116.989 265.05 119.352 267.966 119.352Z" fill="#FFD000" style="fill:#FFD000;fill:color(display-p3 1.0000 0.8157 0.0000);fill-opacity:1;"/>
<path d="M292.102 215.709C291.522 215.709 291.034 215.221 291.034 214.642V142.481C291.034 141.901 291.522 141.413 292.102 141.413C292.681 141.413 293.17 141.901 293.17 142.481V214.642C293.17 215.221 292.681 215.709 292.102 215.709Z" fill="black" style="fill:black;fill-opacity:1;"/>
<path d="M273.031 160.147C274.918 160.147 276.448 158.617 276.448 156.729C276.448 154.842 274.918 153.312 273.031 153.312C271.143 153.312 269.613 154.842 269.613 156.729C269.613 158.617 271.143 160.147 273.031 160.147Z" fill="white" style="fill:white;fill-opacity:1;"/>
<path d="M273.031 161.215C270.56 161.215 268.546 159.201 268.546 156.729C268.546 154.258 270.56 152.244 273.031 152.244C275.503 152.244 277.516 154.258 277.516 156.729C277.516 159.201 275.503 161.215 273.031 161.215ZM273.031 154.41C271.75 154.41 270.682 155.448 270.682 156.76C270.682 158.072 271.719 159.109 273.031 159.109C274.343 159.109 275.381 158.072 275.381 156.76C275.381 155.448 274.313 154.41 273.031 154.41Z" fill="black" style="fill:black;fill-opacity:1;"/>
<path d="M265.342 184.831C267.23 184.831 268.759 183.301 268.759 181.413C268.759 179.526 267.23 177.996 265.342 177.996C263.455 177.996 261.925 179.526 261.925 181.413C261.925 183.301 263.455 184.831 265.342 184.831Z" fill="white" style="fill:white;fill-opacity:1;"/>
<path d="M265.342 185.868C262.871 185.868 260.857 183.854 260.857 181.383C260.857 178.911 262.871 176.898 265.342 176.898C267.814 176.898 269.827 178.911 269.827 181.383C269.827 183.854 267.814 185.868 265.342 185.868ZM265.342 179.064C264.061 179.064 262.993 180.101 262.993 181.413C262.993 182.726 264.03 183.763 265.342 183.763C266.654 183.763 267.692 182.726 267.692 181.413C267.692 180.101 266.624 179.064 265.342 179.064Z" fill="black" style="fill:black;fill-opacity:1;"/>
<path d="M299.393 178.21C301.281 178.21 302.811 176.68 302.811 174.793C302.811 172.905 301.281 171.375 299.393 171.375C297.506 171.375 295.976 172.905 295.976 174.793C295.976 176.68 297.506 178.21 299.393 178.21Z" fill="white" style="fill:white;fill-opacity:1;"/>
<path d="M299.393 179.278C296.922 179.278 294.908 177.264 294.908 174.792C294.908 172.321 296.922 170.307 299.393 170.307C301.865 170.307 303.879 172.321 303.879 174.792C303.879 177.264 301.865 179.278 299.393 179.278ZM299.393 172.443C298.112 172.443 297.044 173.48 297.044 174.792C297.044 176.104 298.081 177.142 299.393 177.142C300.705 177.142 301.743 176.104 301.743 174.792C301.743 173.48 300.675 172.443 299.393 172.443Z" fill="black" style="fill:black;fill-opacity:1;"/>
<path d="M280.995 178.789C285.275 178.789 288.745 175.32 288.745 171.039C288.745 166.759 285.275 163.289 280.995 163.289C276.714 163.289 273.245 166.759 273.245 171.039C273.245 175.32 276.714 178.789 280.995 178.789Z" fill="white" style="fill:white;fill-opacity:1;"/>
<path d="M280.995 179.857C276.144 179.857 272.177 175.891 272.177 171.039C272.177 166.188 276.144 162.221 280.995 162.221C285.847 162.221 289.813 166.188 289.813 171.039C289.783 175.891 285.847 179.857 280.995 179.857ZM280.995 164.357C277.303 164.357 274.313 167.347 274.313 171.039C274.313 174.731 277.303 177.722 280.995 177.722C284.687 177.722 287.647 174.731 287.647 171.039C287.647 167.347 284.657 164.357 280.995 164.357Z" fill="black" style="fill:black;fill-opacity:1;"/>
<path d="M276.449 200.392C279.702 200.392 282.338 197.755 282.338 194.503C282.338 191.251 279.702 188.614 276.449 188.614C273.197 188.614 270.561 191.251 270.561 194.503C270.561 197.755 273.197 200.392 276.449 200.392Z" fill="white" style="fill:white;fill-opacity:1;"/>
<path d="M276.448 201.46C272.604 201.46 269.492 198.348 269.492 194.503C269.492 190.659 272.604 187.546 276.448 187.546C280.293 187.546 283.405 190.659 283.405 194.503C283.405 198.348 280.262 201.46 276.448 201.46ZM276.448 189.682C273.794 189.682 271.628 191.849 271.628 194.503C271.628 197.158 273.794 199.324 276.448 199.324C279.103 199.324 281.269 197.158 281.269 194.503C281.269 191.849 279.103 189.682 276.448 189.682Z" fill="black" style="fill:black;fill-opacity:1;"/>
<path d="M301.011 160.147C303.539 160.147 305.588 158.098 305.588 155.57C305.588 153.042 303.539 150.993 301.011 150.993C298.484 150.993 296.435 153.042 296.435 155.57C296.435 158.098 298.484 160.147 301.011 160.147Z" fill="white" style="fill:white;fill-opacity:1;"/>
<path d="M301.011 161.215C297.899 161.215 295.366 158.682 295.366 155.57C295.366 152.458 297.899 149.925 301.011 149.925C304.123 149.925 306.656 152.458 306.656 155.57C306.656 158.682 304.123 161.215 301.011 161.215ZM301.011 152.061C299.089 152.061 297.502 153.617 297.502 155.57C297.502 157.523 299.058 159.079 301.011 159.079C302.933 159.079 304.52 157.523 304.52 155.57C304.52 153.617 302.933 152.061 301.011 152.061Z" fill="black" style="fill:black;fill-opacity:1;"/>
<path d="M305.557 202.925C310.208 202.925 313.978 199.154 313.978 194.503C313.978 189.852 310.208 186.082 305.557 186.082C300.906 186.082 297.136 189.852 297.136 194.503C297.136 199.154 300.906 202.925 305.557 202.925Z" fill="white" style="fill:white;fill-opacity:1;"/>
<path d="M305.557 203.993C300.339 203.993 296.067 199.752 296.067 194.503C296.067 189.255 300.309 185.014 305.557 185.014C310.805 185.014 315.046 189.255 315.046 194.503C315.046 199.752 310.805 203.993 305.557 203.993ZM305.557 187.181C301.499 187.181 298.203 190.476 298.203 194.534C298.203 198.592 301.499 201.887 305.557 201.887C309.615 201.887 312.91 198.592 312.91 194.534C312.91 190.476 309.615 187.181 305.557 187.181Z" fill="black" style="fill:black;fill-opacity:1;"/>
<path d="M316.419 178.18C319.25 178.18 321.545 175.885 321.545 173.054C321.545 170.222 319.25 167.927 316.419 167.927C313.588 167.927 311.293 170.222 311.293 173.054C311.293 175.885 313.588 178.18 316.419 178.18Z" fill="white" style="fill:white;fill-opacity:1;"/>
<path d="M316.419 179.278C313.001 179.278 310.225 176.501 310.225 173.084C310.225 169.667 313.001 166.89 316.419 166.89C319.836 166.89 322.612 169.667 322.612 173.084C322.612 176.501 319.836 179.278 316.419 179.278ZM316.419 168.995C314.161 168.995 312.36 170.826 312.36 173.054C312.36 175.281 314.191 177.112 316.419 177.112C318.676 177.112 320.477 175.281 320.477 173.054C320.477 170.826 318.676 168.995 316.419 168.995Z" fill="black" style="fill:black;fill-opacity:1;"/>
<path d="M223.693 168.69C224.212 170.46 223.205 172.321 221.466 172.84C219.696 173.358 217.835 172.352 217.316 170.612C216.798 168.873 218.232 164.968 218.323 162.374C218.415 160.513 223.175 166.92 223.693 168.69Z" fill="#FFD000" style="fill:#FFD000;fill:color(display-p3 1.0000 0.8157 0.0000);fill-opacity:1;"/>
<path d="M225.707 185.868C225.249 185.868 224.852 185.594 224.7 185.136L219.94 170.979C219.757 170.429 220.062 169.819 220.611 169.636C221.16 169.453 221.771 169.758 221.954 170.307L226.714 184.465C226.897 185.014 226.592 185.624 226.042 185.807C225.92 185.868 225.829 185.868 225.707 185.868Z" fill="black" style="fill:black;fill-opacity:1;"/>
<path d="M308.059 147.271C307.906 147.271 307.754 147.24 307.601 147.149C302.75 144.769 297.563 143.548 292.132 143.548C286.975 143.548 282.032 144.647 277.394 146.783C276.845 147.027 276.235 146.813 275.991 146.264C275.747 145.715 275.96 145.105 276.509 144.86C281.422 142.572 286.7 141.413 292.162 141.413C297.929 141.413 303.452 142.694 308.578 145.227C309.096 145.501 309.31 146.142 309.066 146.661C308.822 147.057 308.456 147.271 308.059 147.271Z" fill="black" style="fill:black;fill-opacity:1;"/>
</svg>
