<svg width="270" height="164" viewBox="0 0 270 164" fill="none" xmlns="http://www.w3.org/2000/svg">
<g clip-path="url(#clip0_783_2955)">
<path d="M32.6047 151.846C32.1248 151.846 31.7344 151.457 31.7344 150.979V138.698C31.7344 138.22 32.1248 137.831 32.6047 137.831C33.0846 137.831 33.4751 138.22 33.4751 138.698V150.979C33.4751 151.457 33.0846 151.846 32.6047 151.846Z" fill="#868E96" style="fill:#868E96;fill:color(display-p3 0.5255 0.5569 0.5882);fill-opacity:1;"/>
<path d="M38.7671 145.707H26.4455C25.9656 145.707 25.5752 145.318 25.5752 144.84C25.5752 144.362 25.9656 143.973 26.4455 143.973H38.7671C39.247 143.973 39.6374 144.362 39.6374 144.84C39.6374 145.318 39.247 145.707 38.7671 145.707Z" fill="#868E96" style="fill:#868E96;fill:color(display-p3 0.5255 0.5569 0.5882);fill-opacity:1;"/>
<path d="M244.427 41.844C243.947 41.844 243.557 41.4549 243.557 40.9766V28.6965C243.557 28.2182 243.947 27.8291 244.427 27.8291C244.907 27.8291 245.297 28.2182 245.297 28.6965V40.9766C245.297 41.4549 244.907 41.844 244.427 41.844Z" fill="#868E96" style="fill:#868E96;fill:color(display-p3 0.5255 0.5569 0.5882);fill-opacity:1;"/>
<path d="M250.586 35.7055H238.265C237.785 35.7055 237.395 35.3164 237.395 34.8381C237.395 34.3598 237.785 33.9707 238.265 33.9707H250.586C251.066 33.9707 251.457 34.3598 251.457 34.8381C251.457 35.3164 251.066 35.7055 250.586 35.7055Z" fill="#868E96" style="fill:#868E96;fill:color(display-p3 0.5255 0.5569 0.5882);fill-opacity:1;"/>
<path d="M1.44477 130.32C1.05436 130.32 0.69876 130.054 0.599293 129.66C0.201422 128.049 0 126.379 0 124.694C0 113.234 9.35493 103.913 20.8509 103.913C25.4463 103.913 29.8055 105.373 33.4535 108.139C36.7508 110.637 39.2624 114.111 40.5928 117.995C41.5675 117.74 42.5746 117.611 43.5992 117.611C50.1516 117.611 55.4806 122.924 55.4806 129.452C55.4806 129.93 55.0902 130.32 54.6102 130.32C54.1303 130.32 53.7399 129.93 53.7399 129.452C53.7399 123.878 49.1917 119.346 43.5992 119.346C42.4652 119.346 41.3587 119.529 40.3068 119.893C40.083 119.97 39.8343 119.953 39.6229 119.844C39.4116 119.735 39.2549 119.544 39.1878 119.318C36.8155 111.271 29.2758 105.65 20.8509 105.65C10.3123 105.65 1.74068 114.196 1.74068 124.696C1.74068 126.24 1.9247 127.772 2.29024 129.246C2.40463 129.712 2.12115 130.181 1.65365 130.297C1.58402 130.315 1.5144 130.322 1.44477 130.322V130.32Z" fill="#EAEDEF" style="fill:#EAEDEF;fill:color(display-p3 0.9176 0.9294 0.9373);fill-opacity:1;"/>
<path d="M258.146 73.7591C257.776 73.7591 257.435 73.5237 257.316 73.1544C255.806 68.406 251.43 65.2164 246.426 65.2164C244.604 65.2164 242.793 65.6526 241.189 66.4803C240.958 66.5993 240.682 66.6092 240.443 66.5051C240.202 66.401 240.023 66.1953 239.951 65.945C238.342 60.2399 233.065 56.2573 227.115 56.2573C219.764 56.2573 213.784 62.2176 213.784 69.5435C213.784 70.2201 213.836 70.9016 213.938 71.5683C213.978 71.831 213.896 72.0962 213.714 72.2895C213.532 72.4828 213.274 72.5844 213.008 72.5621C212.978 72.5596 212.946 72.5621 212.913 72.5621C212.433 72.5621 212.043 72.173 212.043 71.6947C212.043 71.5485 212.08 71.4097 212.145 71.2883C212.078 70.7108 212.043 70.1235 212.043 69.5435C212.043 61.261 218.804 54.5225 227.115 54.5225C233.498 54.5225 239.2 58.5795 241.319 64.5076C242.925 63.8335 244.671 63.4816 246.426 63.4816C252.191 63.4816 257.234 67.1569 258.974 72.629C259.119 73.085 258.865 73.5733 258.407 73.717C258.32 73.7443 258.231 73.7567 258.144 73.7567L258.146 73.7591Z" fill="#868E96" style="fill:#868E96;fill:color(display-p3 0.5255 0.5569 0.5882);fill-opacity:1;"/>
<path d="M243.832 164C241.91 164 240.985 162.384 240.244 161.083C239.521 159.819 239.033 159.043 238.168 159.043C237.302 159.043 236.815 159.819 236.091 161.083C235.348 162.382 234.425 164 232.503 164C230.581 164 229.656 162.382 228.915 161.083C228.191 159.819 227.704 159.043 226.838 159.043C225.973 159.043 225.486 159.819 224.762 161.083C224.018 162.382 223.096 164 221.174 164C219.251 164 218.326 162.382 217.585 161.083C216.862 159.819 216.374 159.043 215.509 159.043C215.029 159.043 214.639 158.654 214.639 158.176C214.639 157.698 215.029 157.309 215.509 157.309C217.431 157.309 218.356 158.924 219.097 160.226C219.821 161.49 220.308 162.265 221.174 162.265C222.039 162.265 222.526 161.49 223.25 160.226C223.994 158.927 224.916 157.309 226.838 157.309C228.761 157.309 229.686 158.924 230.427 160.226C231.15 161.49 231.638 162.265 232.503 162.265C233.368 162.265 233.856 161.49 234.579 160.226C235.323 158.927 236.246 157.309 238.168 157.309C240.09 157.309 241.015 158.927 241.759 160.226C242.482 161.49 242.97 162.265 243.835 162.265C244.315 162.265 244.705 162.654 244.705 163.133C244.705 163.611 244.315 164 243.835 164H243.832Z" fill="#EAEDEF" style="fill:#EAEDEF;fill:color(display-p3 0.9176 0.9294 0.9373);fill-opacity:1;"/>
<path d="M219.794 100.483C218.416 100.483 217.038 99.96 215.989 98.9142C213.89 96.8225 213.89 93.4198 215.989 91.3305C218.088 89.2413 221.502 89.2388 223.598 91.3305C225.695 93.4222 225.697 96.825 223.598 98.9142C222.549 99.96 221.171 100.483 219.794 100.483ZM219.794 91.4941C218.861 91.4941 217.929 91.8485 217.22 92.5548C215.8 93.9699 215.8 96.2723 217.22 97.6849C218.64 99.1001 220.95 99.1001 222.37 97.6849C223.79 96.2698 223.79 93.9675 222.37 92.5548C221.661 91.8485 220.729 91.4941 219.796 91.4941H219.794Z" fill="#868E96" style="fill:#868E96;fill:color(display-p3 0.5255 0.5569 0.5882);fill-opacity:1;"/>
<path d="M199.94 44.7658C199.836 44.7658 199.731 44.7459 199.627 44.7063C199.179 44.5328 198.955 44.0322 199.127 43.5836L205.016 28.3643C205.19 27.9182 205.692 27.6951 206.142 27.8661C206.59 28.0396 206.813 28.5402 206.642 28.9888L200.753 44.2081C200.619 44.5526 200.291 44.7633 199.94 44.7633V44.7658Z" fill="#868E96" style="fill:#868E96;fill:color(display-p3 0.5255 0.5569 0.5882);fill-opacity:1;"/>
<path d="M179.077 41.8657C178.973 41.8657 178.868 41.8459 178.764 41.8062C178.316 41.6327 178.092 41.1321 178.264 40.6835L183.031 28.3613C183.205 27.9152 183.707 27.6922 184.157 27.8632C184.605 28.0367 184.829 28.5373 184.657 28.9859L179.89 41.3081C179.756 41.6525 179.428 41.8632 179.077 41.8632V41.8657Z" fill="#868E96" style="fill:#868E96;fill:color(display-p3 0.5255 0.5569 0.5882);fill-opacity:1;"/>
<path d="M165.375 137.43H70.6594C70.1795 137.43 69.7891 137.041 69.7891 136.562C69.7891 136.084 70.1795 135.695 70.6594 135.695H165.375C172.45 135.695 178.206 129.958 178.206 122.907C178.206 115.856 172.45 110.119 165.375 110.119C164.895 110.119 164.505 109.73 164.505 109.251C164.505 108.773 164.895 108.384 165.375 108.384C173.409 108.384 179.947 114.899 179.947 122.907C179.947 130.914 173.409 137.43 165.375 137.43Z" fill="#868E96" style="fill:#868E96;fill:color(display-p3 0.5255 0.5569 0.5882);fill-opacity:1;"/>
<path d="M183.555 109.995H60.879C57.3007 109.995 54.1625 107.611 53.2175 104.169L38.1507 49.3509C36.9944 45.1452 40.1699 40.999 44.544 40.999H193.601C198.873 40.999 202.829 45.7995 201.805 50.9519L191.346 103.614C190.61 107.321 187.345 109.993 183.553 109.993L183.555 109.995Z" fill="#EAEDEF" style="fill:#EAEDEF;fill:color(display-p3 0.9176 0.9294 0.9373);fill-opacity:1;"/>
<path d="M218.931 22.8301H167.787C165.912 22.8301 164.393 24.3441 164.393 26.2117C164.393 28.0794 165.912 29.5934 167.787 29.5934H218.931C220.805 29.5934 222.325 28.0794 222.325 26.2117C222.325 24.3441 220.805 22.8301 218.931 22.8301Z" fill="#EAEDEF" style="fill:#EAEDEF;fill:color(display-p3 0.9176 0.9294 0.9373);fill-opacity:1;"/>
<path d="M93.7577 163.787C93.6632 163.787 93.5662 163.782 93.4693 163.767C92.9272 163.69 92.4945 163.4 92.1488 163.165C91.9574 163.036 91.7559 162.902 91.6192 162.86C91.4724 162.818 91.2263 162.823 90.99 162.828C90.5748 162.835 90.0575 162.848 89.5676 162.625C89.0728 162.399 88.7421 162 88.476 161.678C88.3268 161.497 88.1726 161.311 88.0483 161.232C87.9214 161.15 87.6852 161.088 87.4589 161.026C87.0561 160.917 86.5563 160.783 86.1484 160.431C85.7406 160.079 85.5342 159.604 85.3701 159.222C85.2781 159.006 85.1811 158.783 85.0816 158.672C84.9847 158.56 84.7783 158.434 84.5768 158.312C84.2213 158.097 83.7786 157.827 83.4852 157.373C83.1943 156.922 83.1296 156.409 83.0799 155.998C83.05 155.765 83.0227 155.522 82.958 155.385C82.8958 155.252 82.7342 155.073 82.5775 154.902C82.2965 154.592 81.9459 154.208 81.7918 153.688C81.6401 153.175 81.7221 152.689 81.7942 152.26C81.834 152.027 81.8738 151.784 81.8514 151.633C81.8315 151.492 81.7271 151.276 81.6251 151.068C81.4411 150.691 81.2148 150.223 81.2148 149.678C81.2148 149.133 81.4436 148.664 81.6251 148.288C81.7271 148.079 81.8315 147.866 81.8514 147.725C81.8738 147.571 81.8315 147.331 81.7942 147.098C81.7221 146.669 81.6401 146.183 81.7918 145.67C81.9459 145.148 82.2965 144.763 82.5775 144.456C82.7342 144.285 82.8958 144.107 82.958 143.973C83.0202 143.834 83.05 143.594 83.0799 143.361C83.1296 142.949 83.1918 142.436 83.4852 141.985C83.7786 141.532 84.2213 141.262 84.5768 141.046C84.7783 140.924 84.9847 140.798 85.0816 140.687C85.1811 140.573 85.2756 140.352 85.3701 140.136C85.5342 139.755 85.7381 139.281 86.1459 138.927C86.5538 138.575 87.0536 138.439 87.4564 138.332C87.6852 138.27 87.919 138.208 88.0458 138.126C88.1701 138.047 88.3243 137.861 88.4735 137.68C88.7396 137.361 89.0703 136.959 89.5652 136.734C90.055 136.511 90.5723 136.523 90.9875 136.53C91.2238 136.535 91.47 136.54 91.6167 136.498C91.7559 136.459 91.9549 136.322 92.1463 136.193C92.4945 135.96 92.9272 135.668 93.4693 135.591C93.9964 135.514 94.4664 135.665 94.8817 135.797C95.1105 135.869 95.3442 135.943 95.5009 135.943C95.6575 135.943 95.8938 135.869 96.1201 135.797C96.5354 135.665 97.0028 135.517 97.5325 135.591C98.0746 135.668 98.5073 135.958 98.8554 136.193C99.0469 136.322 99.2483 136.456 99.3851 136.498C99.5318 136.54 99.778 136.535 100.014 136.53C100.43 136.523 100.947 136.511 101.437 136.734C101.931 136.959 102.262 137.358 102.528 137.68C102.677 137.861 102.832 138.047 102.956 138.126C103.083 138.208 103.319 138.27 103.545 138.332C103.948 138.441 104.448 138.575 104.856 138.927C105.264 139.279 105.47 139.755 105.634 140.136C105.726 140.352 105.823 140.575 105.92 140.687C106.017 140.798 106.224 140.924 106.425 141.046C106.781 141.262 107.223 141.532 107.517 141.985C107.808 142.436 107.872 142.949 107.922 143.361C107.949 143.594 107.979 143.836 108.044 143.973C108.106 144.107 108.268 144.285 108.424 144.456C108.705 144.766 109.056 145.15 109.21 145.67C109.362 146.183 109.28 146.669 109.208 147.098C109.168 147.331 109.128 147.574 109.15 147.725C109.17 147.866 109.275 148.082 109.377 148.29C109.561 148.667 109.787 149.135 109.787 149.68C109.787 150.226 109.558 150.694 109.377 151.071C109.275 151.279 109.17 151.492 109.15 151.633C109.128 151.787 109.17 152.027 109.208 152.263C109.28 152.691 109.362 153.177 109.21 153.69C109.056 154.213 108.705 154.597 108.424 154.905C108.268 155.076 108.106 155.254 108.044 155.388C107.982 155.524 107.952 155.767 107.922 156C107.872 156.411 107.81 156.924 107.517 157.376C107.223 157.829 106.781 158.099 106.425 158.315C106.224 158.436 106.017 158.563 105.92 158.674C105.821 158.788 105.726 159.009 105.632 159.224C105.468 159.606 105.264 160.079 104.856 160.434C104.448 160.786 103.948 160.922 103.545 161.029C103.317 161.09 103.083 161.152 102.956 161.234C102.832 161.314 102.677 161.499 102.528 161.68C102.262 162 101.931 162.402 101.437 162.627C100.947 162.85 100.43 162.84 100.014 162.83C99.7755 162.825 99.5318 162.82 99.3851 162.862C99.2458 162.902 99.0469 163.038 98.8554 163.167C98.5073 163.4 98.0746 163.693 97.5325 163.77C97.0053 163.846 96.5354 163.695 96.1201 163.564C95.8913 163.492 95.6575 163.418 95.5009 163.418C95.3442 163.418 95.108 163.492 94.8817 163.564C94.5435 163.67 94.1705 163.789 93.7577 163.789V163.787ZM91.2263 161.09C91.5048 161.09 91.8032 161.108 92.1066 161.197C92.5044 161.314 92.8327 161.534 93.1211 161.727C93.3424 161.876 93.5687 162.03 93.7154 162.05C93.8497 162.067 94.1158 161.983 94.352 161.908C94.6902 161.802 95.0732 161.68 95.5009 161.68C95.9286 161.68 96.3116 161.802 96.6497 161.908C96.886 161.983 97.1545 162.067 97.2888 162.05C97.433 162.03 97.6618 161.876 97.8831 161.727C98.1716 161.534 98.4998 161.314 98.8977 161.197C99.303 161.078 99.7009 161.088 100.054 161.095C100.303 161.1 100.586 161.108 100.713 161.051C100.845 160.991 101.019 160.781 101.185 160.577C101.409 160.307 101.66 160.003 102.014 159.777C102.367 159.549 102.752 159.447 103.09 159.356C103.331 159.291 103.607 159.217 103.714 159.125C103.821 159.033 103.933 158.771 104.033 158.543C104.172 158.221 104.329 157.856 104.605 157.539C104.881 157.222 105.219 157.016 105.52 156.835C105.734 156.704 105.977 156.558 106.054 156.436C106.129 156.32 106.164 156.037 106.194 155.789C106.236 155.442 106.283 155.046 106.46 154.664C106.634 154.285 106.9 153.995 107.134 153.737C107.313 153.542 107.497 153.341 107.536 153.2C107.574 153.068 107.529 152.791 107.487 152.548C107.43 152.201 107.362 151.807 107.422 151.388C107.482 150.979 107.653 150.625 107.805 150.312C107.922 150.074 108.041 149.827 108.041 149.678C108.041 149.529 107.922 149.281 107.805 149.043C107.653 148.731 107.482 148.377 107.422 147.968C107.362 147.549 107.43 147.155 107.487 146.808C107.529 146.563 107.574 146.285 107.536 146.154C107.497 146.015 107.313 145.814 107.134 145.618C106.9 145.361 106.634 145.068 106.46 144.691C106.283 144.31 106.236 143.916 106.194 143.566C106.164 143.318 106.129 143.038 106.054 142.922C105.977 142.803 105.734 142.654 105.52 142.523C105.219 142.342 104.881 142.134 104.605 141.819C104.329 141.502 104.172 141.138 104.033 140.815C103.933 140.585 103.821 140.325 103.714 140.233C103.607 140.141 103.334 140.067 103.09 140.003C102.752 139.911 102.367 139.807 102.014 139.581C101.66 139.356 101.409 139.051 101.185 138.781C101.016 138.577 100.842 138.367 100.713 138.307C100.586 138.25 100.305 138.255 100.054 138.263C99.7009 138.27 99.303 138.28 98.8977 138.161C98.4998 138.045 98.1716 137.824 97.8831 137.631C97.6618 137.482 97.4355 137.328 97.2888 137.309C97.1545 137.291 96.886 137.376 96.6522 137.45C96.314 137.556 95.9311 137.678 95.5034 137.678C95.0757 137.678 94.6927 137.556 94.3545 137.45C94.1183 137.376 93.8547 137.291 93.7154 137.309C93.5712 137.328 93.3424 137.482 93.1211 137.631C92.8327 137.824 92.5044 138.045 92.1066 138.161C91.7012 138.28 91.3009 138.27 90.9502 138.263C90.7016 138.258 90.4181 138.25 90.2913 138.307C90.1595 138.367 89.9854 138.577 89.8188 138.781C89.595 139.051 89.3438 139.356 88.9907 139.581C88.6376 139.809 88.2522 139.911 87.914 140.003C87.6728 140.067 87.3968 140.141 87.2898 140.233C87.1829 140.325 87.071 140.587 86.9715 140.815C86.8323 141.138 86.6756 141.502 86.3996 141.819C86.1261 142.134 85.7854 142.342 85.487 142.523C85.2731 142.654 85.0294 142.801 84.9523 142.922C84.8777 143.038 84.8429 143.321 84.8131 143.569C84.7708 143.916 84.7236 144.312 84.547 144.694C84.3729 145.073 84.1069 145.363 83.8731 145.621C83.6941 145.817 83.5101 146.017 83.4703 146.156C83.4305 146.288 83.4777 146.565 83.52 146.81C83.5797 147.157 83.6443 147.551 83.5847 147.97C83.525 148.379 83.3534 148.734 83.2017 149.046C83.0848 149.284 82.9655 149.532 82.9655 149.68C82.9655 149.829 83.0848 150.077 83.2017 150.315C83.3534 150.627 83.525 150.981 83.5847 151.39C83.6443 151.809 83.5772 152.203 83.52 152.55C83.4777 152.796 83.433 153.073 83.4703 153.204C83.5101 153.343 83.6941 153.544 83.8731 153.74C84.1069 153.998 84.3729 154.29 84.547 154.667C84.7236 155.048 84.7708 155.442 84.8131 155.792C84.8429 156.04 84.8777 156.32 84.9523 156.436C85.0294 156.555 85.2731 156.704 85.487 156.835C85.7879 157.016 86.1261 157.224 86.4021 157.539C86.6781 157.856 86.8348 158.221 86.974 158.543C87.0735 158.773 87.1854 159.033 87.2923 159.125C87.3992 159.217 87.6728 159.291 87.914 159.356C88.2522 159.447 88.6376 159.551 88.9907 159.777C89.3438 160.003 89.595 160.307 89.8188 160.577C89.9879 160.781 90.162 160.991 90.2913 161.051C90.4181 161.108 90.7016 161.103 90.9502 161.095C91.0398 161.095 91.1318 161.09 91.2287 161.09H91.2263Z" fill="#868E96" style="fill:#868E96;fill:color(display-p3 0.5255 0.5569 0.5882);fill-opacity:1;"/>
<path d="M153.207 163.787C153.113 163.787 153.016 163.782 152.919 163.767C152.377 163.69 151.944 163.4 151.596 163.165C151.405 163.036 151.206 162.902 151.066 162.86C150.92 162.818 150.673 162.823 150.437 162.828C150.024 162.835 149.505 162.848 149.017 162.625C148.522 162.399 148.192 162 147.926 161.678C147.776 161.497 147.622 161.311 147.498 161.232C147.371 161.15 147.135 161.088 146.909 161.026C146.506 160.917 146.006 160.783 145.598 160.431C145.19 160.079 144.984 159.604 144.82 159.222C144.728 159.006 144.631 158.783 144.534 158.672C144.437 158.56 144.23 158.434 144.029 158.312C143.673 158.097 143.231 157.827 142.937 157.373C142.646 156.922 142.582 156.409 142.532 155.998C142.502 155.765 142.475 155.522 142.41 155.385C142.348 155.252 142.186 155.076 142.03 154.902C141.749 154.592 141.398 154.208 141.244 153.688C141.092 153.175 141.174 152.689 141.246 152.26C141.286 152.027 141.326 151.784 141.304 151.633C141.284 151.492 141.179 151.276 141.077 151.068C140.893 150.691 140.667 150.223 140.667 149.678C140.667 149.133 140.896 148.664 141.077 148.288C141.179 148.079 141.284 147.866 141.304 147.725C141.326 147.571 141.284 147.331 141.246 147.098C141.174 146.669 141.092 146.183 141.244 145.67C141.398 145.148 141.749 144.763 142.03 144.456C142.186 144.285 142.348 144.107 142.41 143.973C142.472 143.834 142.502 143.594 142.532 143.361C142.582 142.949 142.644 142.439 142.937 141.985C143.231 141.532 143.673 141.262 144.029 141.046C144.23 140.924 144.437 140.798 144.534 140.687C144.631 140.573 144.728 140.352 144.82 140.136C144.984 139.755 145.188 139.281 145.598 138.927C146.006 138.575 146.506 138.439 146.909 138.332C147.137 138.27 147.371 138.208 147.498 138.126C147.622 138.047 147.776 137.861 147.926 137.68C148.192 137.358 148.522 136.959 149.017 136.734C149.507 136.511 150.024 136.523 150.44 136.53C150.678 136.535 150.922 136.54 151.069 136.498C151.208 136.459 151.407 136.322 151.598 136.193C151.947 135.96 152.379 135.668 152.919 135.591C153.446 135.514 153.916 135.665 154.331 135.797C154.56 135.869 154.794 135.943 154.951 135.943C155.107 135.943 155.331 135.871 155.57 135.797C155.985 135.665 156.453 135.517 156.982 135.591C157.524 135.668 157.957 135.958 158.305 136.193C158.497 136.322 158.698 136.456 158.835 136.498C158.981 136.54 159.228 136.535 159.464 136.53C159.882 136.523 160.396 136.511 160.886 136.734C161.381 136.959 161.712 137.358 161.978 137.68C162.127 137.861 162.281 138.047 162.406 138.126C162.532 138.208 162.769 138.27 162.995 138.332C163.398 138.441 163.898 138.575 164.305 138.927C164.713 139.279 164.92 139.755 165.084 140.136C165.176 140.352 165.273 140.575 165.37 140.687C165.467 140.798 165.673 140.924 165.875 141.046C166.23 141.262 166.673 141.532 166.966 141.985C167.257 142.436 167.322 142.949 167.372 143.361C167.401 143.594 167.429 143.836 167.493 143.973C167.556 144.107 167.717 144.283 167.874 144.456C168.155 144.766 168.506 145.15 168.66 145.67C168.811 146.183 168.729 146.669 168.657 147.098C168.617 147.331 168.578 147.574 168.6 147.725C168.62 147.866 168.724 148.082 168.826 148.29C169.008 148.667 169.237 149.135 169.237 149.68C169.237 150.226 169.008 150.694 168.826 151.071C168.724 151.279 168.62 151.492 168.6 151.633C168.578 151.787 168.62 152.027 168.657 152.263C168.729 152.691 168.811 153.177 168.66 153.69C168.506 154.213 168.155 154.597 167.874 154.905C167.717 155.076 167.556 155.254 167.493 155.388C167.431 155.527 167.401 155.767 167.372 156C167.322 156.411 167.26 156.922 166.966 157.376C166.673 157.829 166.23 158.099 165.872 158.315C165.671 158.436 165.464 158.563 165.367 158.674C165.27 158.788 165.173 159.009 165.081 159.224C164.917 159.606 164.713 160.079 164.303 160.434C163.895 160.786 163.395 160.922 162.993 161.029C162.764 161.09 162.53 161.152 162.403 161.234C162.279 161.314 162.125 161.499 161.975 161.68C161.709 162 161.379 162.402 160.884 162.627C160.394 162.85 159.877 162.838 159.461 162.83C159.225 162.825 158.979 162.82 158.832 162.862C158.693 162.902 158.494 163.038 158.303 163.167C157.954 163.4 157.522 163.693 156.982 163.77C156.453 163.846 155.985 163.695 155.57 163.564C155.331 163.487 155.107 163.418 154.951 163.418C154.794 163.418 154.558 163.492 154.331 163.564C153.996 163.67 153.62 163.789 153.207 163.789V163.787ZM150.676 161.09C150.954 161.09 151.253 161.108 151.556 161.197C151.954 161.314 152.282 161.534 152.571 161.727C152.79 161.876 153.018 162.03 153.165 162.05C153.299 162.067 153.565 161.983 153.802 161.908C154.14 161.802 154.523 161.68 154.951 161.68C155.378 161.68 155.761 161.802 156.099 161.908C156.336 161.983 156.604 162.067 156.738 162.05C156.883 162.03 157.111 161.876 157.333 161.727C157.621 161.534 157.95 161.314 158.347 161.197C158.753 161.078 159.153 161.088 159.504 161.095C159.752 161.1 160.036 161.108 160.163 161.051C160.294 160.991 160.469 160.781 160.635 160.577C160.859 160.307 161.11 160.003 161.463 159.777C161.816 159.549 162.202 159.447 162.54 159.356C162.781 159.291 163.057 159.217 163.164 159.125C163.271 159.031 163.383 158.771 163.482 158.543C163.622 158.221 163.778 157.856 164.054 157.539C164.33 157.222 164.669 157.016 164.969 156.835C165.183 156.704 165.427 156.558 165.504 156.436C165.579 156.32 165.613 156.04 165.643 155.792C165.686 155.442 165.735 155.048 165.909 154.667C166.083 154.29 166.35 153.998 166.583 153.74C166.762 153.544 166.946 153.343 166.986 153.204C167.026 153.073 166.979 152.796 166.936 152.553C166.879 152.206 166.812 151.812 166.872 151.393C166.931 150.984 167.103 150.63 167.255 150.317C167.372 150.079 167.491 149.832 167.491 149.683C167.491 149.534 167.372 149.286 167.255 149.048C167.103 148.736 166.931 148.382 166.872 147.973C166.812 147.554 166.877 147.16 166.936 146.813C166.979 146.568 167.023 146.29 166.986 146.159C166.946 146.02 166.76 145.817 166.583 145.623C166.35 145.366 166.083 145.073 165.909 144.696C165.733 144.315 165.686 143.921 165.643 143.571C165.613 143.323 165.579 143.043 165.504 142.927C165.427 142.808 165.193 142.667 164.969 142.528C164.671 142.347 164.33 142.139 164.057 141.824C163.781 141.507 163.624 141.143 163.485 140.82C163.385 140.59 163.274 140.33 163.167 140.238C163.06 140.146 162.786 140.072 162.542 140.007C162.204 139.916 161.819 139.812 161.466 139.586C161.113 139.361 160.861 139.056 160.638 138.786C160.469 138.582 160.294 138.372 160.165 138.312C160.038 138.255 159.757 138.26 159.506 138.268C159.153 138.275 158.755 138.285 158.35 138.166C157.952 138.05 157.624 137.829 157.335 137.636C157.114 137.487 156.888 137.333 156.741 137.314C156.604 137.296 156.338 137.38 156.102 137.455C155.764 137.561 155.381 137.683 154.953 137.683C154.525 137.683 154.142 137.561 153.804 137.455C153.568 137.38 153.302 137.296 153.165 137.314C153.021 137.333 152.792 137.487 152.571 137.636C152.282 137.829 151.954 138.05 151.556 138.166C151.151 138.285 150.751 138.275 150.4 138.268C150.151 138.263 149.868 138.255 149.741 138.312C149.609 138.372 149.435 138.582 149.268 138.786C149.045 139.053 148.794 139.358 148.44 139.586C148.087 139.814 147.702 139.916 147.364 140.007C147.122 140.072 146.846 140.146 146.739 140.238C146.633 140.332 146.521 140.592 146.421 140.82C146.282 141.143 146.125 141.507 145.849 141.824C145.573 142.139 145.235 142.347 144.937 142.528C144.723 142.659 144.479 142.805 144.402 142.927C144.327 143.043 144.293 143.326 144.263 143.574C144.22 143.921 144.173 144.317 143.997 144.699C143.823 145.078 143.557 145.368 143.323 145.626C143.144 145.822 142.96 146.022 142.92 146.161C142.88 146.292 142.927 146.57 142.97 146.815C143.029 147.162 143.094 147.556 143.034 147.975C142.975 148.384 142.803 148.739 142.651 149.051C142.534 149.289 142.415 149.537 142.415 149.685C142.415 149.834 142.534 150.082 142.651 150.32C142.803 150.632 142.975 150.986 143.034 151.395C143.094 151.814 143.029 152.208 142.97 152.555C142.927 152.801 142.883 153.078 142.92 153.209C142.96 153.348 143.146 153.551 143.323 153.745C143.557 154.003 143.823 154.295 143.997 154.672C144.173 155.053 144.22 155.447 144.263 155.797C144.293 156.045 144.327 156.325 144.402 156.441C144.479 156.56 144.723 156.709 144.937 156.84C145.235 157.021 145.576 157.229 145.849 157.544C146.125 157.861 146.282 158.226 146.421 158.548C146.521 158.778 146.633 159.038 146.739 159.13C146.846 159.222 147.12 159.296 147.361 159.361C147.702 159.452 148.085 159.556 148.438 159.782C148.791 160.007 149.042 160.312 149.266 160.582C149.435 160.786 149.609 160.996 149.738 161.056C149.865 161.113 150.149 161.108 150.397 161.1C150.487 161.1 150.579 161.095 150.676 161.095V161.09Z" fill="#868E96" style="fill:#868E96;fill:color(display-p3 0.5255 0.5569 0.5882);fill-opacity:1;"/>
<path d="M154.951 156.552C158.761 156.552 161.849 153.474 161.849 149.678C161.849 145.881 158.761 142.803 154.951 142.803C151.141 142.803 148.053 145.881 148.053 149.678C148.053 153.474 151.141 156.552 154.951 156.552Z" fill="#EAEDEF" style="fill:#EAEDEF;fill:color(display-p3 0.9176 0.9294 0.9373);fill-opacity:1;"/>
<path d="M95.5016 156.552C99.3113 156.552 102.4 153.474 102.4 149.678C102.4 145.881 99.3113 142.803 95.5016 142.803C91.6919 142.803 88.6035 145.881 88.6035 149.678C88.6035 153.474 91.6919 156.552 95.5016 156.552Z" fill="#EAEDEF" style="fill:#EAEDEF;fill:color(display-p3 0.9176 0.9294 0.9373);fill-opacity:1;"/>
<path d="M65.1833 73.2487C60.8142 73.2487 57.2607 69.7072 57.2607 65.3528C57.2607 64.8744 57.6512 64.4854 58.1311 64.4854C58.611 64.4854 59.0014 64.8744 59.0014 65.3528C59.0014 68.7505 61.7741 71.5138 65.1833 71.5138C68.5926 71.5138 71.3653 68.7505 71.3653 65.3528C71.3653 64.8744 71.7557 64.4854 72.2356 64.4854C72.7155 64.4854 73.1059 64.8744 73.1059 65.3528C73.1059 69.7072 69.5525 73.2487 65.1833 73.2487Z" fill="#868E96" style="fill:#868E96;fill:color(display-p3 0.5255 0.5569 0.5882);fill-opacity:1;"/>
<path d="M91.3162 73.2487C86.947 73.2487 83.3936 69.7072 83.3936 65.3528C83.3936 64.8744 83.784 64.4854 84.2639 64.4854C84.7438 64.4854 85.1342 64.8744 85.1342 65.3528C85.1342 68.7505 87.9069 71.5138 91.3162 71.5138C94.7254 71.5138 97.4981 68.7505 97.4981 65.3528C97.4981 64.8744 97.8885 64.4854 98.3684 64.4854C98.8483 64.4854 99.2388 64.8744 99.2388 65.3528C99.2388 69.7072 95.6853 73.2487 91.3162 73.2487Z" fill="#868E96" style="fill:#868E96;fill:color(display-p3 0.5255 0.5569 0.5882);fill-opacity:1;"/>
<path d="M67.5929 86.5074C65.2952 86.5074 63.4277 84.6462 63.4277 82.3563C63.4277 80.0663 65.2977 78.2051 67.5929 78.2051C69.8882 78.2051 71.7582 80.0688 71.7582 82.3563C71.7582 84.6437 69.8906 86.5074 67.5929 86.5074ZM67.5929 79.9374C66.2551 79.9374 65.1684 81.0229 65.1684 82.3538C65.1684 83.6846 66.2576 84.7701 67.5929 84.7701C68.9283 84.7701 70.0175 83.6846 70.0175 82.3538C70.0175 81.0229 68.9283 79.9374 67.5929 79.9374Z" fill="#868E96" style="fill:#868E96;fill:color(display-p3 0.5255 0.5569 0.5882);fill-opacity:1;"/>
<path d="M73.2127 106.302C72.8049 106.302 72.4393 106.014 72.3597 105.598C71.4421 100.872 71.0542 99.298 70.1143 95.4913C69.9501 94.8272 69.7686 94.0936 69.5672 93.2658C69.4528 92.7999 69.7388 92.3315 70.2063 92.2175C70.6738 92.1035 71.1437 92.3885 71.2581 92.8544C71.462 93.6822 71.6411 94.4133 71.8052 95.0775C72.7526 98.9114 73.143 100.5 74.0681 105.268C74.1601 105.739 73.8517 106.193 73.3793 106.284C73.3246 106.294 73.2674 106.299 73.2127 106.299V106.302Z" fill="#868E96" style="fill:#868E96;fill:color(display-p3 0.5255 0.5569 0.5882);fill-opacity:1;"/>
<path d="M132.503 106.017C132.033 106.017 131.645 105.643 131.633 105.172L130.111 46.1388C130.098 45.6605 130.479 45.2615 130.959 45.2491C131.436 45.2441 131.839 45.6159 131.851 46.0942L133.373 105.128C133.386 105.606 133.005 106.005 132.525 106.017C132.518 106.017 132.51 106.017 132.503 106.017Z" fill="#868E96" style="fill:#868E96;fill:color(display-p3 0.5255 0.5569 0.5882);fill-opacity:1;"/>
<path d="M151.228 91.3329C150.756 91.3329 150.368 90.9562 150.358 90.4828C150.241 85.0082 150.425 79.5188 150.604 74.2077C150.813 69.4072 150.965 64.525 151.111 59.8013C151.218 56.3738 151.328 52.8273 151.46 49.3205C151.477 48.8422 151.872 48.463 152.362 48.4853C152.842 48.5027 153.218 48.9066 153.2 49.3849C153.068 52.8868 152.959 56.4283 152.852 59.8558C152.705 64.5844 152.554 69.4742 152.345 74.2747C152.168 79.551 151.984 85.0182 152.101 90.4457C152.111 90.924 151.731 91.3205 151.251 91.3304C151.243 91.3304 151.238 91.3304 151.231 91.3304L151.228 91.3329Z" fill="#868E96" style="fill:#868E96;fill:color(display-p3 0.5255 0.5569 0.5882);fill-opacity:1;"/>
<path d="M174.414 106.302C174.394 106.302 174.375 106.302 174.352 106.302C173.872 106.27 173.512 105.856 173.544 105.378C174.34 93.9255 175.043 84.2651 175.789 74.0371C176.222 68.0866 176.667 61.9751 177.15 55.2613C177.185 54.783 177.6 54.4237 178.08 54.4584C178.56 54.4931 178.92 54.9069 178.885 55.3853C178.403 62.099 177.958 68.2105 177.525 74.1635C176.779 84.389 176.075 94.0494 175.28 105.499C175.247 105.958 174.864 106.307 174.412 106.307L174.414 106.302Z" fill="#868E96" style="fill:#868E96;fill:color(display-p3 0.5255 0.5569 0.5882);fill-opacity:1;"/>
<path d="M119.941 59.1198C119.461 59.1198 119.07 58.7307 119.07 58.2524C119.07 57.7741 119.461 57.385 119.941 57.385C133.167 57.38 168.782 57.38 181.921 57.3825C182.401 57.3825 182.792 57.7716 182.792 58.2499C182.792 58.7282 182.401 59.1173 181.921 59.1173C168.782 59.1173 133.17 59.1173 119.941 59.1198Z" fill="#868E96" style="fill:#868E96;fill:color(display-p3 0.5255 0.5569 0.5882);fill-opacity:1;"/>
<path d="M109.268 79.9473C108.788 79.9473 108.397 79.5582 108.397 79.0799C108.397 78.6016 108.788 78.2125 109.268 78.2125C114.045 78.2125 118.822 78.2076 123.599 78.2051C124.079 78.2051 124.469 78.5942 124.469 79.0725C124.469 79.5508 124.081 79.9399 123.599 79.9399C118.822 79.9424 114.045 79.9473 109.268 79.9473Z" fill="#868E96" style="fill:#868E96;fill:color(display-p3 0.5255 0.5569 0.5882);fill-opacity:1;"/>
<path d="M182.806 79.9603C179.238 79.9603 176.162 79.9528 171.922 79.9454L168.361 79.9379C167.881 79.9379 167.491 79.5489 167.493 79.0681C167.493 78.5897 167.884 78.2031 168.364 78.2031L171.924 78.2106C178.86 78.2254 182.679 78.2329 190.632 78.218C191.112 78.218 191.502 78.6046 191.502 79.0829C191.502 79.5612 191.114 79.9503 190.634 79.9528C187.543 79.9602 185.074 79.9627 182.806 79.9627V79.9603Z" fill="#868E96" style="fill:#868E96;fill:color(display-p3 0.5255 0.5569 0.5882);fill-opacity:1;"/>
<path d="M63.0622 100.83C61.6572 100.83 60.0732 100.825 58.1261 100.815C57.6462 100.813 57.2583 100.421 57.2608 99.9429C57.2632 99.4646 57.6537 99.0804 58.1311 99.0804H58.1361C63.6665 99.1102 66.2551 99.0904 70.1766 99.0606C71.7532 99.0482 73.5337 99.0358 75.7941 99.0234H75.799C76.2765 99.0234 76.6669 99.4076 76.6694 99.8859C76.6719 100.364 76.2839 100.756 75.804 100.758C73.5461 100.771 71.7656 100.783 70.1891 100.795C67.6402 100.815 65.6533 100.83 63.0597 100.83H63.0622Z" fill="#868E96" style="fill:#868E96;fill:color(display-p3 0.5255 0.5569 0.5882);fill-opacity:1;"/>
<path d="M130.999 100.795C122.77 100.795 113.952 100.788 105.048 100.758C104.568 100.758 104.18 100.367 104.18 99.8884C104.18 99.4101 104.57 99.0234 105.05 99.0234H105.053C118.923 99.068 132.59 99.0631 144.128 99.0557C144.608 99.0557 144.999 99.4448 144.999 99.9231C144.999 100.401 144.611 100.79 144.128 100.79C139.995 100.793 135.587 100.795 130.996 100.795H130.999Z" fill="#868E96" style="fill:#868E96;fill:color(display-p3 0.5255 0.5569 0.5882);fill-opacity:1;"/>
<path d="M178.226 100.813C175.566 100.813 173.171 100.808 170.478 100.8C168.379 100.796 166.084 100.788 163.319 100.786C162.839 100.786 162.448 100.397 162.448 99.9182C162.448 99.4399 162.839 99.0508 163.319 99.0508C166.084 99.0557 168.381 99.0607 170.478 99.0657C175.598 99.078 179.644 99.088 186.48 99.0607H186.485C186.965 99.0607 187.352 99.4473 187.355 99.9231C187.355 100.401 186.97 100.793 186.49 100.796C183.242 100.81 180.623 100.815 178.221 100.815L178.226 100.813Z" fill="#868E96" style="fill:#868E96;fill:color(display-p3 0.5255 0.5569 0.5882);fill-opacity:1;"/>
<path d="M179.076 163.661H68.1223C67.6424 163.661 67.252 163.272 67.252 162.793C67.252 162.315 67.6424 161.926 68.1223 161.926H179.076C179.556 161.926 179.946 162.315 179.946 162.793C179.946 163.272 179.556 163.661 179.076 163.661Z" fill="#868E96" style="fill:#868E96;fill:color(display-p3 0.5255 0.5569 0.5882);fill-opacity:1;"/>
<path d="M36.4297 6.28516C36.4297 6.28516 39.3615 7.43757 46.2496 8.34464C48.7462 8.67425 51.2578 6.1315 56.3779 8.12407C58.7602 9.05096 62.1147 13.0931 59.9065 17.6334C56.3854 24.8775 48.5722 22.9072 45.6951 21.8217C35.9075 18.1265 36.4297 6.28763 36.4297 6.28763V6.28516Z" fill="#EAEDEF" style="fill:#EAEDEF;fill:color(display-p3 0.9176 0.9294 0.9373);fill-opacity:1;"/>
<path d="M65.1632 19.7075C65.1632 19.7075 65.1433 19.7075 65.1334 19.7075C64.5515 19.6876 50.7902 19.1523 40.908 11.5613C40.5276 11.2688 40.4555 10.7236 40.7489 10.3444C41.0423 9.96522 41.5894 9.89335 41.9699 10.1858C51.3994 17.4299 65.0538 17.9677 65.1906 17.9727C65.6705 17.99 66.0485 18.389 66.0311 18.8673C66.0162 19.3357 65.6283 19.705 65.1608 19.705L65.1632 19.7075Z" fill="#868E96" style="fill:#868E96;fill:color(display-p3 0.5255 0.5569 0.5882);fill-opacity:1;"/>
<path d="M56.3657 18.3026C56.0971 18.3026 55.8335 18.1787 55.6619 17.9458L51.6335 12.4464C51.35 12.0598 51.4345 11.517 51.8225 11.2345C52.2104 10.952 52.755 11.0362 53.0385 11.4228L57.0669 16.9222C57.3504 17.3088 57.2658 17.8516 56.8779 18.1341C56.7237 18.2456 56.5447 18.3002 56.3657 18.3002V18.3026Z" fill="#868E96" style="fill:#868E96;fill:color(display-p3 0.5255 0.5569 0.5882);fill-opacity:1;"/>
<path d="M42.5299 16.5009C42.1046 16.5009 41.7341 16.1911 41.6695 15.7599C41.5998 15.2865 41.9281 14.8454 42.403 14.776L48.197 13.921C48.6745 13.8491 49.1146 14.1787 49.1842 14.6521C49.2539 15.1254 48.9256 15.5666 48.4507 15.636L42.6567 16.491C42.6144 16.4984 42.5697 16.5009 42.5274 16.5009H42.5299Z" fill="#868E96" style="fill:#868E96;fill:color(display-p3 0.5255 0.5569 0.5882);fill-opacity:1;"/>
<path d="M96.0778 21.7299C95.8441 21.7299 95.6128 21.7299 95.3791 21.7299C94.8991 21.7274 94.5112 21.3358 94.5137 20.8575C94.5162 20.3792 94.9066 19.995 95.384 19.995H95.389C95.6203 19.995 95.849 19.995 96.0778 19.995C109.479 19.995 120.388 17.7398 129.404 13.1103C129.603 12.9938 129.797 12.8872 129.991 12.7831C130.175 12.684 130.357 12.5849 130.548 12.4734C130.558 12.4684 130.568 12.461 130.578 12.456C132.582 11.3928 134.574 10.4089 136.501 9.45725C138.411 8.51549 140.386 7.54151 142.358 6.49319C142.599 6.3544 142.823 6.26023 143.019 6.17844C143.193 6.10657 143.342 6.04461 143.489 5.95787C152.429 0.837673 162.085 -0.954149 173.016 0.475839C178.82 1.2342 184.291 2.92689 190.754 5.96035C191.189 6.16357 191.375 6.68154 191.169 7.11524C190.965 7.54895 190.445 7.73482 190.01 7.52912C183.716 4.57497 178.405 2.92937 172.787 2.19331C162.246 0.815368 152.948 2.53532 144.362 7.45477C144.121 7.59604 143.892 7.69269 143.691 7.77695C143.516 7.84882 143.367 7.91078 143.221 7.99752C143.211 8.00248 143.201 8.00992 143.191 8.01487C141.189 9.07807 139.197 10.0595 137.272 11.0112C135.363 11.9529 133.386 12.9294 131.411 13.9777C131.21 14.0942 131.016 14.2007 130.822 14.3048C130.638 14.404 130.454 14.5056 130.262 14.6171C130.25 14.6245 130.235 14.632 130.22 14.6394C120.947 19.4077 109.77 21.7299 96.0753 21.7299H96.0778Z" fill="#868E96" style="fill:#868E96;fill:color(display-p3 0.5255 0.5569 0.5882);fill-opacity:1;"/>
<path d="M145.155 13.9631C144.847 13.9631 144.548 13.7996 144.392 13.5121C144.16 13.0908 144.315 12.5654 144.737 12.3349C155.311 6.56786 168.105 5.27913 180.764 8.7116C181.229 8.83799 181.503 9.31383 181.376 9.7748C181.249 10.2382 180.774 10.5109 180.309 10.3845C168.087 7.07343 155.751 8.30516 145.575 13.8566C145.444 13.9285 145.299 13.9631 145.158 13.9631H145.155Z" fill="#EAEDEF" style="fill:#EAEDEF;fill:color(display-p3 0.9176 0.9294 0.9373);fill-opacity:1;"/>
<path d="M95.9437 13.9872H95.9362C90.4058 13.9476 84.577 13.4147 78.6164 12.3986C77.015 12.126 75.3763 11.8137 73.75 11.4717C73.28 11.3726 72.9791 10.9116 73.0786 10.4432C73.178 9.97482 73.6406 9.67742 74.1105 9.77407C75.7145 10.1111 77.3283 10.4209 78.9099 10.6886C84.7785 11.6898 90.5103 12.2152 95.9487 12.2524C96.4286 12.2549 96.8165 12.6464 96.814 13.1248C96.8116 13.6006 96.4211 13.9872 95.9437 13.9872Z" fill="#EAEDEF" style="fill:#EAEDEF;fill:color(display-p3 0.9176 0.9294 0.9373);fill-opacity:1;"/>
<path d="M125.271 8.81769C124.923 8.81769 124.597 8.60951 124.461 8.26751C124.284 7.82141 124.503 7.31831 124.95 7.14235C129.884 5.20183 134.596 2.69625 139.149 0.272462C139.575 0.0469349 140.102 0.205547 140.328 0.629339C140.554 1.05313 140.395 1.57853 139.97 1.80406C135.372 4.25016 130.618 6.78052 125.589 8.75573C125.485 8.79786 125.376 8.81769 125.271 8.81769Z" fill="#EAEDEF" style="fill:#EAEDEF;fill:color(display-p3 0.9176 0.9294 0.9373);fill-opacity:1;"/>
<path d="M195.205 133.569C195.205 133.569 198.552 133.016 205.413 130.062C207.9 128.991 208.81 125.259 214.644 124.278C217.357 123.822 222.695 125.705 223.175 131.113C223.941 139.74 215.636 142.225 212.376 142.808C201.29 144.788 195.205 133.569 195.205 133.569Z" fill="#EAEDEF" style="fill:#EAEDEF;fill:color(display-p3 0.9176 0.9294 0.9373);fill-opacity:1;"/>
<path d="M206.216 136.134C204.913 136.134 203.595 136.064 202.275 135.908C201.798 135.851 201.457 135.42 201.512 134.947C201.569 134.471 202.002 134.131 202.476 134.186C215.238 135.683 228.144 128.647 228.273 128.577C228.694 128.344 229.223 128.495 229.457 128.914C229.691 129.333 229.539 129.861 229.119 130.094C228.627 130.367 218.041 136.134 206.216 136.134Z" fill="#868E96" style="fill:#868E96;fill:color(display-p3 0.5255 0.5569 0.5882);fill-opacity:1;"/>
<path d="M219.796 133.75C219.682 133.75 219.568 133.727 219.458 133.68L212.689 130.82C212.247 130.634 212.04 130.124 212.227 129.683C212.413 129.242 212.923 129.036 213.368 129.222L220.137 132.082C220.58 132.268 220.786 132.778 220.6 133.219C220.458 133.549 220.137 133.75 219.799 133.75H219.796Z" fill="#868E96" style="fill:#868E96;fill:color(display-p3 0.5255 0.5569 0.5882);fill-opacity:1;"/>
<path d="M206.022 139.707C205.771 139.707 205.52 139.598 205.348 139.39C205.042 139.018 205.097 138.473 205.47 138.168L210.347 134.186C210.72 133.883 211.267 133.935 211.573 134.307C211.878 134.679 211.824 135.224 211.451 135.529L206.574 139.511C206.413 139.643 206.216 139.707 206.022 139.707Z" fill="#868E96" style="fill:#868E96;fill:color(display-p3 0.5255 0.5569 0.5882);fill-opacity:1;"/>
<path d="M234.316 127.551C233.977 127.551 233.657 127.356 233.515 127.026C233.326 126.585 233.53 126.077 233.97 125.886C238.757 123.834 243.544 121.418 248.199 118.709C252.717 116.079 257.188 113.125 261.49 109.933C263.885 108.156 266.265 106.273 268.567 104.34C268.935 104.03 269.482 104.077 269.793 104.444C270.104 104.81 270.057 105.358 269.689 105.665C267.361 107.621 264.952 109.527 262.53 111.323C258.175 114.555 253.65 117.544 249.077 120.206C244.359 122.952 239.508 125.398 234.659 127.48C234.547 127.527 234.43 127.551 234.316 127.551Z" fill="#EAEDEF" style="fill:#EAEDEF;fill:color(display-p3 0.9176 0.9294 0.9373);fill-opacity:1;"/>
<path d="M251.387 124.813C251.094 124.813 250.805 124.664 250.641 124.394C250.393 123.985 250.524 123.45 250.937 123.202C257.641 119.165 263.144 115.636 268.215 111.534C268.588 111.232 269.137 111.289 269.438 111.66C269.742 112.032 269.684 112.577 269.311 112.88C264.164 117.046 258.604 120.612 251.837 124.687C251.696 124.771 251.541 124.81 251.387 124.81V124.813Z" fill="#EAEDEF" style="fill:#EAEDEF;fill:color(display-p3 0.9176 0.9294 0.9373);fill-opacity:1;"/>
<path d="M243.395 115.37C243.092 115.37 242.796 115.212 242.637 114.927C242.4 114.508 242.55 113.98 242.97 113.745C245.685 112.225 248.378 110.597 250.979 108.907C251.382 108.647 251.922 108.758 252.183 109.16C252.447 109.561 252.332 110.099 251.929 110.359C249.296 112.072 246.568 113.72 243.82 115.256C243.686 115.331 243.539 115.368 243.395 115.368V115.37Z" fill="#868E96" style="fill:#868E96;fill:color(display-p3 0.5255 0.5569 0.5882);fill-opacity:1;"/>
<path d="M32.6051 76.0349H23.3099C22.9568 76.0349 22.6409 75.8242 22.5067 75.4996C22.3724 75.1749 22.447 74.8032 22.6956 74.5553L30.5063 66.771H22.8772C22.3972 66.771 22.0068 66.3819 22.0068 65.9035C22.0068 65.4252 22.3972 65.0361 22.8772 65.0361H32.6076C32.9607 65.0361 33.2765 65.2468 33.4108 65.5714C33.5451 65.8961 33.4705 66.2679 33.2218 66.5157L25.4111 74.3001H32.6051C33.085 74.3001 33.4755 74.6892 33.4755 75.1675C33.4755 75.6458 33.085 76.0349 32.6051 76.0349Z" fill="#868E96" style="fill:#868E96;fill:color(display-p3 0.5255 0.5569 0.5882);fill-opacity:1;"/>
<path d="M18.8239 61.0265H2.45895C2.10584 61.0265 1.79003 60.8158 1.65575 60.4912C1.52147 60.1665 1.59607 59.7948 1.84474 59.547L16.7226 44.7192H1.69554C1.21561 44.7192 0.825195 44.3301 0.825195 43.8518C0.825195 43.3735 1.21561 42.9844 1.69554 42.9844H18.8239C19.177 42.9844 19.4928 43.195 19.6271 43.5197C19.7614 43.8444 19.6868 44.2161 19.4381 44.4639L4.56021 59.2917H18.8239C19.3038 59.2917 19.6942 59.6808 19.6942 60.1591C19.6942 60.6374 19.3038 61.0265 18.8239 61.0265Z" fill="#EAEDEF" style="fill:#EAEDEF;fill:color(display-p3 0.9176 0.9294 0.9373);fill-opacity:1;"/>
</g>
<defs>
<clipPath id="clip0_783_2955">
<rect width="270" height="164" fill="white" style="fill:white;fill-opacity:1;"/>
</clipPath>
</defs>
</svg>
