<svg width="395" height="297" viewBox="0 0 395 297" fill="none" xmlns="http://www.w3.org/2000/svg">
<path d="M45.195 187.638C43.5646 187.638 41.9342 187.023 40.7037 185.792C38.2427 183.331 38.2427 179.301 40.7037 176.81C43.1647 174.349 47.1945 174.349 49.6863 176.81C52.1473 179.271 52.1473 183.301 49.6863 185.792C48.4558 187.023 46.8254 187.638 45.195 187.638ZM45.195 176.471C43.9645 176.471 42.734 176.933 41.7803 177.886C39.9038 179.763 39.9038 182.808 41.7803 184.685C43.6569 186.561 46.7023 186.561 48.5789 184.685C50.4554 182.808 50.4554 179.763 48.5789 177.886C47.656 176.933 46.4255 176.471 45.195 176.471Z" fill="#FFD000" style="fill:#FFD000;fill:color(display-p3 1.0000 0.8157 0.0000);fill-opacity:1;"/>
<path d="M338.362 76.524C336.731 76.524 335.101 75.9088 333.87 74.6783C331.409 72.2173 331.409 68.1874 333.87 65.6956C336.331 63.2346 340.361 63.2346 342.853 65.6956C345.314 68.1566 345.314 72.1865 342.853 74.6783C341.592 75.9088 339.961 76.524 338.362 76.524ZM338.362 65.3572C337.131 65.3572 335.901 65.8187 334.947 66.7723C333.071 68.6488 333.071 71.6943 334.947 73.5708C336.824 75.4473 339.869 75.4473 341.746 73.5708C343.622 71.6943 343.622 68.6488 341.746 66.7723C340.823 65.8187 339.592 65.3572 338.362 65.3572Z" fill="#FFD000" style="fill:#FFD000;fill:color(display-p3 1.0000 0.8157 0.0000);fill-opacity:1;"/>
<path d="M349.282 170.35H347.744V185.608H349.282V170.35Z" fill="black" style="fill:black;fill-opacity:1;"/>
<path d="M356.142 177.209H340.884V178.748H356.142V177.209Z" fill="black" style="fill:black;fill-opacity:1;"/>
<path d="M95.1534 139.495H93.6152V154.753H95.1534V139.495Z" fill="black" style="fill:black;fill-opacity:1;"/>
<path d="M102.013 146.355H86.7551V147.893H102.013V146.355Z" fill="black" style="fill:black;fill-opacity:1;"/>
<path d="M310.952 84.3992H309.414V99.6574H310.952V84.3992Z" fill="black" style="fill:black;fill-opacity:1;"/>
<path d="M317.812 91.2285H302.554V92.7666H317.812V91.2285Z" fill="black" style="fill:black;fill-opacity:1;"/>
<path d="M326.979 171.887H214.05V210.433H326.979V171.887Z" fill="#FFD000" style="fill:#FFD000;fill:color(display-p3 1.0000 0.8157 0.0000);fill-opacity:1;"/>
<path d="M326.979 211.51H214.05C213.466 211.51 212.973 211.018 212.973 210.433V171.888C212.973 171.303 213.466 170.811 214.05 170.811H326.979C327.564 170.811 328.056 171.303 328.056 171.888V210.433C328.056 211.048 327.594 211.51 326.979 211.51ZM215.127 209.356H325.903V172.964H215.127V209.356Z" fill="black" style="fill:black;fill-opacity:1;"/>
<path d="M287.726 249.594C295.202 249.594 301.262 243.534 301.262 236.058C301.262 228.583 295.202 222.523 287.726 222.523C280.251 222.523 274.191 228.583 274.191 236.058C274.191 243.534 280.251 249.594 287.726 249.594Z" fill="#FFD000" style="fill:#FFD000;fill:color(display-p3 1.0000 0.8157 0.0000);fill-opacity:1;"/>
<path d="M287.726 250.671C279.667 250.671 273.114 244.118 273.114 236.058C273.114 227.999 279.667 221.446 287.726 221.446C295.786 221.446 302.339 227.999 302.339 236.058C302.339 244.118 295.786 250.671 287.726 250.671ZM287.726 223.6C280.866 223.6 275.268 229.168 275.268 236.058C275.268 242.949 280.836 248.517 287.726 248.517C294.617 248.517 300.185 242.949 300.185 236.058C300.185 229.168 294.586 223.6 287.726 223.6Z" fill="#FFD000" style="fill:#FFD000;fill:color(display-p3 1.0000 0.8157 0.0000);fill-opacity:1;"/>
<path d="M94.538 218.001H78.9414V191.668C78.9414 180.624 87.8933 171.642 98.9678 171.642H135.821L146.034 146.386C152.002 131.62 166.338 121.96 182.242 121.96H207.682V171.642V218.001H140.866H141.02C135.637 210.987 127.208 206.465 117.702 206.465C108.197 206.465 99.7369 210.987 94.3842 218.001" fill="#FFD000" style="fill:#FFD000;fill:color(display-p3 1.0000 0.8157 0.0000);fill-opacity:1;"/>
<path d="M94.3842 219.077C94.3534 219.077 94.3534 219.077 94.3842 219.077H78.9414C78.3569 219.077 77.8647 218.585 77.8647 218.001V191.668C77.8647 180.04 87.3396 170.565 98.9678 170.565H135.083L145.019 145.986C148.034 138.541 153.141 132.235 159.785 127.744C166.43 123.252 174.213 120.884 182.242 120.884H207.683C208.267 120.884 208.759 121.376 208.759 121.96V217.97C208.759 218.554 208.267 219.047 207.683 219.047H140.866C140.343 219.047 139.913 218.677 139.82 218.155C134.406 211.387 126.377 207.511 117.702 207.511C109.027 207.511 100.998 211.387 95.5839 218.155C95.4917 218.647 95.061 219.047 94.538 219.047H94.3842C94.3842 219.077 94.3842 219.077 94.3842 219.077ZM141.543 216.924H206.575V123.068H182.211C166.645 123.068 152.833 132.389 146.988 146.816L136.775 172.072C136.621 172.472 136.221 172.749 135.791 172.749H98.9678C88.5086 172.749 80.0181 181.24 80.0181 191.699V216.955H93.8613C99.6754 209.633 108.35 205.419 117.702 205.419C127.054 205.419 135.729 209.603 141.543 216.924Z" fill="#FFD000" style="fill:#FFD000;fill:color(display-p3 1.0000 0.8157 0.0000);fill-opacity:1;"/>
<path d="M200.054 171.641V129.958H182.581C169.845 129.958 158.524 137.587 153.756 149.4L151.787 154.291L151.111 156.291H153.51C154.525 156.291 155.356 157.122 155.356 158.137V171.672H200.054V171.641Z" fill="white" style="fill:white;fill-opacity:1;"/>
<path d="M200.053 172.718H155.325C154.74 172.718 154.248 172.226 154.248 171.641V158.106C154.248 157.675 153.91 157.337 153.479 157.337H151.08C150.741 157.337 150.403 157.183 150.218 156.875C150.034 156.568 149.972 156.229 150.064 155.891L150.741 153.892C150.741 153.861 150.741 153.861 150.772 153.83L152.741 148.939C157.693 136.726 169.383 128.82 182.58 128.82H200.053C200.638 128.82 201.13 129.312 201.13 129.897V171.611C201.13 172.257 200.638 172.718 200.053 172.718ZM156.401 170.565H198.977V131.035H182.58C170.275 131.035 159.355 138.387 154.74 149.8L152.802 154.661L152.618 155.214H153.51C155.109 155.214 156.432 156.537 156.432 158.137V170.565H156.401Z" fill="black" style="fill:black;fill-opacity:1;"/>
<path d="M117.702 249.594C125.178 249.594 131.238 243.534 131.238 236.058C131.238 228.583 125.178 222.523 117.702 222.523C110.227 222.523 104.167 228.583 104.167 236.058C104.167 243.534 110.227 249.594 117.702 249.594Z" fill="#FFD000" style="fill:#FFD000;fill:color(display-p3 1.0000 0.8157 0.0000);fill-opacity:1;"/>
<path d="M117.702 250.671C109.642 250.671 103.09 244.118 103.09 236.058C103.09 227.999 109.642 221.446 117.702 221.446C125.762 221.446 132.314 227.999 132.314 236.058C132.314 244.118 125.762 250.671 117.702 250.671ZM117.702 223.6C110.842 223.6 105.243 229.168 105.243 236.058C105.243 242.949 110.811 248.517 117.702 248.517C124.593 248.517 130.161 242.949 130.161 236.058C130.161 229.168 124.562 223.6 117.702 223.6Z" fill="#FFD000" style="fill:#FFD000;fill:color(display-p3 1.0000 0.8157 0.0000);fill-opacity:1;"/>
<path d="M207.682 219.077H140.866C140.282 219.077 139.79 218.585 139.79 218.001C139.79 217.416 140.282 216.924 140.866 216.924H206.606V208.464C206.606 207.88 207.098 207.387 207.682 207.387C208.267 207.387 208.759 207.88 208.759 208.464V218.001C208.759 218.585 208.267 219.077 207.682 219.077Z" fill="black" style="fill:black;fill-opacity:1;"/>
<path d="M76.5111 236.581C73.4656 236.581 71.0046 234.12 71.0046 231.075V222.431C71.0046 219.385 73.4656 216.924 76.5111 216.924H94.3534C94.7533 216.924 95.1224 217.17 95.307 217.539C95.4916 217.908 95.4301 218.339 95.184 218.678C92.8152 221.754 91.1541 225.23 90.2004 228.983C89.093 233.474 85.0939 236.581 80.4795 236.612L76.5111 236.581ZM76.5111 219.077C74.6654 219.077 73.158 220.585 73.158 222.431V231.075C73.158 232.921 74.6654 234.428 76.5111 234.428H80.5102C84.1402 234.428 87.278 231.967 88.1393 228.429C88.9699 225.076 90.3542 221.938 92.2615 219.077H76.5111Z" fill="black" style="fill:black;fill-opacity:1;"/>
<path d="M200.576 236.581C200.269 236.581 169.537 236.581 154.863 236.551C150.249 236.551 146.25 233.413 145.142 228.921C144.219 225.168 142.528 221.723 140.159 218.647C139.913 218.308 139.851 217.878 140.036 217.509C140.22 217.139 140.59 216.893 140.989 216.893H207.621C208.205 216.893 208.698 217.386 208.698 217.97V228.398C208.759 232.921 205.098 236.581 200.576 236.581ZM143.112 219.077C145.019 221.938 146.404 225.076 147.234 228.429C148.126 231.936 151.264 234.397 154.863 234.428C169.537 234.459 200.269 234.459 200.576 234.459C203.899 234.459 206.575 231.752 206.575 228.429V219.077H143.112Z" fill="black" style="fill:black;fill-opacity:1;"/>
<path d="M116.072 259.622C116.041 259.622 115.98 259.622 115.949 259.622C115.364 259.591 114.903 259.253 114.564 259.038C114.472 258.976 114.349 258.884 114.257 258.853C114.165 258.884 114.011 258.915 113.918 258.945C113.549 259.069 113.026 259.253 112.442 259.13C111.857 259.007 111.457 258.607 111.181 258.33C111.088 258.238 110.996 258.146 110.904 258.084C110.811 258.084 110.658 258.115 110.535 258.146C110.135 258.207 109.581 258.299 109.058 258.084C108.504 257.869 108.166 257.438 107.92 257.1C107.858 257.007 107.766 256.884 107.704 256.823C107.612 256.823 107.458 256.823 107.335 256.823C106.935 256.823 106.382 256.854 105.859 256.546C105.336 256.238 105.09 255.777 104.874 255.408C104.813 255.315 104.751 255.162 104.69 255.1C104.597 255.069 104.444 255.069 104.321 255.039C103.921 254.977 103.367 254.916 102.905 254.546C102.444 254.177 102.259 253.654 102.106 253.285C102.075 253.193 102.013 253.039 101.983 252.947C101.89 252.916 101.737 252.854 101.644 252.824C101.244 252.701 100.721 252.547 100.321 252.116C99.9215 251.686 99.7985 251.132 99.737 250.763C99.7062 250.64 99.6754 250.486 99.6447 250.424C99.5831 250.393 99.4293 250.301 99.337 250.27C98.9679 250.117 98.4757 249.871 98.1373 249.378C97.7989 248.886 97.7682 248.332 97.7682 247.932C97.7682 247.809 97.7682 247.656 97.7374 247.563C97.6759 247.502 97.5221 247.41 97.4298 247.348C97.0914 247.133 96.6299 246.825 96.3838 246.302C96.1377 245.779 96.1685 245.225 96.23 244.825C96.23 244.702 96.2608 244.549 96.2608 244.456C96.1993 244.395 96.0762 244.272 96.0147 244.21C95.7071 243.933 95.3072 243.564 95.1226 243.01C94.938 242.457 95.0918 241.903 95.1841 241.534C95.2149 241.411 95.2456 241.257 95.2764 241.165C95.2456 241.103 95.1226 240.98 95.0611 240.888C94.815 240.58 94.4458 240.15 94.3535 239.565C94.2612 238.981 94.4766 238.488 94.6304 238.119C94.6611 238.027 94.7227 237.873 94.7534 237.781C94.7227 237.689 94.6304 237.566 94.5689 237.473C94.3535 237.135 94.0767 236.643 94.0767 236.058C94.0767 235.474 94.3535 234.981 94.5689 234.643C94.6304 234.551 94.7227 234.397 94.7534 234.335C94.7227 234.243 94.6611 234.089 94.6304 233.997C94.4766 233.628 94.2612 233.105 94.3535 232.551C94.4458 231.967 94.7842 231.536 95.0611 231.228C95.1226 231.136 95.2456 231.013 95.2764 230.952C95.2764 230.859 95.2149 230.705 95.1841 230.582C95.0918 230.183 94.938 229.66 95.1226 229.106C95.3072 228.552 95.7071 228.183 96.0147 227.906C96.107 227.845 96.23 227.722 96.2608 227.66C96.2608 227.568 96.2608 227.414 96.23 227.291C96.1993 226.891 96.1377 226.337 96.3838 225.814C96.6299 225.291 97.0914 224.984 97.4298 224.768C97.5221 224.707 97.6451 224.615 97.7374 224.553C97.7682 224.461 97.7682 224.307 97.7682 224.184C97.7989 223.784 97.8297 223.23 98.1373 222.738C98.4757 222.246 98.9679 222.03 99.337 221.846C99.4293 221.784 99.5831 221.723 99.6447 221.692C99.6754 221.6 99.7062 221.446 99.737 221.354C99.8292 220.954 99.9215 220.431 100.321 220C100.721 219.569 101.244 219.416 101.644 219.293C101.767 219.262 101.921 219.231 101.983 219.17C102.013 219.108 102.075 218.954 102.106 218.831C102.259 218.462 102.444 217.939 102.905 217.57C103.367 217.201 103.921 217.139 104.321 217.078C104.444 217.078 104.597 217.047 104.69 217.016C104.751 216.955 104.813 216.801 104.874 216.709C105.059 216.339 105.336 215.878 105.859 215.57C106.351 215.263 106.905 215.293 107.335 215.293C107.458 215.293 107.612 215.293 107.704 215.293C107.766 215.232 107.858 215.109 107.92 215.017C108.166 214.709 108.504 214.248 109.058 214.032C109.612 213.817 110.135 213.909 110.535 213.971C110.658 214.001 110.811 214.032 110.904 214.032C110.965 213.971 111.088 213.878 111.181 213.786C111.457 213.509 111.857 213.109 112.442 212.986C113.026 212.863 113.549 213.017 113.918 213.171C114.042 213.202 114.195 213.263 114.257 213.263C114.318 213.232 114.472 213.14 114.564 213.079C114.903 212.832 115.334 212.525 115.949 212.494C116.533 212.463 117.025 212.709 117.364 212.894C117.456 212.956 117.61 213.017 117.702 213.048C117.795 213.017 117.918 212.956 118.041 212.894C118.41 212.709 118.902 212.463 119.456 212.494C120.04 212.525 120.502 212.863 120.84 213.079C120.932 213.14 121.055 213.232 121.148 213.263C121.24 213.232 121.394 213.202 121.486 213.171C121.855 213.048 122.378 212.863 122.963 212.986C123.547 213.109 123.947 213.509 124.224 213.786C124.316 213.878 124.408 213.971 124.501 214.032C124.593 214.032 124.747 214.001 124.87 213.971C125.27 213.909 125.824 213.817 126.347 214.032C126.9 214.248 127.239 214.678 127.485 215.017C127.546 215.109 127.639 215.232 127.7 215.293C127.792 215.293 127.946 215.293 128.069 215.293C128.469 215.293 129.023 215.263 129.546 215.57C130.069 215.878 130.315 216.339 130.499 216.709C130.561 216.801 130.623 216.955 130.684 217.016C130.776 217.047 130.93 217.047 131.053 217.078C131.453 217.139 132.007 217.201 132.468 217.57C132.93 217.939 133.114 218.462 133.268 218.831C133.299 218.923 133.36 219.077 133.391 219.17C133.483 219.2 133.637 219.262 133.73 219.293C134.129 219.416 134.652 219.569 135.052 220C135.452 220.431 135.575 220.985 135.637 221.354C135.668 221.477 135.698 221.631 135.729 221.692C135.791 221.723 135.944 221.815 136.037 221.846C136.406 222 136.898 222.246 137.236 222.738C137.575 223.23 137.606 223.784 137.606 224.184C137.606 224.307 137.606 224.461 137.636 224.553C137.698 224.615 137.852 224.707 137.944 224.768C138.282 224.984 138.744 225.291 138.99 225.814C139.236 226.337 139.205 226.891 139.144 227.291C139.144 227.414 139.113 227.568 139.113 227.66C139.174 227.722 139.298 227.845 139.359 227.906C139.667 228.183 140.067 228.552 140.251 229.106C140.436 229.66 140.282 230.213 140.19 230.582C140.159 230.705 140.128 230.859 140.097 230.952C140.128 231.013 140.251 231.136 140.313 231.228C140.559 231.536 140.928 231.967 141.02 232.551C141.113 233.136 140.897 233.628 140.743 233.997C140.713 234.089 140.651 234.243 140.62 234.335C140.651 234.428 140.743 234.551 140.805 234.643C141.02 234.981 141.297 235.474 141.297 236.058C141.297 236.643 141.02 237.135 140.805 237.473C140.743 237.566 140.651 237.719 140.62 237.781C140.651 237.873 140.713 238.027 140.743 238.119C140.897 238.488 141.113 239.011 141.02 239.565C140.928 240.15 140.59 240.58 140.313 240.888C140.251 240.98 140.128 241.103 140.097 241.165C140.097 241.257 140.159 241.411 140.19 241.534C140.282 241.934 140.436 242.457 140.251 243.01C140.067 243.564 139.667 243.933 139.359 244.21C139.267 244.272 139.144 244.395 139.113 244.456C139.113 244.549 139.113 244.702 139.144 244.825C139.174 245.225 139.236 245.779 138.99 246.302C138.744 246.825 138.282 247.133 137.944 247.348C137.852 247.41 137.729 247.502 137.636 247.563C137.606 247.656 137.606 247.809 137.606 247.932C137.575 248.332 137.544 248.886 137.236 249.378C136.898 249.871 136.406 250.086 136.037 250.27C135.944 250.332 135.791 250.393 135.729 250.424C135.698 250.517 135.668 250.67 135.637 250.763C135.545 251.163 135.452 251.686 135.052 252.116C134.652 252.547 134.129 252.701 133.73 252.824C133.606 252.854 133.453 252.885 133.391 252.947C133.36 253.008 133.299 253.162 133.268 253.285C133.114 253.654 132.93 254.177 132.468 254.546C132.007 254.916 131.453 254.977 131.053 255.039C130.93 255.039 130.776 255.069 130.684 255.1C130.623 255.162 130.561 255.315 130.499 255.408C130.315 255.777 130.038 256.238 129.546 256.546C129.054 256.854 128.5 256.823 128.069 256.823C127.946 256.823 127.792 256.823 127.7 256.823C127.639 256.884 127.546 257.007 127.485 257.1C127.239 257.407 126.9 257.869 126.347 258.084C125.793 258.299 125.27 258.207 124.87 258.146C124.747 258.115 124.593 258.084 124.501 258.084C124.439 258.146 124.316 258.238 124.224 258.33C123.947 258.607 123.547 259.007 122.963 259.13C122.378 259.253 121.855 259.099 121.486 258.945C121.363 258.915 121.209 258.853 121.148 258.853C121.086 258.884 120.932 258.976 120.84 259.038C120.502 259.284 120.071 259.591 119.456 259.622C118.871 259.653 118.379 259.407 118.041 259.222C117.948 259.161 117.795 259.099 117.702 259.068C117.61 259.099 117.487 259.161 117.364 259.222C117.025 259.376 116.595 259.622 116.072 259.622ZM114.288 256.638C114.38 256.638 114.472 256.638 114.564 256.669C115.087 256.761 115.487 257.038 115.795 257.254C115.887 257.315 116.01 257.407 116.072 257.438C116.164 257.407 116.287 257.346 116.379 257.284C116.718 257.1 117.149 256.884 117.702 256.884C118.256 256.884 118.656 257.1 119.025 257.284C119.117 257.315 119.24 257.407 119.333 257.438C119.425 257.407 119.517 257.315 119.61 257.254C119.917 257.038 120.317 256.761 120.84 256.669C121.363 256.577 121.824 256.731 122.194 256.854C122.286 256.884 122.409 256.915 122.501 256.946C122.563 256.884 122.686 256.792 122.747 256.731C123.024 256.454 123.363 256.115 123.886 255.961C124.378 255.808 124.87 255.9 125.239 255.961C125.331 255.992 125.485 255.992 125.577 256.023C125.639 255.961 125.731 255.838 125.793 255.777C126.039 255.469 126.316 255.1 126.777 254.854C127.239 254.639 127.731 254.639 128.131 254.639C128.223 254.639 128.377 254.639 128.469 254.639C128.531 254.577 128.592 254.454 128.623 254.362C128.808 254.023 129.054 253.593 129.484 253.316C129.915 253.008 130.407 252.947 130.776 252.916C130.869 252.916 131.022 252.885 131.115 252.854C131.145 252.762 131.207 252.639 131.238 252.547C131.361 252.178 131.545 251.716 131.915 251.378C132.314 251.009 132.776 250.886 133.145 250.793C133.237 250.763 133.391 250.732 133.453 250.701C133.483 250.609 133.514 250.486 133.514 250.363C133.606 249.994 133.699 249.501 134.006 249.101C134.345 248.702 134.775 248.486 135.114 248.332C135.206 248.302 135.329 248.24 135.421 248.179C135.421 248.086 135.452 247.963 135.452 247.84C135.483 247.44 135.514 246.979 135.76 246.517C136.037 246.056 136.437 245.81 136.744 245.595C136.837 245.533 136.96 245.471 137.021 245.41C137.021 245.318 137.021 245.195 136.99 245.072C136.96 244.672 136.898 244.21 137.113 243.718C137.298 243.226 137.667 242.918 137.944 242.641C138.006 242.58 138.129 242.488 138.19 242.426C138.19 242.334 138.129 242.211 138.129 242.118C138.036 241.749 137.913 241.288 138.036 240.765C138.159 240.242 138.467 239.873 138.713 239.596C138.775 239.504 138.867 239.411 138.928 239.319C138.898 239.227 138.836 239.104 138.805 239.011C138.652 238.642 138.467 238.212 138.498 237.689C138.528 237.166 138.775 236.766 138.99 236.427C139.051 236.335 139.113 236.212 139.144 236.12C139.113 236.027 139.021 235.904 138.99 235.812C138.805 235.474 138.528 235.074 138.498 234.551C138.467 234.028 138.652 233.566 138.805 233.228C138.836 233.136 138.898 233.013 138.928 232.92C138.867 232.859 138.775 232.736 138.713 232.644C138.467 232.336 138.159 231.967 138.036 231.475C137.913 230.952 138.036 230.49 138.129 230.121C138.159 230.029 138.19 229.875 138.19 229.813C138.129 229.752 138.036 229.66 137.944 229.598C137.667 229.352 137.298 229.014 137.113 228.521C136.929 228.029 136.96 227.537 136.99 227.168C136.99 227.076 137.021 226.922 137.021 226.829C136.96 226.768 136.837 226.706 136.744 226.645C136.406 226.429 136.006 226.183 135.76 225.722C135.483 225.261 135.483 224.799 135.452 224.399C135.452 224.307 135.452 224.153 135.421 224.061C135.329 224.03 135.206 223.968 135.114 223.907C134.775 223.753 134.314 223.538 134.006 223.138C133.668 222.738 133.576 222.246 133.514 221.877C133.483 221.784 133.453 221.631 133.453 221.538C133.36 221.507 133.237 221.477 133.145 221.446C132.776 221.354 132.314 221.2 131.915 220.861C131.515 220.492 131.361 220.062 131.238 219.692C131.207 219.6 131.145 219.477 131.115 219.385C131.022 219.354 130.899 219.354 130.776 219.323C130.376 219.262 129.915 219.2 129.484 218.923C129.054 218.616 128.808 218.216 128.623 217.878C128.561 217.785 128.5 217.662 128.469 217.601C128.377 217.601 128.223 217.601 128.131 217.601C127.731 217.601 127.269 217.631 126.777 217.385C126.316 217.17 126.008 216.77 125.793 216.462C125.731 216.37 125.639 216.278 125.577 216.216C125.485 216.216 125.362 216.247 125.239 216.278C124.87 216.339 124.378 216.432 123.886 216.278C123.393 216.124 123.024 215.786 122.747 215.509C122.686 215.447 122.563 215.324 122.501 215.293C122.409 215.324 122.286 215.355 122.194 215.386C121.824 215.509 121.363 215.663 120.84 215.57C120.317 215.478 119.917 215.201 119.61 214.986C119.517 214.924 119.394 214.832 119.333 214.801C119.24 214.832 119.117 214.894 119.025 214.955C118.687 215.14 118.256 215.355 117.702 215.355C117.149 215.355 116.749 215.14 116.379 214.955C116.287 214.924 116.164 214.832 116.072 214.801C115.98 214.832 115.887 214.924 115.795 214.986C115.487 215.201 115.087 215.478 114.564 215.57C114.042 215.663 113.58 215.509 113.211 215.386C113.119 215.355 112.996 215.324 112.903 215.293C112.842 215.355 112.719 215.447 112.657 215.509C112.38 215.786 112.042 216.124 111.519 216.278C111.027 216.432 110.535 216.339 110.165 216.278C110.073 216.247 109.919 216.247 109.827 216.216C109.766 216.278 109.673 216.401 109.612 216.462C109.366 216.77 109.089 217.139 108.627 217.385C108.166 217.601 107.674 217.601 107.274 217.601C107.181 217.601 107.028 217.601 106.935 217.601C106.874 217.662 106.812 217.785 106.782 217.878C106.597 218.216 106.351 218.647 105.92 218.923C105.49 219.231 104.997 219.293 104.628 219.323C104.536 219.323 104.382 219.354 104.29 219.385C104.259 219.477 104.198 219.6 104.167 219.692C104.044 220.062 103.859 220.523 103.49 220.861C103.09 221.231 102.629 221.354 102.259 221.446C102.167 221.477 102.013 221.507 101.952 221.538C101.921 221.631 101.89 221.754 101.89 221.877C101.798 222.246 101.706 222.738 101.398 223.138C101.06 223.538 100.629 223.753 100.291 223.907C100.198 223.938 100.075 223.999 99.9831 224.061C99.9831 224.153 99.9523 224.276 99.9523 224.399C99.9215 224.799 99.8908 225.261 99.6447 225.722C99.3678 226.183 98.9679 226.429 98.6603 226.645C98.568 226.706 98.4449 226.768 98.3834 226.829C98.3834 226.922 98.3834 227.045 98.4142 227.168C98.4449 227.568 98.5065 228.029 98.2911 228.521C98.1065 229.014 97.7374 229.321 97.4605 229.598C97.399 229.66 97.276 229.752 97.2144 229.813C97.2144 229.906 97.276 230.029 97.276 230.121C97.3682 230.49 97.4913 230.952 97.3682 231.475C97.2452 231.998 96.9376 232.367 96.6915 232.644C96.6299 232.736 96.5377 232.828 96.4761 232.92C96.5069 233.013 96.5684 233.136 96.5992 233.228C96.753 233.597 96.9376 234.028 96.9068 234.551C96.876 235.074 96.6299 235.474 96.4146 235.812C96.3531 235.904 96.2916 236.027 96.2608 236.12C96.2916 236.212 96.3838 236.335 96.4146 236.427C96.5992 236.766 96.876 237.166 96.9068 237.689C96.9376 238.212 96.753 238.673 96.5992 239.011C96.5684 239.104 96.5069 239.227 96.4761 239.319C96.5377 239.381 96.6299 239.504 96.6915 239.596C96.9376 239.903 97.2452 240.273 97.3682 240.765C97.4913 241.288 97.3682 241.749 97.276 242.118C97.2452 242.211 97.2144 242.364 97.2144 242.426C97.276 242.488 97.3682 242.58 97.4605 242.641C97.7374 242.887 98.1065 243.226 98.2911 243.718C98.4757 244.21 98.4449 244.702 98.4142 245.072C98.4142 245.164 98.3834 245.318 98.3834 245.41C98.4449 245.471 98.568 245.533 98.6603 245.595C98.9987 245.81 99.3986 246.056 99.6447 246.517C99.9215 246.979 99.9215 247.44 99.9523 247.84C99.9523 247.932 99.9523 248.086 99.9831 248.179C100.075 248.209 100.198 248.271 100.291 248.332C100.629 248.486 101.091 248.702 101.398 249.101C101.737 249.501 101.829 249.994 101.89 250.363C101.921 250.455 101.952 250.609 101.952 250.701C102.044 250.732 102.167 250.763 102.259 250.793C102.629 250.886 103.09 251.039 103.49 251.378C103.89 251.747 104.044 252.178 104.167 252.547C104.198 252.639 104.259 252.762 104.29 252.854C104.382 252.885 104.505 252.885 104.628 252.916C105.028 252.978 105.49 253.039 105.92 253.316C106.351 253.624 106.597 254.023 106.782 254.362C106.843 254.454 106.905 254.577 106.935 254.639C107.028 254.639 107.181 254.639 107.274 254.639C107.674 254.639 108.135 254.608 108.627 254.854C109.089 255.069 109.396 255.469 109.612 255.777C109.673 255.869 109.766 255.961 109.827 256.023C109.919 256.023 110.042 255.992 110.165 255.961C110.535 255.9 111.027 255.808 111.519 255.961C112.011 256.115 112.35 256.454 112.657 256.731C112.719 256.792 112.842 256.915 112.903 256.946C112.996 256.915 113.119 256.884 113.211 256.854C113.549 256.761 113.888 256.638 114.288 256.638Z" fill="black" style="fill:black;fill-opacity:1;"/>
<path d="M94.3843 219.077C94.169 219.077 93.9229 219.016 93.7383 218.862C93.2768 218.493 93.1846 217.816 93.5537 217.355C99.3678 209.756 108.197 205.419 117.733 205.419C127.269 205.419 136.098 209.787 141.912 217.355C142.281 217.816 142.189 218.493 141.728 218.862C141.266 219.231 140.59 219.139 140.22 218.677C134.806 211.633 126.623 207.572 117.733 207.572C108.843 207.572 100.66 211.633 95.2456 218.677C94.9995 218.923 94.6919 219.077 94.3843 219.077Z" fill="black" style="fill:black;fill-opacity:1;"/>
<path d="M135.79 213.325C135.206 213.325 134.714 212.833 134.714 212.248V171.642C134.714 171.057 135.206 170.565 135.79 170.565C136.375 170.565 136.867 171.057 136.867 171.642V212.217C136.867 212.833 136.406 213.325 135.79 213.325Z" fill="black" style="fill:black;fill-opacity:1;"/>
<path d="M195.624 186.531H186.795C186.21 186.531 185.718 186.039 185.718 185.454C185.718 184.87 186.21 184.377 186.795 184.377H195.624C196.208 184.377 196.7 184.87 196.7 185.454C196.7 186.039 196.208 186.531 195.624 186.531Z" fill="black" style="fill:black;fill-opacity:1;"/>
<path d="M111.827 208.772C111.488 208.772 111.119 208.587 110.934 208.28C110.596 207.788 110.75 207.111 111.242 206.803L112.503 205.973C112.996 205.634 113.672 205.788 113.98 206.28C114.318 206.772 114.165 207.449 113.672 207.757L112.411 208.587C112.226 208.741 112.042 208.772 111.827 208.772Z" fill="black" style="fill:black;fill-opacity:1;"/>
<path d="M111.827 212.74C111.488 212.74 111.15 212.587 110.935 212.248C110.596 211.756 110.75 211.079 111.242 210.741L118.933 205.603C119.425 205.265 120.102 205.419 120.44 205.911C120.779 206.403 120.625 207.08 120.133 207.418L112.442 212.556C112.257 212.679 112.042 212.74 111.827 212.74Z" fill="black" style="fill:black;fill-opacity:1;"/>
<path d="M114.257 215.417C113.918 215.417 113.549 215.232 113.365 214.924C113.026 214.432 113.18 213.755 113.672 213.448L119.702 209.541C120.194 209.203 120.871 209.356 121.178 209.849C121.486 210.341 121.363 211.018 120.871 211.325L114.841 215.263C114.657 215.355 114.472 215.417 114.257 215.417Z" fill="black" style="fill:black;fill-opacity:1;"/>
<path d="M82.6634 210.433H78.9104V193.791H80.91C84.663 193.791 87.7085 196.836 87.7085 200.589V205.357C87.7392 208.157 85.4936 210.433 82.6634 210.433Z" fill="white" style="fill:white;fill-opacity:1;"/>
<path d="M82.6635 211.51H78.9104C78.3259 211.51 77.8337 211.018 77.8337 210.433V193.791C77.8337 193.206 78.3259 192.714 78.9104 192.714H80.91C85.2475 192.714 88.7852 196.252 88.7852 200.589V205.357C88.816 208.772 86.0781 211.51 82.6635 211.51ZM80.0179 209.356H82.6942C84.9091 209.356 86.6933 207.572 86.6933 205.357V200.589C86.6933 197.421 84.1093 194.867 80.9715 194.867H80.0486V209.356H80.0179Z" fill="black" style="fill:black;fill-opacity:1;"/>
<path d="M135.79 185.577H80.2639C79.6795 185.577 79.1873 185.085 79.1873 184.5C79.1873 183.916 79.6795 183.424 80.2639 183.424H135.821C136.405 183.424 136.898 183.916 136.898 184.5C136.898 185.085 136.405 185.577 135.79 185.577Z" fill="black" style="fill:black;fill-opacity:1;"/>
<path d="M114.903 179.24H107.058C106.474 179.24 105.982 178.748 105.982 178.163C105.982 177.579 106.474 177.087 107.058 177.087H114.903C115.487 177.087 115.979 177.579 115.979 178.163C115.979 178.748 115.487 179.24 114.903 179.24Z" fill="black" style="fill:black;fill-opacity:1;"/>
<path d="M198.761 229.598H158.278C157.693 229.598 157.201 229.106 157.201 228.522C157.201 227.937 157.693 227.445 158.278 227.445H198.731C199.315 227.445 199.807 227.937 199.807 228.522C199.807 229.106 199.346 229.598 198.761 229.598Z" fill="black" style="fill:black;fill-opacity:1;"/>
<path d="M119.209 233.905C119.056 233.905 118.902 233.874 118.748 233.813C118.194 233.567 117.979 232.92 118.225 232.367L122.439 223.353C122.685 222.8 123.332 222.584 123.885 222.83C124.439 223.076 124.654 223.723 124.408 224.276L120.194 233.29C120.009 233.69 119.609 233.905 119.209 233.905Z" fill="black" style="fill:black;fill-opacity:1;"/>
<path d="M111.98 249.378C111.827 249.378 111.673 249.348 111.519 249.286C110.965 249.04 110.75 248.394 110.996 247.84L115.21 238.827C115.456 238.273 116.103 238.058 116.656 238.304C117.21 238.55 117.425 239.196 117.179 239.75L112.965 248.763C112.78 249.163 112.38 249.378 111.98 249.378Z" fill="black" style="fill:black;fill-opacity:1;"/>
<path d="M120.655 235.135C120.317 235.135 119.979 234.982 119.763 234.674C119.425 234.182 119.548 233.505 120.04 233.167L128.284 227.599C128.777 227.26 129.453 227.383 129.792 227.876C130.13 228.368 130.007 229.044 129.515 229.383L121.271 234.951C121.055 235.074 120.871 235.135 120.655 235.135Z" fill="black" style="fill:black;fill-opacity:1;"/>
<path d="M106.504 244.703C106.166 244.703 105.828 244.549 105.612 244.241C105.274 243.749 105.397 243.072 105.889 242.734L114.134 237.166C114.626 236.827 115.303 236.95 115.641 237.443C115.979 237.935 115.856 238.612 115.364 238.95L107.12 244.518C106.904 244.641 106.689 244.703 106.504 244.703Z" fill="black" style="fill:black;fill-opacity:1;"/>
<path d="M121.24 236.95C120.686 236.95 120.194 236.52 120.163 235.935C120.132 235.351 120.594 234.828 121.178 234.797L131.115 234.274C131.699 234.243 132.222 234.705 132.253 235.289C132.284 235.874 131.822 236.397 131.238 236.427L121.301 236.95C121.301 236.95 121.271 236.95 121.24 236.95Z" fill="black" style="fill:black;fill-opacity:1;"/>
<path d="M104.197 237.842C103.644 237.842 103.151 237.412 103.121 236.827C103.09 236.243 103.551 235.72 104.136 235.689L114.072 235.166C114.657 235.135 115.179 235.597 115.21 236.181C115.241 236.766 114.78 237.289 114.195 237.319L104.259 237.842C104.228 237.842 104.228 237.842 104.197 237.842Z" fill="black" style="fill:black;fill-opacity:1;"/>
<path d="M129.638 243.472C129.454 243.472 129.3 243.441 129.146 243.349L120.348 238.673C119.825 238.396 119.61 237.75 119.917 237.227C120.194 236.704 120.84 236.489 121.363 236.797L130.161 241.473C130.684 241.75 130.899 242.396 130.592 242.919C130.407 243.288 130.007 243.472 129.638 243.472Z" fill="black" style="fill:black;fill-opacity:1;"/>
<path d="M114.564 235.474C114.38 235.474 114.226 235.443 114.072 235.351L105.274 230.675C104.751 230.398 104.536 229.752 104.843 229.229C105.12 228.706 105.766 228.491 106.289 228.799L115.087 233.474C115.61 233.751 115.826 234.397 115.518 234.92C115.303 235.259 114.934 235.474 114.564 235.474Z" fill="black" style="fill:black;fill-opacity:1;"/>
<path d="M124.654 248.733C124.285 248.733 123.947 248.548 123.732 248.21L118.594 239.658C118.287 239.135 118.44 238.489 118.963 238.181C119.486 237.873 120.132 238.027 120.44 238.55L125.577 247.071C125.885 247.594 125.731 248.24 125.208 248.548C125.054 248.671 124.839 248.733 124.654 248.733Z" fill="black" style="fill:black;fill-opacity:1;"/>
<path d="M115.856 234.09C115.487 234.09 115.149 233.905 114.933 233.567L109.796 225.045C109.488 224.522 109.642 223.876 110.165 223.569C110.688 223.261 111.334 223.415 111.642 223.938L116.779 232.459C117.087 232.982 116.933 233.628 116.41 233.936C116.256 234.028 116.041 234.09 115.856 234.09Z" fill="black" style="fill:black;fill-opacity:1;"/>
<path d="M117.702 250.64C117.118 250.64 116.625 250.148 116.625 249.563V239.596C116.625 239.012 117.118 238.52 117.702 238.52C118.287 238.52 118.779 239.012 118.779 239.596V249.563C118.779 250.179 118.287 250.64 117.702 250.64Z" fill="black" style="fill:black;fill-opacity:1;"/>
<path d="M117.702 233.567C117.118 233.567 116.625 233.075 116.625 232.49V222.523C116.625 221.938 117.118 221.446 117.702 221.446C118.287 221.446 118.779 221.938 118.779 222.523V232.49C118.779 233.105 118.287 233.567 117.702 233.567Z" fill="black" style="fill:black;fill-opacity:1;"/>
<path d="M117.702 240.703C115.149 240.703 113.057 238.612 113.057 236.058C113.057 233.505 115.149 231.413 117.702 231.413C120.256 231.413 122.347 233.505 122.347 236.058C122.347 238.612 120.256 240.703 117.702 240.703ZM117.702 233.566C116.318 233.566 115.211 234.674 115.211 236.058C115.211 237.443 116.318 238.55 117.702 238.55C119.087 238.55 120.194 237.443 120.194 236.058C120.194 234.674 119.087 233.566 117.702 233.566Z" fill="black" style="fill:black;fill-opacity:1;"/>
<path d="M286.096 259.622C286.065 259.622 286.004 259.622 285.973 259.622C285.388 259.591 284.927 259.253 284.589 259.038C284.496 258.976 284.373 258.884 284.281 258.853C284.189 258.884 284.035 258.915 283.943 258.945C283.573 259.069 283.051 259.253 282.466 259.13C281.882 259.007 281.482 258.607 281.205 258.33C281.112 258.238 281.02 258.146 280.928 258.084C280.836 258.084 280.682 258.115 280.559 258.146C280.159 258.207 279.605 258.299 279.082 258.084C278.528 257.869 278.19 257.438 277.944 257.1C277.882 257.007 277.79 256.884 277.729 256.823C277.636 256.823 277.483 256.823 277.359 256.823C276.96 256.823 276.406 256.854 275.883 256.546C275.36 256.238 275.114 255.777 274.898 255.408C274.837 255.315 274.775 255.162 274.714 255.1C274.622 255.069 274.468 255.069 274.345 255.039C273.945 254.977 273.391 254.916 272.93 254.546C272.468 254.177 272.284 253.654 272.13 253.285C272.099 253.193 272.038 253.039 272.007 252.947C271.915 252.916 271.761 252.854 271.668 252.824C271.268 252.701 270.746 252.547 270.346 252.116C269.946 251.686 269.823 251.132 269.761 250.763C269.73 250.64 269.7 250.486 269.669 250.424C269.607 250.393 269.453 250.301 269.361 250.27C268.992 250.117 268.5 249.871 268.161 249.378C267.823 248.886 267.792 248.332 267.792 247.932C267.792 247.809 267.792 247.656 267.762 247.563C267.7 247.502 267.546 247.41 267.454 247.348C267.116 247.133 266.654 246.825 266.408 246.302C266.162 245.779 266.193 245.225 266.254 244.825C266.254 244.702 266.285 244.549 266.285 244.456C266.223 244.395 266.1 244.272 266.039 244.21C265.731 243.933 265.331 243.564 265.147 243.01C264.962 242.457 265.116 241.903 265.208 241.534C265.239 241.411 265.27 241.257 265.301 241.165C265.27 241.103 265.147 240.98 265.085 240.888C264.839 240.58 264.47 240.15 264.378 239.565C264.285 238.981 264.501 238.488 264.655 238.119C264.685 238.027 264.747 237.873 264.778 237.781C264.747 237.689 264.655 237.566 264.593 237.473C264.378 237.135 264.101 236.643 264.101 236.058C264.101 235.474 264.378 234.981 264.593 234.643C264.655 234.551 264.747 234.397 264.778 234.335C264.747 234.243 264.685 234.089 264.655 233.997C264.501 233.628 264.285 233.105 264.378 232.551C264.47 231.967 264.808 231.536 265.085 231.228C265.147 231.136 265.27 231.013 265.301 230.952C265.301 230.859 265.239 230.705 265.208 230.582C265.116 230.183 264.962 229.66 265.147 229.106C265.331 228.552 265.731 228.183 266.039 227.906C266.131 227.845 266.254 227.722 266.285 227.66C266.285 227.568 266.285 227.414 266.254 227.291C266.223 226.891 266.162 226.337 266.408 225.814C266.654 225.291 267.116 224.984 267.454 224.768C267.546 224.707 267.669 224.615 267.762 224.553C267.792 224.461 267.792 224.307 267.792 224.184C267.823 223.784 267.854 223.23 268.161 222.738C268.5 222.246 268.992 222.03 269.361 221.846C269.453 221.784 269.607 221.723 269.669 221.692C269.7 221.6 269.73 221.446 269.761 221.354C269.853 220.954 269.946 220.431 270.346 220C270.746 219.569 271.268 219.416 271.668 219.293C271.791 219.262 271.945 219.231 272.007 219.17C272.038 219.108 272.099 218.954 272.13 218.831C272.284 218.462 272.468 217.939 272.93 217.57C273.391 217.201 273.945 217.139 274.345 217.078C274.468 217.078 274.622 217.047 274.714 217.016C274.775 216.955 274.837 216.801 274.898 216.709C275.083 216.339 275.36 215.878 275.852 215.57C276.344 215.263 276.898 215.293 277.329 215.293C277.452 215.293 277.606 215.293 277.698 215.293C277.759 215.232 277.852 215.109 277.913 215.017C278.159 214.709 278.498 214.248 279.051 214.032C279.605 213.817 280.128 213.909 280.528 213.971C280.651 214.001 280.805 214.032 280.897 214.032C280.959 213.971 281.082 213.878 281.174 213.786C281.451 213.509 281.851 213.109 282.435 212.986C283.02 212.863 283.543 213.017 283.912 213.171C284.035 213.202 284.189 213.263 284.25 213.263C284.312 213.232 284.466 213.14 284.558 213.079C284.896 212.832 285.327 212.525 285.942 212.494C286.527 212.463 287.019 212.709 287.357 212.894C287.45 212.956 287.603 213.017 287.696 213.048C287.788 213.017 287.911 212.956 288.034 212.894C288.403 212.709 288.895 212.463 289.449 212.494C290.034 212.525 290.495 212.863 290.833 213.079C290.926 213.14 291.049 213.232 291.141 213.263C291.233 213.232 291.387 213.202 291.479 213.171C291.849 213.048 292.372 212.863 292.956 212.986C293.541 213.109 293.94 213.509 294.217 213.786C294.31 213.878 294.402 213.971 294.494 214.032C294.586 214.032 294.74 214.001 294.863 213.971C295.263 213.909 295.817 213.817 296.34 214.032C296.894 214.248 297.232 214.678 297.478 215.017C297.54 215.109 297.632 215.232 297.693 215.293C297.786 215.293 297.94 215.293 298.063 215.293C298.463 215.293 299.016 215.263 299.539 215.57C300.062 215.878 300.308 216.339 300.493 216.709C300.554 216.801 300.616 216.955 300.677 217.016C300.77 217.047 300.924 217.047 301.047 217.078C301.446 217.139 302 217.201 302.462 217.57C302.923 217.939 303.108 218.462 303.261 218.831C303.292 218.923 303.354 219.077 303.385 219.17C303.477 219.2 303.631 219.262 303.723 219.293C304.123 219.416 304.646 219.569 305.046 220C305.446 220.431 305.569 220.985 305.63 221.354C305.661 221.477 305.692 221.631 305.722 221.692C305.784 221.723 305.938 221.815 306.03 221.846C306.399 222 306.891 222.246 307.23 222.738C307.568 223.23 307.599 223.784 307.599 224.184C307.599 224.307 307.599 224.461 307.63 224.553C307.691 224.615 307.845 224.707 307.937 224.768C308.276 224.984 308.737 225.291 308.983 225.814C309.229 226.337 309.199 226.891 309.137 227.291C309.137 227.414 309.106 227.568 309.106 227.66C309.168 227.722 309.291 227.845 309.352 227.906C309.66 228.183 310.06 228.552 310.245 229.106C310.429 229.66 310.275 230.213 310.183 230.582C310.152 230.705 310.122 230.859 310.091 230.952C310.122 231.013 310.245 231.136 310.306 231.228C310.552 231.536 310.921 231.967 311.014 232.551C311.106 233.136 310.891 233.628 310.737 233.997C310.706 234.089 310.644 234.243 310.614 234.335C310.644 234.428 310.737 234.551 310.798 234.643C311.014 234.981 311.29 235.474 311.29 236.058C311.29 236.643 311.014 237.135 310.798 237.473C310.737 237.566 310.644 237.719 310.614 237.781C310.644 237.873 310.706 238.027 310.737 238.119C310.891 238.488 311.106 239.011 311.014 239.565C310.921 240.15 310.583 240.58 310.306 240.888C310.245 240.98 310.122 241.103 310.091 241.165C310.091 241.257 310.152 241.411 310.183 241.534C310.275 241.934 310.429 242.457 310.245 243.01C310.06 243.564 309.66 243.933 309.352 244.21C309.26 244.272 309.137 244.395 309.106 244.456C309.106 244.549 309.106 244.702 309.137 244.825C309.168 245.225 309.229 245.779 308.983 246.302C308.737 246.825 308.276 247.133 307.937 247.348C307.845 247.41 307.722 247.502 307.63 247.563C307.599 247.656 307.599 247.809 307.599 247.932C307.568 248.332 307.537 248.886 307.23 249.378C306.891 249.871 306.399 250.086 306.03 250.27C305.938 250.332 305.784 250.393 305.722 250.424C305.692 250.517 305.661 250.67 305.63 250.763C305.538 251.163 305.446 251.686 305.046 252.116C304.646 252.547 304.123 252.701 303.723 252.824C303.6 252.854 303.446 252.885 303.385 252.947C303.354 253.008 303.292 253.162 303.261 253.285C303.108 253.654 302.923 254.177 302.462 254.546C302 254.916 301.446 254.977 301.047 255.039C300.924 255.039 300.77 255.069 300.677 255.1C300.616 255.162 300.554 255.315 300.493 255.408C300.308 255.777 300.031 256.238 299.539 256.546C299.047 256.854 298.493 256.823 298.063 256.823C297.94 256.823 297.786 256.823 297.693 256.823C297.632 256.884 297.54 257.007 297.478 257.1C297.232 257.407 296.894 257.869 296.34 258.084C295.786 258.299 295.263 258.207 294.863 258.146C294.74 258.115 294.586 258.084 294.494 258.084C294.433 258.146 294.31 258.238 294.217 258.33C293.94 258.607 293.541 259.007 292.956 259.13C292.372 259.253 291.849 259.099 291.479 258.945C291.356 258.915 291.203 258.853 291.141 258.853C291.08 258.884 290.926 258.976 290.833 259.038C290.495 259.284 290.064 259.591 289.449 259.622C288.865 259.653 288.372 259.407 288.034 259.222C287.942 259.161 287.788 259.099 287.696 259.068C287.603 259.099 287.48 259.161 287.357 259.222C287.05 259.376 286.619 259.622 286.096 259.622ZM284.343 256.638C284.435 256.638 284.527 256.638 284.619 256.669C285.142 256.761 285.542 257.038 285.85 257.254C285.942 257.315 286.065 257.407 286.127 257.438C286.219 257.407 286.342 257.346 286.434 257.284C286.773 257.1 287.203 256.884 287.757 256.884C288.311 256.884 288.711 257.1 289.08 257.284C289.172 257.315 289.295 257.407 289.388 257.438C289.48 257.407 289.572 257.315 289.664 257.254C289.972 257.038 290.372 256.761 290.895 256.669C291.418 256.577 291.879 256.731 292.249 256.854C292.341 256.884 292.464 256.915 292.556 256.946C292.618 256.884 292.741 256.792 292.802 256.731C293.079 256.454 293.417 256.115 293.94 255.961C294.433 255.808 294.925 255.9 295.294 255.961C295.386 255.992 295.54 255.992 295.632 256.023C295.694 255.961 295.786 255.838 295.848 255.777C296.094 255.469 296.371 255.1 296.832 254.854C297.294 254.639 297.786 254.639 298.186 254.639C298.278 254.639 298.432 254.639 298.524 254.639C298.586 254.577 298.647 254.454 298.678 254.362C298.862 254.023 299.109 253.593 299.539 253.316C299.97 253.008 300.462 252.947 300.831 252.916C300.924 252.916 301.077 252.885 301.17 252.854C301.2 252.762 301.262 252.639 301.293 252.547C301.416 252.178 301.6 251.716 301.969 251.378C302.369 251.009 302.831 250.886 303.2 250.793C303.292 250.763 303.446 250.732 303.508 250.701C303.538 250.609 303.569 250.486 303.569 250.363C303.661 249.994 303.754 249.501 304.061 249.101C304.4 248.702 304.83 248.486 305.169 248.332C305.261 248.302 305.384 248.24 305.476 248.179C305.476 248.086 305.507 247.963 305.507 247.84C305.538 247.44 305.569 246.979 305.815 246.517C306.092 246.056 306.492 245.81 306.799 245.595C306.891 245.533 307.015 245.471 307.076 245.41C307.076 245.318 307.076 245.195 307.045 245.072C307.015 244.672 306.953 244.21 307.168 243.718C307.353 243.226 307.722 242.918 307.999 242.641C308.06 242.58 308.183 242.488 308.245 242.426C308.245 242.334 308.183 242.211 308.183 242.118C308.091 241.749 307.968 241.288 308.091 240.765C308.214 240.242 308.522 239.873 308.768 239.596C308.83 239.504 308.922 239.411 308.983 239.319C308.953 239.227 308.891 239.104 308.86 239.011C308.706 238.642 308.522 238.212 308.553 237.689C308.583 237.166 308.829 236.766 309.045 236.427C309.106 236.335 309.168 236.212 309.199 236.12C309.168 236.027 309.076 235.904 309.045 235.812C308.86 235.474 308.583 235.074 308.553 234.551C308.522 234.028 308.706 233.566 308.86 233.228C308.891 233.136 308.953 233.013 308.983 232.92C308.922 232.859 308.83 232.736 308.768 232.644C308.522 232.336 308.214 231.967 308.091 231.475C307.968 230.952 308.091 230.49 308.183 230.121C308.214 230.029 308.245 229.875 308.245 229.813C308.183 229.752 308.091 229.66 307.999 229.598C307.722 229.352 307.353 229.014 307.168 228.521C306.984 228.029 307.015 227.537 307.045 227.168C307.045 227.076 307.076 226.922 307.076 226.829C307.015 226.768 306.891 226.706 306.799 226.645C306.461 226.429 306.061 226.183 305.815 225.722C305.538 225.261 305.538 224.799 305.507 224.399C305.507 224.307 305.507 224.153 305.476 224.061C305.384 224.03 305.261 223.968 305.169 223.907C304.83 223.753 304.369 223.538 304.061 223.138C303.723 222.738 303.631 222.246 303.569 221.877C303.538 221.784 303.508 221.631 303.508 221.538C303.415 221.507 303.292 221.477 303.2 221.446C302.831 221.354 302.369 221.2 301.969 220.861C301.57 220.492 301.416 220.062 301.293 219.692C301.262 219.6 301.2 219.477 301.17 219.385C301.077 219.354 300.954 219.354 300.831 219.323C300.431 219.262 299.97 219.2 299.539 218.923C299.109 218.616 298.862 218.216 298.678 217.878C298.616 217.785 298.555 217.662 298.524 217.601C298.432 217.601 298.278 217.601 298.186 217.601C297.786 217.601 297.324 217.631 296.832 217.385C296.371 217.17 296.063 216.77 295.848 216.462C295.786 216.37 295.694 216.278 295.632 216.216C295.54 216.216 295.417 216.247 295.294 216.278C294.925 216.339 294.433 216.432 293.94 216.278C293.448 216.124 293.11 215.786 292.802 215.509C292.741 215.447 292.618 215.324 292.556 215.293C292.464 215.324 292.341 215.355 292.249 215.386C291.879 215.509 291.418 215.663 290.895 215.57C290.372 215.478 289.972 215.201 289.664 214.986C289.572 214.924 289.449 214.832 289.388 214.801C289.295 214.832 289.172 214.894 289.08 214.955C288.742 215.14 288.311 215.355 287.757 215.355C287.203 215.355 286.804 215.14 286.434 214.955C286.342 214.924 286.219 214.832 286.127 214.801C286.034 214.832 285.942 214.924 285.85 214.986C285.542 215.201 285.142 215.478 284.619 215.57C284.096 215.663 283.635 215.509 283.266 215.386C283.174 215.355 283.051 215.324 282.958 215.293C282.897 215.355 282.774 215.447 282.712 215.509C282.435 215.786 282.097 216.124 281.574 216.278C281.082 216.432 280.59 216.339 280.22 216.278C280.128 216.247 279.974 216.247 279.882 216.216C279.82 216.278 279.728 216.401 279.667 216.462C279.421 216.77 279.144 217.139 278.682 217.385C278.221 217.601 277.729 217.601 277.329 217.601C277.236 217.601 277.083 217.601 276.99 217.601C276.929 217.662 276.867 217.785 276.836 217.878C276.652 218.216 276.406 218.647 275.975 218.923C275.544 219.231 275.052 219.293 274.683 219.323C274.591 219.323 274.437 219.354 274.345 219.385C274.314 219.477 274.252 219.6 274.222 219.692C274.099 220.062 273.914 220.523 273.545 220.861C273.176 221.2 272.684 221.354 272.314 221.446C272.222 221.477 272.068 221.507 272.007 221.538C271.976 221.631 271.945 221.754 271.945 221.877C271.853 222.246 271.761 222.738 271.453 223.138C271.115 223.538 270.684 223.753 270.346 223.907C270.253 223.938 270.13 223.999 270.038 224.061C270.038 224.153 270.007 224.276 270.007 224.399C269.976 224.799 269.946 225.261 269.7 225.722C269.423 226.183 269.023 226.429 268.715 226.645C268.623 226.706 268.5 226.768 268.438 226.829C268.438 226.922 268.438 227.045 268.469 227.168C268.5 227.568 268.561 228.029 268.346 228.521C268.161 229.014 267.792 229.321 267.515 229.598C267.454 229.66 267.331 229.752 267.269 229.813C267.269 229.906 267.331 230.029 267.331 230.121C267.423 230.49 267.546 230.952 267.423 231.475C267.3 231.998 266.992 232.367 266.746 232.644C266.685 232.736 266.593 232.828 266.531 232.92C266.562 233.013 266.623 233.136 266.654 233.228C266.808 233.597 266.993 234.028 266.962 234.551C266.931 235.074 266.685 235.474 266.47 235.812C266.408 235.904 266.346 236.027 266.316 236.12C266.346 236.212 266.439 236.335 266.47 236.427C266.654 236.766 266.931 237.166 266.962 237.689C266.993 238.212 266.808 238.673 266.654 239.011C266.623 239.104 266.562 239.227 266.531 239.319C266.593 239.381 266.685 239.504 266.746 239.596C266.992 239.903 267.3 240.273 267.423 240.765C267.546 241.288 267.423 241.749 267.331 242.118C267.3 242.211 267.269 242.364 267.269 242.426C267.331 242.488 267.423 242.58 267.515 242.641C267.792 242.887 268.161 243.226 268.346 243.718C268.531 244.21 268.5 244.702 268.469 245.072C268.469 245.164 268.438 245.318 268.438 245.41C268.5 245.471 268.623 245.533 268.715 245.595C269.054 245.81 269.454 246.056 269.7 246.517C269.976 246.979 269.976 247.44 270.007 247.84C270.007 247.932 270.007 248.086 270.038 248.179C270.13 248.209 270.253 248.271 270.346 248.332C270.684 248.486 271.145 248.702 271.453 249.101C271.791 249.501 271.884 249.994 271.945 250.363C271.976 250.455 272.007 250.609 272.007 250.701C272.099 250.732 272.222 250.763 272.314 250.793C272.684 250.886 273.145 251.039 273.545 251.378C273.945 251.747 274.099 252.178 274.222 252.547C274.252 252.639 274.314 252.762 274.345 252.854C274.437 252.885 274.56 252.885 274.683 252.916C275.083 252.978 275.544 253.039 275.975 253.316C276.406 253.624 276.652 254.023 276.836 254.362C276.898 254.454 276.96 254.577 276.99 254.639C277.083 254.639 277.236 254.639 277.329 254.639C277.729 254.639 278.19 254.608 278.682 254.854C279.144 255.069 279.451 255.469 279.667 255.777C279.728 255.869 279.82 255.961 279.882 256.023C279.974 256.023 280.097 255.992 280.22 255.961C280.59 255.9 281.082 255.808 281.574 255.961C282.066 256.115 282.405 256.454 282.712 256.731C282.774 256.792 282.897 256.915 282.958 256.946C283.051 256.915 283.174 256.884 283.266 256.854C283.573 256.761 283.943 256.638 284.343 256.638Z" fill="black" style="fill:black;fill-opacity:1;"/>
<path d="M289.234 233.905C289.08 233.905 288.926 233.874 288.773 233.813C288.219 233.567 288.003 232.92 288.25 232.367L292.464 223.353C292.71 222.8 293.356 222.584 293.91 222.83C294.464 223.076 294.679 223.723 294.433 224.276L290.218 233.29C290.034 233.69 289.634 233.905 289.234 233.905Z" fill="black" style="fill:black;fill-opacity:1;"/>
<path d="M282.005 249.378C281.851 249.378 281.697 249.348 281.544 249.286C280.99 249.04 280.774 248.394 281.021 247.84L285.235 238.827C285.481 238.273 286.127 238.058 286.681 238.304C287.235 238.55 287.45 239.196 287.204 239.75L282.989 248.763C282.805 249.163 282.405 249.378 282.005 249.378Z" fill="black" style="fill:black;fill-opacity:1;"/>
<path d="M290.68 235.135C290.342 235.135 290.003 234.982 289.788 234.674C289.449 234.182 289.573 233.505 290.065 233.167L298.309 227.599C298.801 227.26 299.478 227.383 299.816 227.876C300.155 228.368 300.032 229.044 299.54 229.383L291.295 234.951C291.111 235.074 290.895 235.135 290.68 235.135Z" fill="black" style="fill:black;fill-opacity:1;"/>
<path d="M276.529 244.703C276.191 244.703 275.852 244.549 275.637 244.241C275.299 243.749 275.422 243.072 275.914 242.734L284.158 237.166C284.65 236.827 285.327 236.95 285.666 237.443C286.004 237.935 285.881 238.612 285.389 238.95L277.144 244.518C276.929 244.641 276.714 244.703 276.529 244.703Z" fill="black" style="fill:black;fill-opacity:1;"/>
<path d="M291.295 236.95C290.741 236.95 290.249 236.52 290.218 235.935C290.187 235.351 290.649 234.828 291.233 234.797L301.17 234.274C301.754 234.243 302.277 234.705 302.308 235.289C302.339 235.874 301.877 236.397 301.293 236.427L291.356 236.95C291.326 236.95 291.295 236.95 291.295 236.95Z" fill="black" style="fill:black;fill-opacity:1;"/>
<path d="M274.222 237.842C273.668 237.842 273.176 237.412 273.145 236.827C273.114 236.243 273.576 235.72 274.16 235.689L284.097 235.166C284.681 235.135 285.204 235.597 285.235 236.181C285.266 236.766 284.804 237.289 284.22 237.319L274.283 237.842C274.253 237.842 274.253 237.842 274.222 237.842Z" fill="black" style="fill:black;fill-opacity:1;"/>
<path d="M299.663 243.472C299.478 243.472 299.324 243.441 299.171 243.349L290.372 238.673C289.85 238.396 289.634 237.75 289.942 237.227C290.219 236.704 290.865 236.489 291.388 236.797L300.186 241.473C300.709 241.75 300.924 242.396 300.616 242.919C300.432 243.288 300.063 243.472 299.663 243.472Z" fill="black" style="fill:black;fill-opacity:1;"/>
<path d="M284.589 235.474C284.404 235.474 284.251 235.443 284.097 235.351L275.299 230.675C274.776 230.398 274.56 229.752 274.868 229.229C275.145 228.706 275.791 228.491 276.314 228.799L285.112 233.474C285.635 233.751 285.85 234.397 285.543 234.92C285.327 235.259 284.958 235.474 284.589 235.474Z" fill="black" style="fill:black;fill-opacity:1;"/>
<path d="M294.679 248.733C294.31 248.733 293.971 248.548 293.756 248.21L288.649 239.658C288.342 239.135 288.496 238.489 289.019 238.181C289.541 237.873 290.187 238.027 290.495 238.55L295.632 247.071C295.94 247.594 295.786 248.24 295.263 248.548C295.079 248.671 294.894 248.733 294.679 248.733Z" fill="black" style="fill:black;fill-opacity:1;"/>
<path d="M285.912 234.09C285.543 234.09 285.204 233.905 284.989 233.567L279.852 225.045C279.544 224.522 279.698 223.876 280.221 223.569C280.744 223.261 281.39 223.415 281.697 223.938L286.835 232.459C287.142 232.982 286.988 233.628 286.465 233.936C286.281 234.028 286.096 234.09 285.912 234.09Z" fill="black" style="fill:black;fill-opacity:1;"/>
<path d="M287.727 250.64C287.142 250.64 286.65 250.148 286.65 249.563V239.596C286.65 239.012 287.142 238.52 287.727 238.52C288.311 238.52 288.803 239.012 288.803 239.596V249.563C288.803 250.179 288.311 250.64 287.727 250.64Z" fill="black" style="fill:black;fill-opacity:1;"/>
<path d="M287.727 233.567C287.142 233.567 286.65 233.075 286.65 232.49V222.523C286.65 221.938 287.142 221.446 287.727 221.446C288.311 221.446 288.804 221.938 288.804 222.523V232.49C288.804 233.105 288.311 233.567 287.727 233.567Z" fill="black" style="fill:black;fill-opacity:1;"/>
<path d="M287.727 240.703C285.173 240.703 283.082 238.612 283.082 236.058C283.082 233.505 285.173 231.413 287.727 231.413C290.28 231.413 292.372 233.505 292.372 236.058C292.372 238.612 290.28 240.703 287.727 240.703ZM287.727 233.566C286.342 233.566 285.235 234.674 285.235 236.058C285.235 237.443 286.342 238.55 287.727 238.55C289.111 238.55 290.218 237.443 290.218 236.058C290.218 234.674 289.111 233.566 287.727 233.566Z" fill="black" style="fill:black;fill-opacity:1;"/>
<path d="M326.979 172.718H214.05C213.466 172.718 212.973 172.226 212.973 171.642V126.79C212.973 123.56 215.619 120.914 218.849 120.914H322.211C325.441 120.914 328.087 123.56 328.087 126.79V171.672C328.056 172.257 327.594 172.718 326.979 172.718ZM215.127 170.565H325.903V126.79C325.903 124.729 324.241 123.068 322.18 123.068H218.818C216.757 123.068 215.096 124.729 215.096 126.79V170.565H215.127Z" fill="black" style="fill:black;fill-opacity:1;"/>
<path d="M257.333 236.366H214.05C213.466 236.366 212.973 235.874 212.973 235.289V216.001C212.973 215.417 213.466 214.924 214.05 214.924H257.333C257.917 214.924 258.41 215.417 258.41 216.001V235.289C258.41 235.874 257.917 236.366 257.333 236.366ZM215.127 234.212H256.256V217.078H215.127V234.212Z" fill="black" style="fill:black;fill-opacity:1;"/>
<path d="M314.521 183.547H226.54C225.956 183.547 225.463 183.054 225.463 182.47C225.463 181.886 225.956 181.393 226.54 181.393H314.521C315.105 181.393 315.597 181.886 315.597 182.47C315.597 183.054 315.105 183.547 314.521 183.547Z" fill="black" style="fill:black;fill-opacity:1;"/>
<path d="M314.521 199.236H226.54C225.956 199.236 225.463 198.743 225.463 198.159C225.463 197.574 225.956 197.082 226.54 197.082H314.521C315.105 197.082 315.597 197.574 315.597 198.159C315.597 198.743 315.105 199.236 314.521 199.236Z" fill="black" style="fill:black;fill-opacity:1;"/>
<path d="M230.354 216.001H224.54V235.351H230.354V216.001Z" fill="#FFD000" style="fill:#FFD000;fill:color(display-p3 1.0000 0.8157 0.0000);fill-opacity:1;"/>
<path d="M230.385 236.427H224.571C223.987 236.427 223.494 235.935 223.494 235.351V216.001C223.494 215.417 223.987 214.924 224.571 214.924H230.385C230.97 214.924 231.462 215.417 231.462 216.001V235.351C231.462 235.935 230.97 236.427 230.385 236.427ZM225.617 234.274H229.278V217.078H225.617V234.274Z" fill="black" style="fill:black;fill-opacity:1;"/>
<path d="M246.812 216.001H240.998V235.351H246.812V216.001Z" fill="#FFD000" style="fill:#FFD000;fill:color(display-p3 1.0000 0.8157 0.0000);fill-opacity:1;"/>
<path d="M246.843 236.427H241.029C240.444 236.427 239.952 235.935 239.952 235.351V216.001C239.952 215.417 240.444 214.924 241.029 214.924H246.843C247.427 214.924 247.92 215.417 247.92 216.001V235.351C247.92 235.935 247.427 236.427 246.843 236.427ZM242.075 234.274H245.735V217.078H242.075V234.274Z" fill="black" style="fill:black;fill-opacity:1;"/>
<path d="M224.54 226.707H214.05C213.466 226.707 212.973 226.214 212.973 225.63C212.973 225.045 213.466 224.553 214.05 224.553H224.54C225.125 224.553 225.617 225.045 225.617 225.63C225.617 226.214 225.155 226.707 224.54 226.707Z" fill="black" style="fill:black;fill-opacity:1;"/>
<path d="M240.998 226.707H230.355C229.77 226.707 229.278 226.214 229.278 225.63C229.278 225.045 229.77 224.553 230.355 224.553H240.998C241.583 224.553 242.075 225.045 242.075 225.63C242.075 226.214 241.614 226.707 240.998 226.707Z" fill="black" style="fill:black;fill-opacity:1;"/>
<path d="M257.333 226.768H246.843C246.259 226.768 245.767 226.276 245.767 225.691C245.767 225.107 246.259 224.615 246.843 224.615H257.333C257.918 224.615 258.41 225.107 258.41 225.691C258.41 226.276 257.918 226.768 257.333 226.768Z" fill="black" style="fill:black;fill-opacity:1;"/>
<path d="M219.31 223.815C217.526 223.815 216.05 222.369 216.05 220.554C216.05 218.739 217.495 217.293 219.31 217.293C221.125 217.293 222.571 218.739 222.571 220.554C222.571 222.369 221.095 223.815 219.31 223.815ZM219.31 219.477C218.695 219.477 218.203 219.969 218.203 220.585C218.203 221.2 218.695 221.692 219.31 221.692C219.926 221.692 220.418 221.2 220.418 220.585C220.418 219.969 219.895 219.477 219.31 219.477Z" fill="black" style="fill:black;fill-opacity:1;"/>
<path d="M261.639 236.427C261.578 236.427 261.486 236.427 261.424 236.397C260.84 236.274 260.47 235.72 260.593 235.135L265.669 210.218C265.792 209.633 266.346 209.264 266.931 209.387C267.515 209.51 267.884 210.064 267.761 210.648L262.685 235.566C262.593 236.089 262.132 236.427 261.639 236.427Z" fill="black" style="fill:black;fill-opacity:1;"/>
<path d="M313.259 236.427C312.767 236.427 312.306 236.089 312.213 235.566L307.137 210.648C307.014 210.064 307.384 209.51 307.968 209.387C308.552 209.264 309.106 209.633 309.229 210.218L314.305 235.135C314.428 235.72 314.059 236.274 313.474 236.397C313.413 236.427 313.321 236.427 313.259 236.427Z" fill="black" style="fill:black;fill-opacity:1;"/>
<path d="M326.98 235.412H321.319C320.735 235.412 320.243 234.92 320.243 234.336V219.17C320.243 218.585 320.735 218.093 321.319 218.093H326.98C327.564 218.093 328.056 218.585 328.056 219.17V234.336C328.056 234.92 327.595 235.412 326.98 235.412ZM322.427 233.259H325.934V220.246H322.427V233.259Z" fill="black" style="fill:black;fill-opacity:1;"/>
<path d="M321.35 230.798H312.121C311.598 230.798 311.167 230.429 311.075 229.936L309.875 224.03C309.814 223.722 309.906 223.384 310.091 223.138C310.306 222.892 310.614 222.738 310.921 222.738H321.35C321.934 222.738 322.427 223.23 322.427 223.815V229.721C322.427 230.306 321.934 230.798 321.35 230.798ZM312.982 228.644H320.242V224.891H312.213L312.982 228.644Z" fill="black" style="fill:black;fill-opacity:1;"/>
<path d="M283.081 213.171C282.743 213.171 282.373 212.986 282.189 212.679C281.85 212.186 282.004 211.51 282.496 211.202L284.927 209.633C285.419 209.295 286.096 209.449 286.403 209.941C286.742 210.433 286.588 211.11 286.096 211.417L283.665 212.986C283.481 213.14 283.266 213.171 283.081 213.171Z" fill="black" style="fill:black;fill-opacity:1;"/>
<path d="M286.742 214.709C286.403 214.709 286.034 214.524 285.85 214.217C285.511 213.725 285.665 213.048 286.157 212.74L288.495 211.233C288.988 210.894 289.664 211.048 289.972 211.54C290.31 212.033 290.156 212.709 289.664 213.017L287.326 214.524C287.142 214.647 286.926 214.709 286.742 214.709Z" fill="black" style="fill:black;fill-opacity:1;"/>
<path d="M153.294 179.055H149.51C146.988 179.055 144.958 177.025 144.958 174.502V160.844C144.958 158.321 146.988 156.291 149.51 156.291H153.294C154.248 156.291 154.986 157.06 154.986 157.983V177.363C154.986 178.317 154.217 179.055 153.294 179.055Z" fill="white" style="fill:white;fill-opacity:1;"/>
<path d="M153.294 180.132H149.51C146.403 180.132 143.881 177.609 143.881 174.502V160.844C143.881 157.737 146.403 155.214 149.51 155.214H153.294C154.832 155.214 156.063 156.476 156.063 157.983V177.363C156.063 178.901 154.802 180.132 153.294 180.132ZM149.48 157.368C147.572 157.368 146.003 158.937 146.003 160.844V174.502C146.003 176.41 147.572 177.979 149.48 177.979H153.294C153.633 177.979 153.909 177.702 153.909 177.363V157.983C153.909 157.645 153.633 157.368 153.294 157.368H149.48Z" fill="black" style="fill:black;fill-opacity:1;"/>
<path d="M154.986 164.658H144.927V170.042H154.986V164.658Z" fill="#FFD000" style="fill:#FFD000;fill:color(display-p3 1.0000 0.8157 0.0000);fill-opacity:1;"/>
<path d="M154.986 171.15H144.927C144.342 171.15 143.85 170.657 143.85 170.073V164.689C143.85 164.105 144.342 163.613 144.927 163.613H154.986C155.571 163.613 156.063 164.105 156.063 164.689V170.073C156.063 170.657 155.571 171.15 154.986 171.15ZM146.003 168.996H153.909V165.766H146.003V168.996Z" fill="black" style="fill:black;fill-opacity:1;"/>
<path d="M142.343 172.718H135.79C135.206 172.718 134.714 172.226 134.714 171.642C134.714 171.057 135.206 170.565 135.79 170.565H142.343C142.927 170.565 143.419 171.057 143.419 171.642C143.419 172.226 142.958 172.718 142.343 172.718Z" fill="black" style="fill:black;fill-opacity:1;"/>
<path d="M200.053 172.718H154.986C154.402 172.718 153.909 172.226 153.909 171.642C153.909 171.057 154.402 170.565 154.986 170.565H198.976V153.338C198.976 152.753 199.469 152.261 200.053 152.261C200.638 152.261 201.13 152.753 201.13 153.338V171.642C201.13 172.257 200.638 172.718 200.053 172.718Z" fill="black" style="fill:black;fill-opacity:1;"/>
<path d="M198.885 186.531H196.824C196.239 186.531 195.747 186.039 195.747 185.454C195.747 184.87 196.239 184.377 196.824 184.377H198.885C199.469 184.377 199.961 184.87 199.961 185.454C199.961 186.039 199.469 186.531 198.885 186.531Z" fill="black" style="fill:black;fill-opacity:1;"/>
<path d="M237.615 166.935C237.03 166.935 236.538 166.443 236.538 165.858V128.205C236.538 127.62 237.03 127.128 237.615 127.128C238.199 127.128 238.691 127.62 238.691 128.205V165.858C238.691 166.443 238.199 166.935 237.615 166.935Z" fill="black" style="fill:black;fill-opacity:1;"/>
<path d="M259.548 166.935C258.964 166.935 258.471 166.443 258.471 165.858V128.205C258.471 127.62 258.964 127.128 259.548 127.128C260.133 127.128 260.625 127.62 260.625 128.205V165.858C260.625 166.443 260.133 166.935 259.548 166.935Z" fill="black" style="fill:black;fill-opacity:1;"/>
<path d="M281.482 166.935C280.897 166.935 280.405 166.443 280.405 165.858V128.205C280.405 127.62 280.897 127.128 281.482 127.128C282.066 127.128 282.559 127.62 282.559 128.205V165.858C282.559 166.443 282.097 166.935 281.482 166.935Z" fill="black" style="fill:black;fill-opacity:1;"/>
<path d="M303.446 166.935C302.862 166.935 302.369 166.443 302.369 165.858V128.205C302.369 127.62 302.862 127.128 303.446 127.128C304.031 127.128 304.523 127.62 304.523 128.205V165.858C304.523 166.443 304.031 166.935 303.446 166.935Z" fill="black" style="fill:black;fill-opacity:1;"/>
<path d="M165.168 152.63C164.891 152.63 164.584 152.507 164.399 152.292C163.999 151.861 163.999 151.184 164.43 150.785L166.06 149.246C166.491 148.846 167.168 148.846 167.568 149.277C167.968 149.708 167.968 150.385 167.537 150.785L165.907 152.323C165.691 152.538 165.414 152.63 165.168 152.63Z" fill="black" style="fill:black;fill-opacity:1;"/>
<path d="M169.475 148.539C169.198 148.539 168.921 148.416 168.706 148.201C168.306 147.77 168.306 147.093 168.737 146.693L177.197 138.541C177.627 138.141 178.304 138.141 178.704 138.572C179.104 139.003 179.104 139.679 178.673 140.079L170.213 148.231C169.998 148.416 169.721 148.539 169.475 148.539Z" fill="black" style="fill:black;fill-opacity:1;"/>
<path d="M163.876 159.367C163.599 159.367 163.323 159.244 163.107 159.029C162.707 158.598 162.707 157.921 163.138 157.522L173.228 147.678C173.659 147.278 174.336 147.278 174.735 147.708C175.135 148.139 175.135 148.816 174.705 149.216L164.615 159.06C164.399 159.244 164.122 159.367 163.876 159.367Z" fill="black" style="fill:black;fill-opacity:1;"/>
<path d="M175.566 147.462C175.289 147.462 175.012 147.37 174.797 147.155C174.366 146.724 174.366 146.047 174.797 145.647L178.888 141.587C179.319 141.156 179.996 141.156 180.396 141.587C180.796 142.017 180.826 142.694 180.396 143.094L176.304 147.155C176.12 147.339 175.843 147.462 175.566 147.462Z" fill="black" style="fill:black;fill-opacity:1;"/>
<path d="M172.675 158.475C172.398 158.475 172.152 158.383 171.936 158.198C171.506 157.798 171.475 157.122 171.875 156.691L175.658 152.63C176.058 152.2 176.735 152.169 177.166 152.569C177.597 152.969 177.627 153.645 177.227 154.076L173.444 158.137C173.228 158.383 172.951 158.475 172.675 158.475Z" fill="black" style="fill:black;fill-opacity:1;"/>
<path d="M178.519 152.63C178.242 152.63 177.965 152.538 177.75 152.323C177.319 151.892 177.319 151.215 177.75 150.815L185.994 142.632C186.425 142.202 187.102 142.202 187.532 142.632C187.963 143.063 187.963 143.74 187.532 144.14L179.288 152.323C179.073 152.507 178.796 152.63 178.519 152.63Z" fill="black" style="fill:black;fill-opacity:1;"/>
<path d="M351.62 259.346H45.2254C44.6409 259.346 44.1487 258.853 44.1487 258.269C44.1487 257.684 44.6409 257.192 45.2254 257.192H351.62C352.204 257.192 352.697 257.684 352.697 258.269C352.697 258.853 352.204 259.346 351.62 259.346Z" fill="black" style="fill:black;fill-opacity:1;"/>
<path d="M235.676 123.067C188.979 123.067 172.675 115.746 167.23 109.624C164.707 106.763 164.861 104.548 164.892 104.302C164.953 103.718 165.507 103.287 166.091 103.349C166.676 103.41 167.107 103.933 167.045 104.518C167.045 104.61 166.984 106.21 169.014 108.394C173.382 113.07 187.84 120.945 235.676 120.945C236.261 120.945 236.753 121.437 236.753 122.021C236.753 122.606 236.291 123.067 235.676 123.067Z" fill="black" style="fill:black;fill-opacity:1;"/>
<path d="M235.677 123.068C235.092 123.068 234.6 122.575 234.6 121.991C234.6 121.406 235.092 120.914 235.677 120.914C281.02 120.914 293.418 112.639 296.771 107.717C298.893 104.579 297.971 102.118 297.94 101.995C297.724 101.441 298.001 100.826 298.524 100.611C299.078 100.396 299.693 100.642 299.909 101.195C299.97 101.349 301.354 104.733 298.617 108.824C294.31 115.315 279.882 123.068 235.677 123.068Z" fill="black" style="fill:black;fill-opacity:1;"/>
<path d="M228.816 123.375C228.663 123.375 228.54 123.345 228.386 123.283C227.032 122.698 195.378 108.825 190.302 98.8576C186.149 90.7055 186.118 81.4152 190.209 73.9707C193.224 68.5257 197.962 65.1419 203.222 64.6497C209.128 64.0959 216.204 66.7723 222.11 71.7558C227.986 76.7393 231.831 83.261 232.416 89.1981C233.246 97.9654 234.723 121.96 234.723 122.206C234.754 122.791 234.292 123.314 233.708 123.345C233.123 123.375 232.6 122.914 232.569 122.329C232.569 122.083 231.093 98.1193 230.262 89.3827C229.739 83.9685 226.202 78.0006 220.726 73.3862C215.25 68.7411 208.79 66.2801 203.407 66.7723C198.854 67.203 194.732 70.1869 192.086 74.9859C188.333 81.7844 188.394 90.3056 192.209 97.8424C196.946 107.133 228.909 121.13 229.247 121.283C229.801 121.53 230.047 122.145 229.801 122.698C229.647 123.129 229.247 123.375 228.816 123.375Z" fill="black" style="fill:black;fill-opacity:1;"/>
<path d="M238.814 123.375C238.384 123.375 238.015 123.129 237.83 122.729C237.584 122.175 237.83 121.56 238.384 121.314C238.691 121.16 270.684 107.194 275.422 97.8731C279.236 90.3363 279.298 81.8151 275.545 75.0165C272.899 70.2176 268.777 67.2029 264.224 66.8029C258.871 66.3107 252.381 68.7717 246.905 73.4169C241.429 78.0313 237.861 84.03 237.369 89.4134C236.538 98.1192 235.092 122.114 235.061 122.36C235.031 122.945 234.508 123.406 233.923 123.375C233.339 123.344 232.877 122.821 232.908 122.237C232.908 121.991 234.385 97.9961 235.215 89.2288C235.769 83.2917 239.614 76.77 245.521 71.7865C251.427 66.7722 258.472 64.1266 264.409 64.6803C269.669 65.1725 274.407 68.5564 277.421 74.0014C281.513 81.4151 281.482 90.7054 277.329 98.8882C272.253 108.855 240.568 122.729 239.245 123.314C239.091 123.344 238.937 123.375 238.814 123.375Z" fill="black" style="fill:black;fill-opacity:1;"/>
<path d="M184.672 59.5738C184.58 59.5738 184.488 59.5738 184.426 59.5431C183.842 59.3893 183.503 58.8048 183.626 58.251C183.934 57.0205 184.088 55.7593 184.088 54.498C184.088 45.823 177.012 38.7784 168.368 38.7784C161.447 38.7784 155.233 43.4235 153.295 50.0682C153.202 50.3451 153.018 50.5912 152.741 50.7142C152.464 50.8373 152.187 50.868 151.91 50.7758C151.049 50.4681 150.157 50.3451 149.265 50.3451C144.743 50.3451 141.082 54.0058 141.082 58.5279C141.082 59.1124 140.59 59.6046 140.005 59.6046C139.421 59.6046 138.928 59.1124 138.928 58.5279C138.928 52.8368 143.574 48.1917 149.265 48.1917C150.034 48.1917 150.834 48.284 151.572 48.4378C154.094 41.424 160.831 36.625 168.368 36.625C178.212 36.625 186.241 44.654 186.241 54.498C186.241 55.9439 186.057 57.3897 185.718 58.774C185.595 59.2662 185.164 59.5738 184.672 59.5738Z" fill="black" style="fill:black;fill-opacity:1;"/>
<path d="M145.142 111.532C144.65 111.532 144.189 111.163 144.096 110.67C143.112 105.502 138.559 101.78 133.299 101.78C129.792 101.78 126.469 103.472 124.408 106.333C124.162 106.671 123.762 106.825 123.362 106.764C122.962 106.702 122.624 106.425 122.501 106.025C120.717 100.334 115.487 96.5196 109.519 96.5196C107.335 96.5196 105.182 97.0426 103.274 98.027C102.998 98.1808 102.659 98.1808 102.352 98.0577C102.044 97.9347 101.829 97.6578 101.736 97.3502C99.8291 90.5209 93.5228 85.7527 86.4166 85.7527C77.6493 85.7527 70.5124 92.8896 70.5124 101.657C70.5124 102.457 70.5739 103.287 70.697 104.087C70.7585 104.426 70.6355 104.733 70.4201 104.979C70.2048 105.225 69.8664 105.348 69.5588 105.318C69.528 105.318 69.4973 105.318 69.4357 105.318C66.6056 105.318 64.2676 107.625 64.2676 110.486C64.2676 111.07 63.7754 111.562 63.1909 111.562C62.6065 111.562 62.1143 111.07 62.1143 110.486C62.1143 106.794 64.8521 103.749 68.4206 103.257C68.3898 102.734 68.359 102.211 68.359 101.688C68.359 91.7207 76.4496 83.6301 86.4166 83.6301C94.0457 83.6301 100.875 88.4906 103.428 95.5967C105.336 94.7969 107.427 94.3662 109.519 94.3662C115.795 94.3662 121.363 97.9962 123.885 103.595C126.346 101.072 129.73 99.6266 133.299 99.6266C139.605 99.6266 145.019 104.118 146.188 110.27C146.311 110.855 145.911 111.409 145.327 111.532C145.265 111.532 145.204 111.532 145.142 111.532Z" fill="#FFD000" style="fill:#FFD000;fill:color(display-p3 1.0000 0.8157 0.0000);fill-opacity:1;"/>
<path d="M326.979 211.51H214.05C213.466 211.51 212.973 211.018 212.973 210.433V171.888C212.973 171.303 213.466 170.811 214.05 170.811H326.979C327.564 170.811 328.056 171.303 328.056 171.888V210.433C328.056 211.048 327.594 211.51 326.979 211.51ZM215.127 209.356H325.903V172.964H215.127V209.356Z" fill="black" style="fill:black;fill-opacity:1;"/>
<path d="M96.4452 61.4504C94.2611 61.4504 93.1844 59.6046 92.2615 57.9742C91.3079 56.3131 90.6311 55.2979 89.4314 55.2979C88.2009 55.2979 87.5549 56.3131 86.6012 57.9742C85.6784 59.6046 84.6324 61.4504 82.4175 61.4504C80.2026 61.4504 79.1567 59.6046 78.2338 57.9742C77.2802 56.3131 76.6034 55.2979 75.4037 55.2979C74.2039 55.2979 73.5272 56.3131 72.5735 57.9742C71.6507 59.6046 70.6047 61.4504 68.3898 61.4504C66.1749 61.4504 65.129 59.6046 64.2061 57.9742C63.2525 56.3131 62.5757 55.2979 61.376 55.2979V53.7598C63.5601 53.7598 64.6368 55.6055 65.5597 57.2359C66.5133 58.8971 67.1901 59.9123 68.3898 59.9123C69.6203 59.9123 70.2663 58.8971 71.22 57.2359C72.1429 55.6055 73.1888 53.7598 75.4037 53.7598C77.5878 53.7598 78.6645 55.6055 79.5874 57.2359C80.541 58.8971 81.2178 59.9123 82.4175 59.9123C83.6173 59.9123 84.294 58.8971 85.2477 57.2359C86.1706 55.6055 87.2165 53.7598 89.4314 53.7598C91.6463 53.7598 92.6922 55.6055 93.6151 57.2359C94.5687 58.8971 95.2455 59.9123 96.4452 59.9123V61.4504Z" fill="black" style="fill:black;fill-opacity:1;"/>
<path d="M303.016 60.2507C300.831 60.2507 299.755 58.4049 298.832 56.7745C297.878 55.1133 297.201 54.0982 296.002 54.0982C294.802 54.0982 294.125 55.1133 293.172 56.7745C292.249 58.4049 291.203 60.2507 288.988 60.2507C286.773 60.2507 285.727 58.4049 284.804 56.7745C283.851 55.1133 283.174 54.0982 281.974 54.0982C280.744 54.0982 280.097 55.1133 279.144 56.7745C278.221 58.4049 277.175 60.2507 274.96 60.2507C272.745 60.2507 271.699 58.4049 270.776 56.7745C269.823 55.1133 269.146 54.0982 267.946 54.0982C267.516 54.0982 267.177 53.7598 267.177 53.3291C267.177 52.8984 267.516 52.5601 267.946 52.5601C270.13 52.5601 271.207 54.4058 272.13 56.0362C273.084 57.6974 273.76 58.7126 274.96 58.7126C276.16 58.7126 276.837 57.6974 277.79 56.0362C278.713 54.4058 279.759 52.5601 281.974 52.5601C284.189 52.5601 285.235 54.4058 286.158 56.0362C287.111 57.6974 287.788 58.7126 288.988 58.7126C290.188 58.7126 290.864 57.6974 291.818 56.0362C292.741 54.4058 293.787 52.5601 296.002 52.5601C298.217 52.5601 299.263 54.4058 300.185 56.0362C301.139 57.6974 301.816 58.7126 303.016 58.7126C303.446 58.7126 303.785 59.0509 303.785 59.4816C303.785 59.9123 303.446 60.2507 303.016 60.2507Z" fill="#FFD000" style="fill:#FFD000;fill:color(display-p3 1.0000 0.8157 0.0000);fill-opacity:1;"/>
</svg>
