<svg width="47" height="17" viewBox="0 0 47 17" fill="none" xmlns="http://www.w3.org/2000/svg">
<path fill-rule="evenodd" clip-rule="evenodd" d="M25.6967 2.71867C25.9859 2.56806 26.3232 2.66847 26.4678 2.9697L27.721 5.47998L28.9741 2.9697C29.1669 2.66847 29.5525 2.51785 29.8416 2.71867C30.1308 2.86929 30.2272 3.22073 30.0826 3.52196L27.3836 8.79355C27.2872 8.99437 27.0944 9.09478 26.9016 9.09478C26.8052 9.09478 26.7088 9.09478 26.6124 9.04458C26.3232 8.89396 26.2268 8.54252 26.3714 8.24129L27.1426 6.73512L25.5039 3.47176C25.3111 3.22073 25.4075 2.86929 25.6967 2.71867ZM39.8667 2.56806C40.4933 2.56806 41.1198 2.81908 41.5536 3.27093C41.7946 3.52196 41.7946 3.8734 41.5536 4.12443C41.3126 4.37546 40.927 4.37546 40.7343 4.12443C40.4933 3.8734 40.2041 3.77299 39.8667 3.77299C39.5293 3.77299 39.2401 3.92361 38.9992 4.12443C38.7582 4.37546 38.6618 4.67669 38.6618 4.97792C38.6618 5.32936 38.8064 5.6306 38.9992 5.83142C39.2401 6.08245 39.5293 6.18286 39.8667 6.18286C40.2041 6.18286 40.4933 6.03224 40.7343 5.83142C40.9752 5.58039 41.3608 5.58039 41.5536 5.83142C41.7946 6.08245 41.7946 6.43389 41.5536 6.68491C41.1198 7.13677 40.4933 7.38779 39.8667 7.38779C39.2401 7.38779 38.6136 7.13677 38.1798 6.68491C37.746 6.23306 37.4568 5.6306 37.4568 4.97792C37.4568 4.32525 37.6978 3.72278 38.1798 3.27093C38.6136 2.81908 39.1919 2.56806 39.8667 2.56806ZM44.59 2.56806C45.8914 2.56806 46.9999 3.67258 46.9999 5.02813C46.9999 6.38368 45.9396 7.4882 44.59 7.4882C43.2887 7.4882 42.1802 6.38368 42.1802 5.02813C42.1802 3.67258 43.2887 2.56806 44.59 2.56806ZM24.1062 2.61826C24.4435 2.61826 24.6845 2.86929 24.6845 3.22073V6.73512C24.6845 7.08656 24.4435 7.33759 24.1062 7.33759C23.7688 7.33759 23.5278 7.08656 23.5278 6.73512V3.22073C23.4796 2.9195 23.7688 2.61826 24.1062 2.61826ZM34.0348 2.61826C34.1794 2.61826 34.324 2.66847 34.4204 2.76888C34.6614 2.9697 34.7096 3.37135 34.5168 3.62237L32.4443 6.13265H34.083C34.4204 6.13265 34.6614 6.38368 34.6614 6.73512C34.6614 7.08656 34.4204 7.33759 34.083 7.33759H31.1912C31.0466 7.33759 30.902 7.28738 30.8056 7.18697C30.5646 6.98615 30.5164 6.5845 30.7092 6.33348L32.7817 3.8232H31.4322C31.0948 3.8232 30.8538 3.57217 30.8538 3.22073C30.8538 2.86929 31.0948 2.61826 31.4322 2.61826H34.0348V2.61826ZM36.1073 2.61826C36.4447 2.61826 36.6857 2.86929 36.6857 3.22073V6.73512C36.6857 7.08656 36.4447 7.33759 36.1073 7.33759C35.7699 7.33759 35.5289 7.08656 35.5289 6.73512V3.22073C35.5289 2.9195 35.7699 2.61826 36.1073 2.61826ZM44.59 3.77299C43.9153 3.77299 43.3851 4.32525 43.3851 5.02813C43.3851 5.73101 43.9153 6.28327 44.59 6.28327C45.2648 6.28327 45.795 5.73101 45.795 5.02813C45.8432 4.32525 45.2648 3.77299 44.59 3.77299ZM24.1062 0.710449C24.4435 0.710449 24.7809 1.01168 24.7809 1.36312C24.7809 1.71456 24.4917 2.01579 24.1062 2.01579C23.7688 2.01579 23.4314 1.71456 23.4314 1.36312C23.4314 1.01168 23.7206 0.710449 24.1062 0.710449ZM36.1073 0.710449C36.4447 0.710449 36.7821 1.01168 36.7821 1.36312C36.7821 1.71456 36.4929 2.01579 36.1073 2.01579C35.7699 2.01579 35.4325 1.71456 35.4325 1.36312C35.4325 1.01168 35.7217 0.710449 36.1073 0.710449Z" fill="#1E64FF" style="fill:#1E64FF;fill:color(display-p3 0.1176 0.3922 1.0000);fill-opacity:1;"/>
<path fill-rule="evenodd" clip-rule="evenodd" d="M32.3961 11.0025C33.4083 11.0025 34.3722 11.856 34.3722 13.1613C34.3722 14.4667 33.4083 15.2699 32.3961 15.2699C31.384 15.2699 30.42 14.4165 30.42 13.1613C30.42 11.9062 31.384 11.0025 32.3961 11.0025ZM37.3604 10.9523C37.505 10.9523 37.6496 11.1029 37.6496 11.2535V14.9185C37.6496 15.0691 37.505 15.2197 37.3604 15.2197C37.2158 15.2197 37.0713 15.0691 37.0713 14.9185V14.6173C37.0231 14.8683 36.6857 15.2699 36.1555 15.2699C35.5289 15.2699 34.7578 14.7679 34.7578 13.6634C34.7578 12.6091 35.5289 12.0568 36.1555 12.0568C36.5893 12.0568 36.9267 12.3078 37.0713 12.6091V12.358V12.3078V11.2535C37.0713 11.1029 37.2158 10.9523 37.3604 10.9523ZM23.6724 12.0568C23.817 12.0568 23.9134 12.1572 23.9134 12.3078V14.9687C23.9134 15.1193 23.817 15.2197 23.6724 15.2197C23.5278 15.2197 23.4314 15.1193 23.4314 14.9687V12.3078C23.4314 12.2074 23.576 12.0568 23.6724 12.0568ZM24.7809 10.9523C24.9255 10.9523 25.0219 11.0527 25.0219 11.2033V15.0189C25.0219 15.1695 24.9255 15.2699 24.7809 15.2699C24.6363 15.2699 24.5399 15.1695 24.5399 15.0189V11.2033C24.5399 11.0527 24.6363 10.9523 24.7809 10.9523ZM26.998 12.0568C27.6246 12.0568 28.4439 12.6091 28.4439 13.563C28.4439 13.7638 28.3475 13.8642 28.1547 13.8642H26.0341C26.0823 14.5169 26.5642 14.8683 27.0462 14.8683C27.2872 14.8683 27.5282 14.7679 27.721 14.6173C27.8174 14.5671 27.8656 14.5169 27.9138 14.5169C28.0101 14.5169 28.1065 14.6173 28.1065 14.7177C28.1065 14.7679 28.0583 14.8683 27.9619 14.9185C27.721 15.1193 27.3836 15.2197 27.0462 15.2197C26.3232 15.2197 25.5521 14.7177 25.5521 13.6634C25.5521 12.6091 26.3232 12.0568 26.998 12.0568ZM39.6739 12.0568C40.3005 12.0568 41.1198 12.6091 41.1198 13.563C41.1198 13.814 40.9752 13.9144 40.7343 13.9144H38.8064C38.8546 14.4667 39.2883 14.7679 39.7221 14.7679C39.9631 14.7679 40.1077 14.7177 40.3005 14.6173C40.3969 14.5671 40.4451 14.5169 40.5415 14.5169C40.6861 14.5169 40.7343 14.6173 40.7343 14.7679C40.7343 14.8683 40.6861 14.9185 40.5897 15.0189C40.3969 15.2197 40.0595 15.3202 39.7221 15.3202C38.9991 15.3202 38.1798 14.8181 38.1798 13.7638C38.1798 12.5588 39.0473 12.0568 39.6739 12.0568ZM36.2519 12.6091C35.8181 12.6091 35.3843 12.9605 35.3843 13.6634C35.3843 14.3662 35.8663 14.7177 36.2519 14.7177C36.6375 14.7177 37.1194 14.4165 37.1194 13.6634C37.1194 12.9103 36.6375 12.6091 36.2519 12.6091ZM32.3961 11.6049C31.7213 11.6049 31.0466 12.2074 31.0466 13.1111C31.0466 14.0148 31.6731 14.6173 32.3961 14.6173C33.1191 14.6173 33.7456 14.0148 33.7456 13.1111C33.7456 12.2074 33.1191 11.6049 32.3961 11.6049ZM26.998 12.5086C26.5642 12.5086 26.0823 12.8099 26.0341 13.4625H27.9619C27.9138 12.8099 27.4318 12.5086 26.998 12.5086ZM39.6739 12.6091C39.2883 12.6091 38.8546 12.8601 38.8064 13.4123H40.4933C40.4933 12.8601 40.0595 12.6091 39.6739 12.6091ZM23.6724 10.9021C23.817 10.9021 23.9134 11.0025 23.9134 11.1531C23.9134 11.3037 23.817 11.4041 23.6724 11.4041C23.5278 11.4041 23.4314 11.3037 23.4314 11.1531C23.4314 11.0025 23.576 10.9021 23.6724 10.9021ZM33.1191 9.89795C33.3119 9.89795 33.4565 10.0486 33.4565 10.2494C33.4565 10.4502 33.3119 10.6008 33.1191 10.6008C32.9263 10.6008 32.7817 10.4502 32.7817 10.2494C32.7817 10.0486 32.9263 9.89795 33.1191 9.89795ZM31.7213 9.89795C31.9141 9.89795 32.0587 10.0486 32.0587 10.2494C32.0587 10.4502 31.9141 10.6008 31.7213 10.6008C31.5286 10.6008 31.384 10.4502 31.384 10.2494C31.384 10.0486 31.5286 9.89795 31.7213 9.89795Z" fill="#495057" style="fill:#495057;fill:color(display-p3 0.2863 0.3137 0.3412);fill-opacity:1;"/>
<path fill-rule="evenodd" clip-rule="evenodd" d="M2.08004 0.710449C1.06789 0.710449 0.248535 1.56394 0.248535 2.61826V14.1153C0.248535 15.1697 1.06789 16.0232 2.08004 16.0232H15.8163C16.491 16.0232 17.1176 15.6215 17.455 14.9688L20.2986 9.2454C20.4432 8.99437 20.4914 8.69314 20.4914 8.3919V8.3417C20.4914 8.04047 20.4432 7.73923 20.2986 7.4882L17.455 1.76477C17.1176 1.11209 16.491 0.710449 15.8163 0.710449H2.08004Z" fill="url(#paint0_linear_676_2609)" style=""/>
<defs>
<linearGradient id="paint0_linear_676_2609" x1="18.5159" y1="8.35908" x2="0.241261" y2="8.35908" gradientUnits="userSpaceOnUse">
<stop stop-color="#1E64FF" style="stop-color:#1E64FF;stop-color:color(display-p3 0.1176 0.3922 1.0000);stop-opacity:1;"/>
<stop offset="1" stop-color="#1E64FF" stop-opacity="0" style="stop-color:none;stop-opacity:0;"/>
</linearGradient>
</defs>
</svg>
