<svg width="24" height="20" viewBox="0 0 24 20" fill="none" xmlns="http://www.w3.org/2000/svg">
<path d="M4.36917 19.1667V17.8847C4.36917 17.3718 4.06148 17.0513 3.56917 17.0513C3.32302 17.0513 3.07687 17.1154 2.89225 17.4359C2.76917 17.1795 2.52302 17.0513 2.21533 17.0513C2.03071 17.0513 1.78456 17.1154 1.66148 17.3718V17.1154H1.23071V19.1667H1.66148V18.0129C1.66148 17.6282 1.8461 17.5 2.15379 17.5C2.46148 17.5 2.58456 17.6923 2.58456 18.0129V19.1667H3.01533V18.0129C3.01533 17.6282 3.19994 17.5 3.50764 17.5C3.81533 17.5 3.9384 17.6923 3.9384 18.0129V19.1667H4.36917ZM10.7692 17.1154H10.0922V16.4744H9.66148V17.1154H9.23071V17.5H9.59994V18.4616C9.59994 18.9103 9.78456 19.2308 10.2769 19.2308C10.4615 19.2308 10.6461 19.1667 10.8307 19.1026L10.7076 18.718C10.5846 18.7821 10.4615 18.8462 10.3384 18.8462C10.1538 18.8462 10.0307 18.718 10.0307 18.5257V17.6282H10.7076V17.1154H10.7692ZM14.3999 17.0513C14.1538 17.0513 13.9692 17.1795 13.9076 17.3718V17.1154H13.4769V19.1667H13.9076V18.0129C13.9076 17.6923 14.0307 17.5 14.3384 17.5C14.3999 17.5 14.523 17.5 14.5846 17.5641L14.7076 17.1154C14.6461 17.0513 14.523 17.0513 14.3999 17.0513ZM8.86148 17.2436C8.67686 17.1154 8.36917 17.0513 8.06148 17.0513C7.56917 17.0513 7.26148 17.3077 7.26148 17.6923C7.26148 18.0129 7.50763 18.2052 7.9384 18.2693H8.12302C8.36917 18.3334 8.49225 18.3975 8.49225 18.4616C8.49225 18.5898 8.30763 18.718 8.06148 18.718C7.75379 18.718 7.56917 18.5898 7.38456 18.5257L7.19994 18.8462C7.4461 19.0385 7.75379 19.1026 8.06148 19.1026C8.61533 19.1026 8.98456 18.8462 8.98456 18.4616C8.98456 18.077 8.7384 17.8847 8.30763 17.8205H8.12302C7.9384 17.8205 7.81533 17.7564 7.81533 17.6282C7.81533 17.5 7.9384 17.3718 8.18456 17.3718C8.43071 17.3718 8.67686 17.5 8.79994 17.5641L8.86148 17.2436ZM20.3692 17.0513C20.123 17.0513 19.9384 17.1795 19.8769 17.3718V17.1154H19.4461V19.1667H19.8769V18.0129C19.8769 17.6923 19.9999 17.5 20.3076 17.5C20.3692 17.5 20.4922 17.5 20.5538 17.5641L20.6769 17.1154C20.5538 17.0513 20.4307 17.0513 20.3692 17.0513ZM14.8307 18.1411C14.8307 18.7821 15.2615 19.2308 15.8769 19.2308C16.1846 19.2308 16.3692 19.1667 16.5538 18.9744L16.4307 18.5898C16.2461 18.718 16.123 18.7821 15.9384 18.7821C15.5692 18.7821 15.323 18.5257 15.323 18.1411C15.323 17.7564 15.5692 17.5 15.9384 17.5C16.123 17.5 16.3076 17.5641 16.4307 17.6923L16.6153 17.3077C16.4307 17.1154 16.1846 17.0513 15.9384 17.0513C15.2615 17.0513 14.8307 17.5 14.8307 18.1411ZM18.8307 18.1411V17.1154H18.3999V17.3718C18.2769 17.1795 18.0307 17.0513 17.7846 17.0513C17.2307 17.0513 16.7999 17.5 16.7999 18.1411C16.7999 18.7821 17.2307 19.2308 17.7846 19.2308C18.0922 19.2308 18.2769 19.1026 18.3999 18.9103V19.1667H18.8307V18.1411V18.1411ZM17.2922 18.1411C17.2922 17.7564 17.5384 17.5 17.9076 17.5C18.2769 17.5 18.523 17.7564 18.523 18.1411C18.523 18.5257 18.2769 18.7821 17.9076 18.7821C17.4769 18.7821 17.2922 18.4616 17.2922 18.1411ZM12.123 17.0513C11.5692 17.0513 11.1384 17.5 11.1384 18.1411C11.1384 18.7821 11.5692 19.2308 12.123 19.2308C12.4307 19.2308 12.6769 19.1667 12.923 18.9744L12.7384 18.5898C12.5538 18.718 12.3692 18.7821 12.1846 18.7821C11.9384 18.7821 11.6307 18.6539 11.5692 18.2693H13.0461V18.077C13.0461 17.5 12.6769 17.0513 12.123 17.0513ZM12.123 17.4359C12.3692 17.4359 12.5538 17.6282 12.6153 17.9488H11.5692C11.6307 17.6282 11.8153 17.4359 12.123 17.4359ZM22.8307 18.1411V16.3462H22.3999V17.4359C22.2769 17.2436 22.0307 17.1154 21.7846 17.1154C21.2307 17.1154 20.7999 17.5641 20.7999 18.2052C20.7999 18.8462 21.2307 19.2949 21.7846 19.2949C22.0922 19.2949 22.2769 19.1667 22.3999 18.9744V19.2308H22.8307V18.1411ZM21.2307 18.1411C21.2307 17.7564 21.4769 17.5 21.8461 17.5C22.2153 17.5 22.4615 17.7564 22.4615 18.1411C22.4615 18.5257 22.2153 18.7821 21.8461 18.7821C21.4769 18.7821 21.2307 18.4616 21.2307 18.1411ZM6.76917 18.1411V17.1154H6.3384V17.3718C6.21533 17.1795 5.96917 17.0513 5.72302 17.0513C5.16917 17.0513 4.7384 17.5 4.7384 18.1411C4.7384 18.7821 5.16917 19.2308 5.72302 19.2308C6.03071 19.2308 6.21533 19.1026 6.3384 18.9103V19.1667H6.76917V18.1411ZM5.16917 18.1411C5.16917 17.7564 5.41533 17.5 5.78456 17.5C6.15379 17.5 6.39994 17.7564 6.39994 18.1411C6.39994 18.5257 6.15379 18.7821 5.78456 18.7821C5.41533 18.7821 5.16917 18.4616 5.16917 18.1411Z" fill="black" style="fill:black;fill-opacity:1;"/>
<path d="M15.2001 1.60254H8.73853V13.5897H15.2001V1.60254Z" fill="#FF5F00" style="fill:#FF5F00;fill:color(display-p3 1.0000 0.3725 0.0000);fill-opacity:1;"/>
<path fill-rule="evenodd" clip-rule="evenodd" d="M9.16924 7.6282C9.16924 5.19231 10.2769 3.01282 12 1.60256C10.7077 0.641026 9.1077 0 7.38462 0C3.32308 0 0 3.39744 0 7.6282C0 11.859 3.32308 15.2564 7.38462 15.2564C9.1077 15.2564 10.7077 14.6154 11.9385 13.6538C10.2769 12.2436 9.16924 10.0641 9.16924 7.6282Z" fill="#EB001B" style="fill:#EB001B;fill:color(display-p3 0.9216 0.0000 0.1059);fill-opacity:1;"/>
<path fill-rule="evenodd" clip-rule="evenodd" d="M24 7.6282C24 11.859 20.6769 15.2564 16.6154 15.2564C14.8923 15.2564 13.2923 14.6154 12.0615 13.6538C13.7846 12.2436 14.8923 10.0641 14.8923 7.6282C14.8923 5.19231 13.7846 3.01282 12.0615 1.60256C13.2308 0.641026 14.8308 0 16.5538 0C20.6769 0 24 3.46154 24 7.6282Z" fill="#F79E1B" style="fill:#F79E1B;fill:color(display-p3 0.9686 0.6196 0.1059);fill-opacity:1;"/>
</svg>
