<svg width="68" height="12" viewBox="0 0 68 12" fill="none" xmlns="http://www.w3.org/2000/svg">
<g clip-path="url(#clip0_1037_3650)">
<path fill-rule="evenodd" clip-rule="evenodd" d="M11.4881 6.49145H8.41387C8.01127 6.49145 7.64527 6.78425 7.55377 7.1868L6.84012 10.4257C6.71202 10.9747 7.24272 11.5054 7.79167 11.5054H17.0145C17.7831 11.5054 18.4601 10.9381 18.5699 10.1696L19.3202 5.57645L19.9058 1.97152C20.0705 1.00166 19.3202 0.141602 18.3503 0.141602H9.47522C9.03602 0.141602 8.67002 0.452689 8.59682 0.873569L8.52362 1.36765C8.43217 1.89832 8.85302 2.3924 9.40202 2.3924H11.9273C12.9887 2.3924 13.7938 3.36226 13.5925 4.38702L13.4827 5.2654C13.3363 6.07055 12.7325 6.50975 11.909 6.50975" fill="#177FC3" style="fill:#177FC3;fill:color(display-p3 0.0902 0.4980 0.7647);fill-opacity:1;"/>
<path fill-rule="evenodd" clip-rule="evenodd" d="M4.47907 9.63916H2.94194C2.57595 9.63916 2.24656 9.85876 2.15507 10.1516L2.00867 10.6456C1.88058 11.0665 2.26486 11.4874 2.79554 11.4874H4.33268C4.69866 11.4874 5.02803 11.2678 5.11953 10.975L5.26593 10.4809C5.39403 10.0418 5.00973 9.63916 4.47907 9.63916Z" fill="#177FC3" style="fill:#177FC3;fill:color(display-p3 0.0902 0.4980 0.7647);fill-opacity:1;"/>
<path fill-rule="evenodd" clip-rule="evenodd" d="M5.0648 6.50977H1.24028C0.87429 6.50977 0.5449 6.76592 0.453406 7.11362L0.307012 7.68092C0.178917 8.17497 0.5632 8.65077 1.09388 8.65077H4.91842C5.2844 8.65077 5.6138 8.39457 5.7053 8.04687L5.8517 7.47962C5.9798 7.00382 5.5955 6.50977 5.0648 6.50977Z" fill="#177FC3" style="fill:#177FC3;fill:color(display-p3 0.0902 0.4980 0.7647);fill-opacity:1;"/>
<path fill-rule="evenodd" clip-rule="evenodd" d="M3.03373 2.3187H5.97993C6.34588 2.3187 6.67528 2.06251 6.76678 1.69653L6.91318 1.11095C7.04128 0.598571 6.65698 0.104492 6.12628 0.104492H3.18012C2.81414 0.104492 2.48475 0.36068 2.39326 0.726666L2.24686 1.31224C2.13707 1.82462 2.52135 2.3187 3.03373 2.3187Z" fill="#177FC3" style="fill:#177FC3;fill:color(display-p3 0.0902 0.4980 0.7647);fill-opacity:1;"/>
<path fill-rule="evenodd" clip-rule="evenodd" d="M3.38114 3.96592L3.23475 4.5515C3.10665 5.06389 3.49094 5.55794 4.02162 5.55794H9.78586C10.1519 5.55794 10.4813 5.30179 10.5728 4.93578L10.7192 4.3502C10.8473 3.83783 10.463 3.34375 9.93226 3.34375H4.16801C3.80203 3.34375 3.47264 3.59994 3.38114 3.96592Z" fill="#177FC3" style="fill:#177FC3;fill:color(display-p3 0.0902 0.4980 0.7647);fill-opacity:1;"/>
<path d="M23.2358 0.0498047H27.1336C29.8602 0.0498047 31.4339 1.45884 31.4339 3.83774C31.4339 6.27155 29.8419 7.6623 27.1336 7.6623H25.6879V11.432H23.2358V0.0498047ZM27.0787 5.66765C28.2315 5.66765 28.9269 5.0089 28.9269 3.87435C28.9269 2.73979 28.2315 2.08102 27.0787 2.08102H25.6696V5.68595H27.0787V5.66765Z" fill="#177FC3" style="fill:#177FC3;fill:color(display-p3 0.0902 0.4980 0.7647);fill-opacity:1;"/>
<path d="M37.8389 8.99815H33.3922L32.6053 11.432H30.0435L34.1059 0.0498047H37.3265L41.389 11.432H38.6441L37.8389 8.99815ZM37.2351 7.1865L35.6613 2.37381H35.5332L33.9595 7.1865H37.2351Z" fill="#177FC3" style="fill:#177FC3;fill:color(display-p3 0.0902 0.4980 0.7647);fill-opacity:1;"/>
<path d="M42.6147 7.13185L38.5889 0.0683594H41.3338L43.8042 4.82616H43.9506L46.4759 0.0683594H49.0561L45.0485 7.13185V11.4505H42.6147V7.13185Z" fill="#177FC3" style="fill:#177FC3;fill:color(display-p3 0.0902 0.4980 0.7647);fill-opacity:1;"/>
<path d="M52.0208 2.08127H48.8369L49.9715 0.0683594H57.6573V2.08127H54.4548V11.4505H52.0208V2.08127Z" fill="#454D50" style="fill:#454D50;fill:color(display-p3 0.2706 0.3020 0.3137);fill-opacity:1;"/>
<path d="M64.6104 11.4505L62.4144 7.68085H62.3414H60.8959V11.4505H58.4619V0.0683594H62.3599C65.0864 0.0683594 66.6599 1.4774 66.6599 3.8563C66.6599 5.5398 65.9099 6.7293 64.5189 7.29655L67.2824 11.4505H64.6104ZM60.8959 5.6679H62.3049C63.4574 5.6679 64.1529 4.99085 64.1529 3.8563C64.1529 2.74004 63.4574 2.08127 62.3049 2.08127H60.8959V5.6679Z" fill="#454D50" style="fill:#454D50;fill:color(display-p3 0.2706 0.3020 0.3137);fill-opacity:1;"/>
</g>
<defs>
<clipPath id="clip0_1037_3650">
<rect width="67.5" height="12" fill="white" style="fill:white;fill-opacity:1;"/>
</clipPath>
</defs>
</svg>
