<svg width="395" height="297" viewBox="0 0 395 297" fill="none" xmlns="http://www.w3.org/2000/svg">
<path d="M256.065 127.187C252.532 115.432 241.599 106.844 228.686 106.844H89.3244C73.5183 106.844 60.7273 119.635 60.7273 135.441V198.878H99.1613V164.738C99.1613 160.688 102.45 157.429 106.47 157.429H213.215C217.265 157.429 220.524 160.718 220.524 164.738V198.878H256.065V127.187Z" fill="#FFD000" style="fill:#FFD000;fill:color(display-p3 1.0000 0.8157 0.0000);fill-opacity:1;"/>
<path d="M352.241 200.34C352.241 205.547 343.775 209.598 342.496 214.41C341.156 219.374 346.455 227.109 343.927 231.464C341.369 235.88 332.019 235.15 328.425 238.743C324.832 242.337 325.563 251.686 321.147 254.245C316.792 256.772 309.056 251.473 304.092 252.813C299.28 254.092 295.26 262.559 290.022 262.559C284.814 262.559 280.764 254.092 275.952 252.813C270.988 251.473 263.252 256.772 258.897 254.245C254.481 251.686 255.212 242.337 251.618 238.743C248.025 235.15 238.675 235.88 236.117 231.464C233.589 227.109 238.888 219.374 237.548 214.41C236.269 209.598 227.803 205.578 227.803 200.34C227.803 195.132 236.269 191.081 237.548 186.269C238.888 181.305 233.589 173.57 236.117 169.215C238.675 164.799 248.025 165.53 251.618 161.936C255.212 158.342 254.481 148.993 258.897 146.435C263.252 143.907 270.988 149.206 275.952 147.866C280.764 146.587 284.784 138.12 290.022 138.12C295.23 138.12 299.28 146.587 304.092 147.866C309.056 149.206 316.792 143.907 321.147 146.435C325.563 148.993 324.832 158.342 328.425 161.936C332.019 165.53 341.369 164.799 343.927 169.215C346.455 173.57 341.156 181.305 342.496 186.269C343.775 191.081 352.241 195.132 352.241 200.34Z" fill="white" style="fill:white;fill-opacity:1;"/>
<path d="M290.022 263.625C286.702 263.625 284.022 260.884 281.434 258.265C279.545 256.346 277.596 254.367 275.678 253.849C273.668 253.301 270.896 254.062 268.216 254.793C264.714 255.737 261.09 256.742 258.349 255.158C255.547 253.544 254.603 249.89 253.689 246.327C252.989 243.677 252.288 240.906 250.857 239.474C249.426 238.043 246.685 237.312 244.005 236.642C240.472 235.728 236.787 234.754 235.173 231.982C233.589 229.241 234.594 225.617 235.538 222.115C236.269 219.435 237.031 216.664 236.482 214.654C235.965 212.765 233.985 210.816 232.066 208.898C229.417 206.309 226.706 203.598 226.706 200.309C226.706 196.99 229.447 194.31 232.066 191.721C233.985 189.833 235.965 187.884 236.482 185.965C237.031 183.955 236.269 181.184 235.538 178.504C234.594 175.001 233.589 171.377 235.173 168.636C236.787 165.834 240.441 164.89 244.005 163.977C246.654 163.276 249.426 162.576 250.857 161.144C252.288 159.713 253.019 156.972 253.689 154.292C254.603 150.759 255.578 147.074 258.349 145.46C261.09 143.876 264.714 144.881 268.216 145.826C270.896 146.556 273.668 147.318 275.678 146.77C277.566 146.252 279.515 144.272 281.434 142.354C284.022 139.704 286.733 136.994 290.022 136.994C293.342 136.994 296.022 139.735 298.61 142.354C300.498 144.272 302.448 146.252 304.366 146.77C306.376 147.318 309.148 146.556 311.828 145.826C315.33 144.881 318.954 143.876 321.695 145.46C324.497 147.074 325.441 150.729 326.355 154.292C327.055 156.942 327.755 159.713 329.187 161.144C330.618 162.576 333.359 163.307 336.039 163.977C339.572 164.89 343.257 165.865 344.871 168.636C346.455 171.377 345.45 175.001 344.506 178.504C343.775 181.184 343.013 183.955 343.562 185.965C344.079 187.853 346.059 189.802 347.978 191.721C350.627 194.31 353.338 197.02 353.338 200.309C353.338 203.629 350.597 206.309 347.978 208.898C346.059 210.786 344.079 212.735 343.562 214.654C343.013 216.664 343.775 219.435 344.506 222.115C345.45 225.617 346.455 229.241 344.871 231.982C343.257 234.784 339.602 235.728 336.039 236.642C333.39 237.342 330.618 238.043 329.187 239.474C327.755 240.906 327.025 243.647 326.355 246.327C325.441 249.859 324.466 253.544 321.695 255.158C318.954 256.742 315.33 255.737 311.828 254.793C309.148 254.062 306.376 253.301 304.366 253.849C302.478 254.367 300.529 256.346 298.61 258.265C296.022 260.884 293.342 263.625 290.022 263.625ZM274.155 251.504C274.886 251.504 275.586 251.565 276.256 251.748C278.723 252.418 280.885 254.61 282.956 256.742C285.241 259.057 287.616 261.493 290.022 261.493C292.428 261.493 294.803 259.087 297.087 256.742C299.189 254.61 301.351 252.418 303.788 251.748C306.346 251.047 309.422 251.9 312.345 252.692C315.421 253.544 318.589 254.397 320.568 253.27C322.578 252.113 323.431 248.885 324.223 245.748C324.984 242.824 325.776 239.779 327.603 237.951C329.461 236.094 332.476 235.332 335.4 234.571C338.506 233.749 341.734 232.926 342.922 230.916C344.049 228.937 343.196 225.77 342.343 222.694C341.521 219.739 340.699 216.694 341.399 214.136C342.069 211.669 344.262 209.507 346.394 207.436C348.708 205.152 351.145 202.776 351.145 200.37C351.145 197.964 348.739 195.589 346.394 193.305C344.262 191.203 342.069 189.041 341.399 186.605C340.699 184.046 341.552 180.97 342.343 178.047C343.196 174.971 344.049 171.804 342.922 169.824C341.765 167.814 338.537 166.961 335.4 166.169C332.476 165.408 329.431 164.616 327.603 162.789C325.745 160.931 324.984 157.916 324.223 154.992C323.4 151.886 322.578 148.658 320.568 147.47C318.589 146.343 315.421 147.196 312.345 148.049C309.391 148.871 306.346 149.693 303.788 148.993C301.321 148.323 299.158 146.13 297.087 143.998C294.803 141.684 292.428 139.247 290.022 139.247C287.616 139.247 285.241 141.653 282.956 143.998C280.855 146.13 278.693 148.323 276.256 148.993C273.698 149.693 270.622 148.841 267.699 148.049C264.623 147.196 261.455 146.343 259.476 147.47C257.466 148.627 256.613 151.856 255.821 154.992C255.06 157.916 254.268 160.962 252.441 162.789C250.613 164.616 247.568 165.408 244.644 166.169C241.538 166.992 238.31 167.814 237.122 169.824C235.995 171.804 236.848 174.971 237.701 178.047C238.523 181.001 239.345 184.046 238.645 186.605C237.975 189.071 235.782 191.234 233.65 193.305C231.335 195.589 228.899 197.964 228.899 200.37C228.899 202.776 231.305 205.152 233.65 207.436C235.782 209.537 237.975 211.699 238.645 214.136C239.345 216.694 238.492 219.77 237.701 222.694C236.848 225.77 235.995 228.937 237.122 230.916C238.279 232.926 241.507 233.779 244.644 234.571C247.568 235.332 250.613 236.124 252.441 237.951C254.298 239.809 255.06 242.824 255.821 245.748C256.643 248.854 257.466 252.083 259.476 253.27C261.455 254.397 264.623 253.544 267.699 252.692C269.861 252.113 272.114 251.504 274.155 251.504Z" fill="black" style="fill:black;fill-opacity:1;"/>
<path d="M290.022 242.824C313.486 242.824 332.507 223.803 332.507 200.34C332.507 176.876 313.486 157.855 290.022 157.855C266.559 157.855 247.538 176.876 247.538 200.34C247.538 223.803 266.559 242.824 290.022 242.824Z" fill="#FFD000" style="fill:#FFD000;fill:color(display-p3 1.0000 0.8157 0.0000);fill-opacity:1;"/>
<path d="M48.2408 131.786C46.5658 131.786 44.8604 131.146 43.5813 129.867C41.023 127.309 41.023 123.106 43.5813 120.548C46.1395 117.99 50.3422 117.99 52.9004 120.548C55.4586 123.106 55.4586 127.309 52.9004 129.867C51.6213 131.146 49.9463 131.786 48.2408 131.786ZM48.2408 120.761C47.114 120.761 45.9567 121.188 45.0735 122.071C43.3376 123.807 43.3376 126.639 45.0735 128.375C46.8095 130.111 49.6418 130.111 51.3777 128.375C53.1136 126.639 53.1136 123.807 51.3777 122.071C50.525 121.188 49.3981 120.761 48.2408 120.761Z" fill="black" style="fill:black;fill-opacity:1;"/>
<path d="M239.132 100.113C237.366 100.113 235.721 99.4126 234.472 98.1944C231.914 95.6362 231.914 91.4334 234.472 88.8752C237.031 86.317 241.233 86.317 243.792 88.8752C245.04 90.1238 245.71 91.7684 245.71 93.5348C245.71 95.3012 245.01 96.9457 243.792 98.1944C242.543 99.4126 240.898 100.113 239.132 100.113ZM239.132 89.0579C238.005 89.0579 236.848 89.4843 235.965 90.3675C234.229 92.1034 234.229 94.9357 235.965 96.6716C236.817 97.5244 237.914 97.9812 239.132 97.9812C240.32 97.9812 241.447 97.5244 242.299 96.6716C243.152 95.8189 243.609 94.7225 243.609 93.5043C243.609 92.2861 243.152 91.1898 242.299 90.337C241.416 89.4843 240.289 89.0579 239.132 89.0579Z" fill="#FFD000" style="fill:#FFD000;fill:color(display-p3 1.0000 0.8157 0.0000);fill-opacity:1;"/>
<path d="M333.085 131.816C331.319 131.816 329.674 131.116 328.425 129.898C325.867 127.34 325.867 123.137 328.425 120.579C329.674 119.33 331.319 118.66 333.085 118.66C334.851 118.66 336.496 119.36 337.745 120.579C338.993 121.827 339.663 123.472 339.663 125.238C339.663 127.005 338.963 128.649 337.745 129.898C336.496 131.116 334.851 131.816 333.085 131.816ZM333.085 120.761C331.897 120.761 330.771 121.218 329.918 122.071C328.182 123.807 328.182 126.639 329.918 128.375C330.771 129.228 331.867 129.685 333.085 129.685C334.273 129.685 335.4 129.228 336.252 128.375C337.105 127.522 337.562 126.426 337.562 125.208C337.562 123.99 337.105 122.893 336.252 122.04C335.4 121.218 334.273 120.761 333.085 120.761Z" fill="#FFD000" style="fill:#FFD000;fill:color(display-p3 1.0000 0.8157 0.0000);fill-opacity:1;"/>
<path d="M165.34 45.7815C163.573 45.7815 161.929 45.081 160.68 43.8628C158.122 41.3046 158.122 37.1019 160.68 34.5437C161.929 33.295 163.573 32.625 165.34 32.625C167.106 32.625 168.751 33.3255 169.999 34.5437C172.558 37.1019 172.558 41.3046 169.999 43.8628C168.781 45.081 167.106 45.7815 165.34 45.7815ZM165.34 34.7264C164.152 34.7264 163.025 35.1832 162.172 36.0359C160.436 37.7719 160.436 40.6042 162.172 42.3401C163.025 43.1928 164.122 43.6497 165.34 43.6497C166.558 43.6497 167.654 43.1928 168.507 42.3401C170.243 40.6042 170.243 37.7719 168.507 36.0359C167.654 35.1832 166.558 34.7264 165.34 34.7264Z" fill="black" style="fill:black;fill-opacity:1;"/>
<path d="M86.5834 229.424C84.9084 229.424 83.2029 228.785 81.9238 227.506C79.3656 224.947 79.3656 220.745 81.9238 218.186C83.1724 216.938 84.817 216.268 86.5834 216.268C88.3498 216.268 89.9943 216.968 91.243 218.186C93.8012 220.745 93.8012 224.947 91.243 227.506C89.9639 228.785 88.2584 229.424 86.5834 229.424ZM86.5834 218.369C85.3956 218.369 84.2688 218.826 83.4161 219.679C81.6801 221.415 81.6801 224.247 83.4161 225.983C85.152 227.719 87.9843 227.719 89.7202 225.983C91.4562 224.247 91.4562 221.415 89.7202 219.679C88.8979 218.826 87.7711 218.369 86.5834 218.369Z" fill="#FFD000" style="fill:#FFD000;fill:color(display-p3 1.0000 0.8157 0.0000);fill-opacity:1;"/>
<path d="M82.4722 100.113C81.8935 100.113 81.4062 99.6257 81.4062 99.047V83.9414C81.4062 83.3628 81.8935 82.8755 82.4722 82.8755C83.0508 82.8755 83.5381 83.3628 83.5381 83.9414V99.047C83.5381 99.6257 83.0813 100.113 82.4722 100.113Z" fill="#FFD000" style="fill:#FFD000;fill:color(display-p3 1.0000 0.8157 0.0000);fill-opacity:1;"/>
<path d="M90.025 92.5603H74.9194C74.3408 92.5603 73.8535 92.073 73.8535 91.4944C73.8535 90.9157 74.3408 90.4285 74.9194 90.4285H90.025C90.6037 90.4285 91.091 90.9157 91.091 91.4944C91.091 92.073 90.6037 92.5603 90.025 92.5603Z" fill="#FFD000" style="fill:#FFD000;fill:color(display-p3 1.0000 0.8157 0.0000);fill-opacity:1;"/>
<path d="M330.619 67.3436C330.04 67.3436 329.553 66.8564 329.553 66.2777V51.1721C329.553 50.5935 330.04 50.1062 330.619 50.1062C331.198 50.1062 331.685 50.5935 331.685 51.1721V66.2777C331.685 66.8564 331.198 67.3436 330.619 67.3436Z" fill="#FFD000" style="fill:#FFD000;fill:color(display-p3 1.0000 0.8157 0.0000);fill-opacity:1;"/>
<path d="M338.141 59.791H323.066C322.487 59.791 322 59.3037 322 58.7251C322 58.1465 322.487 57.6592 323.066 57.6592H338.171C338.75 57.6592 339.237 58.1465 339.237 58.7251C339.237 59.3037 338.75 59.791 338.141 59.791Z" fill="#FFD000" style="fill:#FFD000;fill:color(display-p3 1.0000 0.8157 0.0000);fill-opacity:1;"/>
<path d="M181.176 262.316C180.597 262.316 180.11 261.828 180.11 261.25V246.144C180.11 245.565 180.597 245.078 181.176 245.078C181.755 245.078 182.242 245.565 182.242 246.144V261.25C182.242 261.828 181.785 262.316 181.176 262.316Z" fill="black" style="fill:black;fill-opacity:1;"/>
<path d="M188.729 254.763H173.624C173.045 254.763 172.558 254.276 172.558 253.697C172.558 253.118 173.045 252.631 173.624 252.631H188.729C189.308 252.631 189.795 253.118 189.795 253.697C189.795 254.276 189.308 254.763 188.729 254.763Z" fill="black" style="fill:black;fill-opacity:1;"/>
<path d="M292.763 92.5602C292.185 92.5602 291.697 92.0729 291.697 91.4943V76.3887C291.697 75.81 292.185 75.3228 292.763 75.3228C293.342 75.3228 293.829 75.81 293.829 76.3887V91.4943C293.829 92.0729 293.372 92.5602 292.763 92.5602Z" fill="black" style="fill:black;fill-opacity:1;"/>
<path d="M300.316 85.0073H285.21C284.632 85.0073 284.144 84.5201 284.144 83.9414C284.144 83.3628 284.632 82.8755 285.21 82.8755H300.316C300.894 82.8755 301.382 83.3628 301.382 83.9414C301.382 84.5201 300.894 85.0073 300.316 85.0073Z" fill="black" style="fill:black;fill-opacity:1;"/>
<path d="M53.7834 56.8669C53.2048 56.8669 52.7175 56.3796 52.7175 55.801V40.7258C52.7175 40.1472 53.2048 39.6599 53.7834 39.6599C54.3621 39.6599 54.8494 40.1472 54.8494 40.7258V55.8314C54.8494 56.3796 54.3621 56.8669 53.7834 56.8669Z" fill="black" style="fill:black;fill-opacity:1;"/>
<path d="M61.3059 49.314H46.2307C45.6521 49.314 45.1648 48.8267 45.1648 48.248C45.1648 47.6694 45.6521 47.1821 46.2307 47.1821H61.3363C61.915 47.1821 62.4022 47.6694 62.4022 48.248C62.4022 48.8267 61.915 49.314 61.3059 49.314Z" fill="black" style="fill:black;fill-opacity:1;"/>
<path d="M53.7834 246.357C53.2048 246.357 52.7175 245.87 52.7175 245.291V230.186C52.7175 229.607 53.2048 229.12 53.7834 229.12C54.3621 229.12 54.8494 229.607 54.8494 230.186V245.291C54.8494 245.9 54.3621 246.357 53.7834 246.357Z" fill="black" style="fill:black;fill-opacity:1;"/>
<path d="M61.3059 238.804H46.2307C45.6521 238.804 45.1648 238.317 45.1648 237.738C45.1648 237.16 45.6521 236.672 46.2307 236.672H61.3363C61.915 236.672 62.4022 237.16 62.4022 237.738C62.4022 238.317 61.915 238.804 61.3059 238.804Z" fill="black" style="fill:black;fill-opacity:1;"/>
<path d="M106.471 199.944H43.3989C42.8203 199.944 42.333 199.457 42.333 198.878C42.333 198.3 42.8203 197.812 43.3989 197.812H106.501C107.08 197.812 107.567 198.3 107.567 198.878C107.567 199.457 107.08 199.944 106.471 199.944Z" fill="black" style="fill:black;fill-opacity:1;"/>
<path d="M209.652 107.909C209.073 107.909 208.586 107.422 208.586 106.844V59.7908H111.13V106.844C111.13 107.422 110.643 107.909 110.064 107.909C109.486 107.909 108.999 107.422 108.999 106.844V58.7249C108.999 58.1462 109.486 57.6589 110.064 57.6589H209.652C210.23 57.6589 210.718 58.1462 210.718 58.7249V106.844C210.718 107.453 210.23 107.909 209.652 107.909Z" fill="black" style="fill:black;fill-opacity:1;"/>
<path d="M156.63 174.545H122.429C121.85 174.545 121.363 174.057 121.363 173.479C121.363 172.9 121.85 172.413 122.429 172.413H156.63C157.208 172.413 157.696 172.9 157.696 173.479C157.696 174.057 157.208 174.545 156.63 174.545Z" fill="black" style="fill:black;fill-opacity:1;"/>
<path d="M192.536 174.545H170.334C169.756 174.545 169.268 174.057 169.268 173.479C169.268 172.9 169.756 172.413 170.334 172.413H192.536C193.114 172.413 193.602 172.9 193.602 173.479C193.602 174.057 193.114 174.545 192.536 174.545Z" fill="black" style="fill:black;fill-opacity:1;"/>
<path d="M134.611 185.295H122.429C121.85 185.295 121.363 184.808 121.363 184.229C121.363 183.651 121.85 183.163 122.429 183.163H134.611C135.19 183.163 135.677 183.651 135.677 184.229C135.677 184.808 135.22 185.295 134.611 185.295Z" fill="black" style="fill:black;fill-opacity:1;"/>
<path d="M171.217 185.295H147.25C146.671 185.295 146.184 184.808 146.184 184.229C146.184 183.651 146.671 183.163 147.25 183.163H171.217C171.796 183.163 172.283 183.651 172.283 184.229C172.283 184.808 171.796 185.295 171.217 185.295Z" fill="black" style="fill:black;fill-opacity:1;"/>
<path d="M196.038 185.295H181.42C180.841 185.295 180.354 184.808 180.354 184.229C180.354 183.651 180.841 183.163 181.42 183.163H196.038C196.617 183.163 197.104 183.651 197.104 184.229C197.104 184.808 196.617 185.295 196.038 185.295Z" fill="black" style="fill:black;fill-opacity:1;"/>
<path d="M155.168 200.553H128.032C127.454 200.553 126.967 200.066 126.967 199.487C126.967 198.908 127.454 198.421 128.032 198.421H155.168C155.746 198.421 156.234 198.908 156.234 199.487C156.234 200.066 155.746 200.553 155.168 200.553Z" fill="black" style="fill:black;fill-opacity:1;"/>
<path d="M190.435 200.553H164.974C164.396 200.553 163.908 200.066 163.908 199.487C163.908 198.908 164.396 198.421 164.974 198.421H190.435C191.013 198.421 191.501 198.908 191.501 199.487C191.501 200.066 191.044 200.553 190.435 200.553Z" fill="black" style="fill:black;fill-opacity:1;"/>
<path d="M209.652 235.15H110.064C109.486 235.15 108.999 234.662 108.999 234.084V157.398C108.999 156.82 109.486 156.333 110.064 156.333H209.652C210.23 156.333 210.718 156.82 210.718 157.398V234.084C210.718 234.662 210.23 235.15 209.652 235.15ZM111.13 233.018H208.586V158.464H111.13V233.018V233.018Z" fill="black" style="fill:black;fill-opacity:1;"/>
<path d="M106.166 157.398H110.033V198.878H99.1306V164.434C99.1611 160.535 102.298 157.398 106.166 157.398Z" fill="black" style="fill:black;fill-opacity:1;"/>
<path d="M110.064 199.944H99.1611C98.5825 199.944 98.0952 199.457 98.0952 198.878V164.434C98.0952 159.987 101.719 156.333 106.196 156.333H110.064C110.643 156.333 111.13 156.82 111.13 157.398V198.878C111.13 199.487 110.643 199.944 110.064 199.944ZM100.227 197.812H108.998V158.464H106.196C102.907 158.464 100.227 161.144 100.227 164.434V197.812V197.812Z" fill="black" style="fill:black;fill-opacity:1;"/>
<path d="M209.651 157.398H213.519C217.387 157.398 220.554 160.535 220.554 164.434V198.878H209.651V157.398V157.398Z" fill="black" style="fill:black;fill-opacity:1;"/>
<path d="M220.554 199.944H209.652C209.073 199.944 208.586 199.457 208.586 198.878V157.398C208.586 156.82 209.073 156.333 209.652 156.333H213.519C217.966 156.333 221.62 159.957 221.62 164.434V198.878C221.62 199.487 221.133 199.944 220.554 199.944ZM210.718 197.812H219.489V164.434C219.489 161.144 216.809 158.464 213.519 158.464H210.718V197.812V197.812Z" fill="black" style="fill:black;fill-opacity:1;"/>
<path d="M208.799 157.398H110.064V163.52H208.799V157.398Z" fill="black" style="fill:black;fill-opacity:1;"/>
<path d="M208.769 164.586H110.064C109.486 164.586 108.999 164.099 108.999 163.52V157.398C108.999 156.82 109.486 156.333 110.064 156.333H208.799C209.378 156.333 209.865 156.82 209.865 157.398V163.52C209.834 164.129 209.378 164.586 208.769 164.586ZM111.13 162.454H207.733V158.464H111.13V162.454Z" fill="black" style="fill:black;fill-opacity:1;"/>
<path d="M144.326 212.583H127.941C127.363 212.583 126.875 212.095 126.875 211.517C126.875 210.938 127.363 210.451 127.941 210.451H144.326C144.905 210.451 145.392 210.938 145.392 211.517C145.392 212.095 144.905 212.583 144.326 212.583Z" fill="black" style="fill:black;fill-opacity:1;"/>
<path d="M177.704 212.583H153.006C152.427 212.583 151.94 212.095 151.94 211.517C151.94 210.938 152.427 210.451 153.006 210.451H177.704C178.283 210.451 178.77 210.938 178.77 211.517C178.77 212.095 178.283 212.583 177.704 212.583Z" fill="black" style="fill:black;fill-opacity:1;"/>
<path d="M196.647 212.583H186.688C186.11 212.583 185.623 212.095 185.623 211.517C185.623 210.938 186.11 210.451 186.688 210.451H196.647C197.226 210.451 197.713 210.938 197.713 211.517C197.713 212.095 197.226 212.583 196.647 212.583Z" fill="black" style="fill:black;fill-opacity:1;"/>
<path d="M160.71 223.881H128.002C127.423 223.881 126.936 223.394 126.936 222.815C126.936 222.237 127.423 221.75 128.002 221.75H160.71C161.289 221.75 161.776 222.237 161.776 222.815C161.776 223.394 161.32 223.881 160.71 223.881Z" fill="black" style="fill:black;fill-opacity:1;"/>
<path d="M188.516 223.881H173.867C173.289 223.881 172.801 223.394 172.801 222.815C172.801 222.237 173.289 221.75 173.867 221.75H188.516C189.095 221.75 189.582 222.237 189.582 222.815C189.582 223.394 189.095 223.881 188.516 223.881Z" fill="black" style="fill:black;fill-opacity:1;"/>
<path d="M99.1615 164.586H60.7275C60.1489 164.586 59.6616 164.099 59.6616 163.52C59.6616 162.941 60.1489 162.454 60.7275 162.454H99.1615C99.7402 162.454 100.227 162.941 100.227 163.52C100.227 164.099 99.7402 164.586 99.1615 164.586Z" fill="black" style="fill:black;fill-opacity:1;"/>
<path d="M238.279 164.586H220.554C219.976 164.586 219.488 164.099 219.488 163.52C219.488 162.941 219.976 162.454 220.554 162.454H238.279C238.858 162.454 239.345 162.941 239.345 163.52C239.345 164.099 238.858 164.586 238.279 164.586Z" fill="black" style="fill:black;fill-opacity:1;"/>
<path d="M218.392 160.779C217.813 160.779 217.326 160.292 217.326 159.713V106.844C217.326 106.265 217.813 105.778 218.392 105.778C218.971 105.778 219.458 106.265 219.458 106.844V159.713C219.458 160.292 219.001 160.779 218.392 160.779Z" fill="black" style="fill:black;fill-opacity:1;"/>
<path d="M102.268 157.673C101.689 157.673 101.202 157.185 101.202 156.607V106.844C101.202 106.265 101.689 105.778 102.268 105.778C102.846 105.778 103.334 106.265 103.334 106.844V156.576C103.334 157.185 102.877 157.673 102.268 157.673Z" fill="black" style="fill:black;fill-opacity:1;"/>
<path d="M218.392 136.507H102.268C101.689 136.507 101.202 136.019 101.202 135.441C101.202 134.862 101.689 134.375 102.268 134.375H218.392C218.971 134.375 219.458 134.862 219.458 135.441C219.458 136.019 219.001 136.507 218.392 136.507Z" fill="black" style="fill:black;fill-opacity:1;"/>
<path d="M171.187 143.328H146.823V149.511H171.187V143.328Z" fill="white" style="fill:white;fill-opacity:1;"/>
<path d="M171.187 150.577H146.823C146.245 150.577 145.757 150.089 145.757 149.511V143.328C145.757 142.75 146.245 142.262 146.823 142.262H171.187C171.766 142.262 172.253 142.75 172.253 143.328V149.511C172.253 150.089 171.766 150.577 171.187 150.577ZM147.889 148.445H170.121V144.394H147.889V148.445Z" fill="black" style="fill:black;fill-opacity:1;"/>
<path d="M290.022 243.89C266.023 243.89 246.471 224.369 246.471 200.34C246.471 176.311 265.993 156.789 290.022 156.789C314.02 156.789 333.572 176.311 333.572 200.34C333.572 224.369 314.05 243.89 290.022 243.89ZM290.022 158.921C267.18 158.921 248.603 177.499 248.603 200.34C248.603 223.181 267.18 241.758 290.022 241.758C312.863 241.758 331.44 223.181 331.44 200.34C331.44 177.499 312.863 158.921 290.022 158.921Z" fill="black" style="fill:black;fill-opacity:1;"/>
<path d="M280.703 224.095L263.1 206.492L271.414 198.177L280.703 207.466L307.625 180.514L315.97 188.858L280.703 224.095Z" fill="white" style="fill:white;fill-opacity:1;"/>
<path d="M280.703 225.161C280.429 225.161 280.154 225.039 279.941 224.856L262.338 207.253C261.912 206.827 261.912 206.157 262.338 205.761L270.653 197.447C271.048 197.051 271.749 197.051 272.145 197.447L280.672 205.974L306.863 179.783C307.29 179.357 307.96 179.357 308.356 179.783L316.67 188.097C316.883 188.31 316.974 188.554 316.974 188.858C316.974 189.163 316.853 189.407 316.67 189.62L281.464 224.856C281.251 225.069 280.977 225.161 280.703 225.161ZM264.592 206.492L280.703 222.602L314.447 188.858L307.625 182.037L281.434 208.228C281.007 208.654 280.337 208.654 279.941 208.228L271.414 199.7L264.592 206.492Z" fill="black" style="fill:black;fill-opacity:1;"/>
<path d="M240.929 235.454C240.685 235.454 240.442 235.363 240.228 235.21C239.772 234.845 239.711 234.145 240.107 233.718L246.045 226.653C246.411 226.196 247.111 226.135 247.538 226.531C247.994 226.896 248.055 227.597 247.659 228.023L241.751 235.089C241.538 235.332 241.233 235.454 240.929 235.454Z" fill="black" style="fill:black;fill-opacity:1;"/>
<path d="M249.639 225.282C249.395 225.282 249.151 225.191 248.938 225.038C248.481 224.642 248.451 223.972 248.817 223.546L251.74 220.135C252.136 219.678 252.806 219.648 253.232 220.013C253.689 220.409 253.72 221.079 253.354 221.506L250.431 224.917C250.248 225.16 249.943 225.282 249.639 225.282Z" fill="black" style="fill:black;fill-opacity:1;"/>
<path d="M304.488 161.205C304.244 161.205 304.001 161.114 303.787 160.961C303.331 160.566 303.3 159.896 303.666 159.469L309.909 152.16C310.305 151.703 310.975 151.673 311.401 152.038C311.858 152.434 311.888 153.104 311.523 153.53L305.28 160.84C305.097 161.083 304.792 161.205 304.488 161.205Z" fill="black" style="fill:black;fill-opacity:1;"/>
<path d="M313.016 151.277C312.772 151.277 312.529 151.186 312.316 151.033C311.859 150.637 311.828 149.967 312.194 149.541L315.909 145.216C316.305 144.76 316.975 144.729 317.401 145.095C317.858 145.49 317.889 146.16 317.523 146.587L313.808 150.911C313.595 151.155 313.321 151.277 313.016 151.277Z" fill="black" style="fill:black;fill-opacity:1;"/>
<path d="M252.563 240.875C252.319 240.875 252.075 240.783 251.893 240.631C251.436 240.266 251.375 239.596 251.74 239.139L254.573 235.698C254.938 235.241 255.608 235.18 256.065 235.545C256.522 235.911 256.583 236.581 256.217 237.038L253.385 240.479C253.172 240.723 252.867 240.875 252.563 240.875Z" fill="black" style="fill:black;fill-opacity:1;"/>
<path d="M315.574 167.265C315.33 167.265 315.086 167.174 314.873 167.022C314.416 166.656 314.355 165.956 314.751 165.53L320.477 158.738C320.842 158.281 321.543 158.22 321.969 158.616C322.426 158.982 322.487 159.682 322.091 160.109L316.365 166.9C316.183 167.144 315.878 167.265 315.574 167.265Z" fill="black" style="fill:black;fill-opacity:1;"/>
<path d="M254.694 246.936C254.451 246.936 254.207 246.844 253.994 246.692C253.537 246.296 253.507 245.626 253.872 245.2L263.496 233.962C263.892 233.505 264.562 233.474 264.988 233.84C265.445 234.236 265.475 234.906 265.11 235.332L255.486 246.57C255.273 246.814 254.969 246.936 254.694 246.936Z" fill="black" style="fill:black;fill-opacity:1;"/>
<path d="M319.776 170.89C319.533 170.89 319.289 170.798 319.076 170.646C318.619 170.25 318.589 169.58 318.954 169.154L326.751 160.048C327.147 159.591 327.817 159.561 328.243 159.926C328.7 160.322 328.73 160.992 328.365 161.418L320.568 170.524C320.386 170.768 320.081 170.89 319.776 170.89Z" fill="black" style="fill:black;fill-opacity:1;"/>
<path d="M323.066 158.464C322.822 158.464 322.548 158.373 322.335 158.19C321.909 157.794 321.878 157.124 322.274 156.698L324.589 154.14C324.984 153.713 325.654 153.683 326.081 154.079C326.507 154.475 326.538 155.145 326.142 155.571L323.827 158.129C323.644 158.342 323.34 158.464 323.066 158.464Z" fill="black" style="fill:black;fill-opacity:1;"/>
<path d="M258.257 234.175C258.014 234.175 257.74 234.084 257.557 233.901C257.131 233.505 257.1 232.835 257.466 232.409L259.597 230.064C259.993 229.637 260.663 229.607 261.09 229.972C261.516 230.368 261.547 231.038 261.181 231.465L259.049 233.81C258.836 234.053 258.562 234.175 258.257 234.175Z" fill="black" style="fill:black;fill-opacity:1;"/>
<path d="M227.833 199.944H220.554C219.976 199.944 219.488 199.457 219.488 198.878C219.488 198.3 219.976 197.812 220.554 197.812H227.833C228.412 197.812 228.899 198.3 228.899 198.878C228.899 199.457 228.412 199.944 227.833 199.944Z" fill="black" style="fill:black;fill-opacity:1;"/>
<path d="M82.8984 140.1C85.4718 140.1 87.558 138.014 87.558 135.44C87.558 132.867 85.4718 130.781 82.8984 130.781C80.3249 130.781 78.2388 132.867 78.2388 135.44C78.2388 138.014 80.3249 140.1 82.8984 140.1Z" fill="white" style="fill:white;fill-opacity:1;"/>
<path d="M82.8986 141.166C79.7313 141.166 77.1731 138.608 77.1731 135.441C77.1731 132.273 79.7313 129.715 82.8986 129.715C86.0659 129.715 88.6241 132.273 88.6241 135.441C88.5937 138.608 86.0355 141.166 82.8986 141.166ZM82.8986 131.847C80.919 131.847 79.3049 133.461 79.3049 135.441C79.3049 137.42 80.919 139.034 82.8986 139.034C84.8782 139.034 86.4923 137.42 86.4923 135.441C86.4618 133.461 84.8782 131.847 82.8986 131.847Z" fill="black" style="fill:black;fill-opacity:1;"/>
<path d="M90.2379 171.651H68.3713V189.132H90.2379V171.651Z" fill="white" style="fill:white;fill-opacity:1;"/>
<path d="M90.2077 190.229H68.3716C67.7929 190.229 67.3057 189.742 67.3057 189.163V171.682C67.3057 171.103 67.7929 170.616 68.3716 170.616H90.2382C90.8168 170.616 91.3041 171.103 91.3041 171.682V189.163C91.2736 189.742 90.8168 190.229 90.2077 190.229ZM69.4375 188.097H89.1722V172.748H69.4375V188.097Z" fill="black" style="fill:black;fill-opacity:1;"/>
<path d="M136.134 257.808C133.789 257.808 132.662 255.829 131.748 254.215C130.865 252.661 130.256 251.717 129.19 251.717C128.124 251.717 127.545 252.661 126.632 254.215C125.718 255.798 124.591 257.808 122.246 257.808C119.901 257.808 118.774 255.829 117.861 254.215C116.977 252.661 116.368 251.717 115.302 251.717C114.237 251.717 113.658 252.661 112.744 254.215C111.831 255.798 110.704 257.808 108.359 257.808C106.014 257.808 104.887 255.829 103.973 254.215C103.09 252.661 102.481 251.717 101.415 251.717C100.836 251.717 100.349 251.23 100.349 250.651C100.349 250.073 100.836 249.585 101.415 249.585C103.76 249.585 104.887 251.565 105.801 253.179C106.684 254.732 107.293 255.676 108.359 255.676C109.425 255.676 110.003 254.732 110.917 253.179C111.831 251.595 112.957 249.585 115.302 249.585C117.647 249.585 118.774 251.565 119.688 253.179C120.571 254.732 121.18 255.676 122.246 255.676C123.312 255.676 123.891 254.732 124.804 253.179C125.718 251.595 126.845 249.585 129.19 249.585C131.535 249.585 132.662 251.565 133.575 253.179C134.459 254.732 135.068 255.676 136.134 255.676C136.712 255.676 137.199 256.164 137.199 256.742C137.199 257.321 136.712 257.808 136.134 257.808Z" fill="#FFD000" style="fill:#FFD000;fill:color(display-p3 1.0000 0.8157 0.0000);fill-opacity:1;"/>
<path d="M276.683 52.3598C274.338 52.3598 273.211 50.3802 272.297 48.7661C271.414 47.2129 270.805 46.2688 269.739 46.2688C268.673 46.2688 268.094 47.2129 267.181 48.7661C266.267 50.3497 265.14 52.3598 262.795 52.3598C260.45 52.3598 259.323 50.3802 258.41 48.7661C257.527 47.2129 256.917 46.2688 255.852 46.2688C254.786 46.2688 254.207 47.2129 253.293 48.7661C252.38 50.3497 251.253 52.3598 248.908 52.3598C246.563 52.3598 245.436 50.3802 244.522 48.7661C243.639 47.2129 243.03 46.2688 241.964 46.2688C241.385 46.2688 240.898 45.7815 240.898 45.2029C240.898 44.6242 241.385 44.137 241.964 44.137C244.309 44.137 245.436 46.1165 246.35 47.7306C247.233 49.2838 247.842 50.2279 248.908 50.2279C249.974 50.2279 250.552 49.2838 251.466 47.7306C252.38 46.147 253.506 44.137 255.852 44.137C258.197 44.137 259.323 46.1165 260.237 47.7306C261.12 49.2838 261.729 50.2279 262.795 50.2279C263.861 50.2279 264.44 49.2838 265.353 47.7306C266.267 46.147 267.394 44.137 269.739 44.137C272.084 44.137 273.211 46.1165 274.124 47.7306C275.008 49.2838 275.617 50.2279 276.683 50.2279C277.261 50.2279 277.749 50.7152 277.749 51.2939C277.749 51.8725 277.261 52.3598 276.683 52.3598Z" fill="#FFD000" style="fill:#FFD000;fill:color(display-p3 1.0000 0.8157 0.0000);fill-opacity:1;"/>
<path d="M304.488 123.807C302.143 123.807 301.016 121.827 300.103 120.213C299.219 118.66 298.61 117.716 297.544 117.716C296.478 117.716 295.9 118.66 294.986 120.213C294.073 121.797 292.946 123.807 290.601 123.807C288.256 123.807 287.129 121.827 286.215 120.213C285.332 118.66 284.723 117.716 283.657 117.716C282.591 117.716 282.012 118.66 281.099 120.213C280.185 121.797 279.058 123.807 276.713 123.807C274.368 123.807 273.241 121.827 272.328 120.213C271.445 118.66 270.835 117.716 269.77 117.716C269.191 117.716 268.704 117.229 268.704 116.65C268.704 116.071 269.191 115.584 269.77 115.584C272.115 115.584 273.241 117.564 274.155 119.178C275.038 120.731 275.647 121.675 276.713 121.675C277.779 121.675 278.358 120.731 279.271 119.178C280.185 117.594 281.312 115.584 283.657 115.584C286.002 115.584 287.129 117.564 288.042 119.178C288.926 120.731 289.535 121.675 290.601 121.675C291.667 121.675 292.245 120.731 293.159 119.178C294.073 117.594 295.199 115.584 297.544 115.584C299.889 115.584 301.016 117.564 301.93 119.178C302.813 120.731 303.422 121.675 304.488 121.675C305.067 121.675 305.554 122.162 305.554 122.741C305.554 123.32 305.097 123.807 304.488 123.807Z" fill="black" style="fill:black;fill-opacity:1;"/>
</svg>
