<svg width="129" height="27" viewBox="0 0 129 27" fill="none" xmlns="http://www.w3.org/2000/svg">
<g clip-path="url(#clip0_677_2616)">
<path d="M18 11.3485H17.25V7.56061C17.25 4.22727 14.55 1.5 11.25 1.5H9.75C6.45 1.5 3.75 4.22727 3.75 7.56061V11.3485H3C1.35 11.3485 0 12.7121 0 14.3788V23.4697C0 25.1364 1.35 26.5 3 26.5H18C19.65 26.5 21 25.1364 21 23.4697V14.3788C21 12.7121 19.65 11.3485 18 11.3485ZM6.75 7.56061C6.75 5.89394 8.1 4.5303 9.75 4.5303H11.25C12.9 4.5303 14.25 5.89394 14.25 7.56061V11.3485H6.75V7.56061Z" fill="#1CC265" style="fill:#1CC265;fill:color(display-p3 0.1098 0.7608 0.3961);fill-opacity:1;"/>
<path d="M6.75005 20.8939C6.75005 21.7272 6.52505 22.409 6.07505 22.8636C5.62505 23.3181 5.02505 23.5454 4.20005 23.5454C3.37505 23.5454 2.70005 23.3939 2.17505 23.0908V21.4242C2.85005 21.8787 3.45005 22.106 4.05005 22.106C4.35005 22.106 4.65005 22.0302 4.80005 21.803C4.95005 21.6514 5.02505 21.3484 5.02505 21.0454C5.02505 20.7423 4.95005 20.4393 4.72505 20.212C4.50005 19.9848 4.20005 19.6817 3.75005 19.3787C3.37505 19.0757 3.07505 18.8484 2.85005 18.6211C2.62505 18.3939 2.47505 18.0908 2.40005 17.7878C2.40005 17.409 2.32505 17.0302 2.32505 16.6514C2.32505 15.8939 2.55005 15.212 3.00005 14.7575C3.45005 14.303 4.05005 14.0757 4.72505 14.0757C5.40005 14.0757 6.07505 14.303 6.75005 14.6817L6.22505 16.0454C6.00005 15.8939 5.77505 15.8181 5.55005 15.7423C5.32505 15.6666 5.10005 15.5908 4.87505 15.5908C4.57505 15.5908 4.42505 15.6666 4.27505 15.8939C4.12505 16.0454 4.05005 16.3484 4.05005 16.6514C4.05005 16.9545 4.12505 17.2575 4.35005 17.4848C4.50005 17.712 4.80005 18.0151 5.25005 18.2423C5.85005 18.6211 6.22505 19.0757 6.52505 19.4545C6.67505 19.8333 6.75005 20.3636 6.75005 20.8939Z" fill="white" style="fill:white;fill-opacity:1;"/>
<path d="M12.825 20.8939C12.825 21.7272 12.6 22.409 12.15 22.8636C11.7 23.3181 11.1 23.5454 10.275 23.5454C9.45005 23.5454 8.77505 23.3939 8.25005 23.0908V21.4242C8.92505 21.8787 9.52505 22.106 10.125 22.106C10.425 22.106 10.725 22.0302 10.875 21.803C11.025 21.6514 11.1 21.3484 11.1 21.0454C11.1 20.7423 11.025 20.4393 10.8 20.212C10.575 19.9848 10.275 19.6817 9.82505 19.3787C9.45005 19.0757 9.15005 18.8484 8.92505 18.6211C8.70005 18.3939 8.55005 18.0908 8.47505 17.7878C8.40005 17.4848 8.32505 17.106 8.32505 16.7272C8.32505 15.9696 8.55005 15.2878 9.00005 14.8333C9.45005 14.3787 10.05 14.1514 10.725 14.1514C11.4 14.1514 12.075 14.3787 12.75 14.7575L12.225 16.1211C12 15.9696 11.85 15.8939 11.625 15.8181C11.4 15.7423 11.175 15.6666 10.95 15.6666C10.65 15.6666 10.5 15.7424 10.35 15.9696C10.2 16.1211 10.125 16.4242 10.125 16.7272C10.125 17.0302 10.2 17.3333 10.425 17.5605C10.575 17.7878 10.875 18.0908 11.325 18.3181C11.925 18.6969 12.3 19.1514 12.6 19.5302C12.675 19.8333 12.825 20.3636 12.825 20.8939Z" fill="white" style="fill:white;fill-opacity:1;"/>
<path d="M14.7 14.2272H16.425V21.9545H18.75V23.4696H14.7V14.2272Z" fill="white" style="fill:white;fill-opacity:1;"/>
</g>
<path d="M35.038 12.18C34.406 12.18 33.836 12.07 33.328 11.85C32.824 11.63 32.408 11.316 32.08 10.908C31.756 10.496 31.55 10.008 31.462 9.444L32.962 9.216C33.09 9.728 33.352 10.124 33.748 10.404C34.148 10.684 34.608 10.824 35.128 10.824C35.436 10.824 35.726 10.776 35.998 10.68C36.27 10.584 36.49 10.444 36.658 10.26C36.83 10.076 36.916 9.85 36.916 9.582C36.916 9.462 36.896 9.352 36.856 9.252C36.816 9.148 36.756 9.056 36.676 8.976C36.6 8.896 36.5 8.824 36.376 8.76C36.256 8.692 36.116 8.634 35.956 8.586L33.724 7.926C33.532 7.87 33.324 7.796 33.1 7.704C32.88 7.608 32.67 7.478 32.47 7.314C32.274 7.146 32.112 6.934 31.984 6.678C31.86 6.418 31.798 6.098 31.798 5.718C31.798 5.162 31.938 4.696 32.218 4.32C32.502 3.94 32.882 3.656 33.358 3.468C33.838 3.28 34.37 3.188 34.954 3.192C35.546 3.196 36.074 3.298 36.538 3.498C37.002 3.694 37.39 3.98 37.702 4.356C38.014 4.732 38.234 5.186 38.362 5.718L36.808 5.988C36.744 5.684 36.62 5.426 36.436 5.214C36.256 4.998 36.034 4.834 35.77 4.722C35.51 4.61 35.232 4.55 34.936 4.542C34.648 4.538 34.38 4.582 34.132 4.674C33.888 4.762 33.69 4.89 33.538 5.058C33.39 5.226 33.316 5.422 33.316 5.646C33.316 5.858 33.38 6.032 33.508 6.168C33.636 6.3 33.794 6.406 33.982 6.486C34.174 6.562 34.368 6.626 34.564 6.678L36.112 7.11C36.324 7.166 36.562 7.242 36.826 7.338C37.09 7.434 37.344 7.568 37.588 7.74C37.832 7.912 38.032 8.138 38.188 8.418C38.348 8.698 38.428 9.054 38.428 9.486C38.428 9.934 38.334 10.328 38.146 10.668C37.962 11.004 37.712 11.284 37.396 11.508C37.08 11.732 36.718 11.9 36.31 12.012C35.906 12.124 35.482 12.18 35.038 12.18ZM43.3405 12.18C42.7085 12.18 42.1385 12.07 41.6305 11.85C41.1265 11.63 40.7105 11.316 40.3825 10.908C40.0585 10.496 39.8525 10.008 39.7645 9.444L41.2645 9.216C41.3925 9.728 41.6545 10.124 42.0505 10.404C42.4505 10.684 42.9105 10.824 43.4305 10.824C43.7385 10.824 44.0285 10.776 44.3005 10.68C44.5725 10.584 44.7925 10.444 44.9605 10.26C45.1325 10.076 45.2185 9.85 45.2185 9.582C45.2185 9.462 45.1985 9.352 45.1585 9.252C45.1185 9.148 45.0585 9.056 44.9785 8.976C44.9025 8.896 44.8025 8.824 44.6785 8.76C44.5585 8.692 44.4185 8.634 44.2585 8.586L42.0265 7.926C41.8345 7.87 41.6265 7.796 41.4025 7.704C41.1825 7.608 40.9725 7.478 40.7725 7.314C40.5765 7.146 40.4145 6.934 40.2865 6.678C40.1625 6.418 40.1005 6.098 40.1005 5.718C40.1005 5.162 40.2405 4.696 40.5205 4.32C40.8045 3.94 41.1845 3.656 41.6605 3.468C42.1405 3.28 42.6725 3.188 43.2565 3.192C43.8485 3.196 44.3765 3.298 44.8405 3.498C45.3045 3.694 45.6925 3.98 46.0045 4.356C46.3165 4.732 46.5365 5.186 46.6645 5.718L45.1105 5.988C45.0465 5.684 44.9225 5.426 44.7385 5.214C44.5585 4.998 44.3365 4.834 44.0725 4.722C43.8125 4.61 43.5345 4.55 43.2385 4.542C42.9505 4.538 42.6825 4.582 42.4345 4.674C42.1905 4.762 41.9925 4.89 41.8405 5.058C41.6925 5.226 41.6185 5.422 41.6185 5.646C41.6185 5.858 41.6825 6.032 41.8105 6.168C41.9385 6.3 42.0965 6.406 42.2845 6.486C42.4765 6.562 42.6705 6.626 42.8665 6.678L44.4145 7.11C44.6265 7.166 44.8645 7.242 45.1285 7.338C45.3925 7.434 45.6465 7.568 45.8905 7.74C46.1345 7.912 46.3345 8.138 46.4905 8.418C46.6505 8.698 46.7305 9.054 46.7305 9.486C46.7305 9.934 46.6365 10.328 46.4485 10.668C46.2645 11.004 46.0145 11.284 45.6985 11.508C45.3825 11.732 45.0205 11.9 44.6125 12.012C44.2085 12.124 43.7845 12.18 43.3405 12.18ZM48.3892 12V3.36H49.8352V10.644H53.6512V12H48.3892ZM57.0543 2.082V0.599999H58.5363V2.082H57.0543ZM57.0723 12V3.36H58.5183V12H57.0723ZM60.6756 12V3.36H62.1216V10.644H65.9376V12H60.6756ZM67.1941 12V3.36H72.7741V4.716H68.6401V6.846H72.0541V8.202H68.6401V10.644H72.7741V12H67.1941ZM35.404 25.18C34.844 25.18 34.318 25.082 33.826 24.886C33.338 24.686 32.908 24.394 32.536 24.01C32.168 23.626 31.88 23.156 31.672 22.6C31.464 22.04 31.36 21.4 31.36 20.68C31.36 19.736 31.536 18.93 31.888 18.262C32.24 17.59 32.722 17.076 33.334 16.72C33.946 16.36 34.636 16.18 35.404 16.18C36.468 16.18 37.31 16.428 37.93 16.924C38.554 17.416 38.976 18.108 39.196 19L37.72 19.234C37.556 18.722 37.288 18.314 36.916 18.01C36.544 17.702 36.07 17.548 35.494 17.548C34.914 17.54 34.432 17.666 34.048 17.926C33.664 18.186 33.374 18.552 33.178 19.024C32.986 19.496 32.89 20.048 32.89 20.68C32.89 21.312 32.986 21.862 33.178 22.33C33.37 22.794 33.658 23.156 34.042 23.416C34.43 23.676 34.914 23.81 35.494 23.818C35.93 23.822 36.312 23.744 36.64 23.584C36.968 23.42 37.236 23.174 37.444 22.846C37.652 22.514 37.792 22.1 37.864 21.604H36.34V20.47H39.4C39.408 20.534 39.414 20.628 39.418 20.752C39.422 20.876 39.424 20.95 39.424 20.974C39.424 21.79 39.262 22.516 38.938 23.152C38.618 23.784 38.158 24.28 37.558 24.64C36.958 25 36.24 25.18 35.404 25.18ZM44.9311 15.358V14.038H46.2511V15.358H44.9311ZM42.4471 15.358V14.038H43.7671V15.358H42.4471ZM44.3491 25.18C43.6611 25.18 43.0551 25.04 42.5311 24.76C42.0111 24.48 41.6031 24.086 41.3071 23.578C41.0151 23.07 40.8691 22.474 40.8691 21.79V16.372L42.3331 16.36V21.754C42.3331 22.078 42.3871 22.368 42.4951 22.624C42.6071 22.88 42.7571 23.098 42.9451 23.278C43.1331 23.454 43.3491 23.588 43.5931 23.68C43.8371 23.772 44.0891 23.818 44.3491 23.818C44.6171 23.818 44.8711 23.772 45.1111 23.68C45.3551 23.584 45.5711 23.448 45.7591 23.272C45.9471 23.092 46.0951 22.874 46.2031 22.618C46.3111 22.362 46.3651 22.074 46.3651 21.754V16.36H47.8291V21.79C47.8291 22.474 47.6811 23.07 47.3851 23.578C47.0931 24.086 46.6851 24.48 46.1611 24.76C45.6411 25.04 45.0371 25.18 44.3491 25.18ZM51.6898 25L48.9658 16.36H50.4538L52.7338 23.596L55.0438 16.36H56.5318L53.8078 25H51.6898ZM57.6733 25V16.36H63.2533V17.716H59.1193V19.846H62.5333V21.202H59.1193V23.644H63.2533V25H57.6733ZM64.9328 25V16.36H66.3968L70.4048 22.45V16.36H71.8688V25H70.4048L66.3968 18.91V25H64.9328ZM73.9061 25V16.36H75.3521V23.644H79.1681V25H73.9061ZM80.5265 15.082V13.6H82.0085V15.082H80.5265ZM80.5445 25V16.36H81.9905V25H80.5445ZM90.9062 15.358V14.038H92.2262V15.358H90.9062ZM88.4282 15.358V14.038H89.7482V15.358H88.4282ZM90.3242 25.18C89.4602 25.18 88.7202 24.992 88.1042 24.616C87.4882 24.236 87.0142 23.708 86.6822 23.032C86.3542 22.356 86.1902 21.572 86.1902 20.68C86.1902 19.788 86.3542 19.004 86.6822 18.328C87.0142 17.652 87.4882 17.126 88.1042 16.75C88.7202 16.37 89.4602 16.18 90.3242 16.18C91.1882 16.18 91.9282 16.37 92.5442 16.75C93.1642 17.126 93.6382 17.652 93.9662 18.328C94.2982 19.004 94.4642 19.788 94.4642 20.68C94.4642 21.572 94.2982 22.356 93.9662 23.032C93.6382 23.708 93.1642 24.236 92.5442 24.616C91.9282 24.992 91.1882 25.18 90.3242 25.18ZM90.3242 23.818C90.9042 23.822 91.3862 23.694 91.7702 23.434C92.1582 23.174 92.4482 22.808 92.6402 22.336C92.8362 21.864 92.9342 21.312 92.9342 20.68C92.9342 20.048 92.8362 19.5 92.6402 19.036C92.4482 18.568 92.1582 18.204 91.7702 17.944C91.3862 17.684 90.9042 17.55 90.3242 17.542C89.7442 17.538 89.2622 17.666 88.8782 17.926C88.4942 18.186 88.2042 18.552 88.0082 19.024C87.8162 19.496 87.7202 20.048 87.7202 20.68C87.7202 21.312 87.8162 21.862 88.0082 22.33C88.2002 22.794 88.4882 23.156 88.8722 23.416C89.2602 23.676 89.7442 23.81 90.3242 23.818ZM95.8984 25V16.36H98.6524C98.7244 16.36 98.8664 16.362 99.0784 16.366C99.2944 16.37 99.5024 16.384 99.7024 16.408C100.386 16.496 100.964 16.74 101.436 17.14C101.912 17.536 102.272 18.042 102.516 18.658C102.76 19.274 102.882 19.948 102.882 20.68C102.882 21.412 102.76 22.086 102.516 22.702C102.272 23.318 101.912 23.826 101.436 24.226C100.964 24.622 100.386 24.864 99.7024 24.952C99.5064 24.976 99.3004 24.99 99.0844 24.994C98.8684 24.998 98.7244 25 98.6524 25H95.8984ZM97.3684 23.638H98.6524C98.7724 23.638 98.9244 23.634 99.1084 23.626C99.2964 23.618 99.4624 23.6 99.6064 23.572C100.014 23.496 100.346 23.314 100.602 23.026C100.858 22.738 101.046 22.388 101.166 21.976C101.29 21.564 101.352 21.132 101.352 20.68C101.352 20.212 101.29 19.772 101.166 19.36C101.042 18.948 100.85 18.602 100.59 18.322C100.334 18.042 100.006 17.864 99.6064 17.788C99.4624 17.756 99.2964 17.738 99.1084 17.734C98.9244 17.726 98.7724 17.722 98.6524 17.722H97.3684V23.638ZM104.541 25V16.36H110.121V17.716H105.987V19.846H109.401V21.202H105.987V23.644H110.121V25H104.541ZM111.8 25V16.36H113.102L116.09 22.48L119.078 16.36H120.38V25H119.03V19.462L116.378 25H115.802L113.156 19.462V25H111.8ZM122.306 25V16.36H127.886V17.716H123.752V19.846H127.166V21.202H123.752V23.644H127.886V25H122.306Z" fill="#1CC265" style="fill:#1CC265;fill:color(display-p3 0.1098 0.7608 0.3961);fill-opacity:1;"/>
<defs>
<clipPath id="clip0_677_2616">
<rect width="21" height="25" fill="white" style="fill:white;fill-opacity:1;" transform="translate(0 1.5)"/>
</clipPath>
</defs>
</svg>
