<svg width="37" height="18" viewBox="0 0 37 18" fill="none" xmlns="http://www.w3.org/2000/svg">
<path fill-rule="evenodd" clip-rule="evenodd" d="M1.37657 15.0154H1.13042C1.13042 15.0154 1.06888 15.0154 1.06888 15.0795V15.1436H0.945801V15.0154C0.945801 14.9513 1.00734 14.8872 1.06888 14.8872H1.86887C1.93041 14.8872 1.99195 14.8872 1.93041 15.0154V15.1436H1.80734V15.0795V15.0154H1.49964L1.25349 16.1693H1.13042L1.37657 15.0154Z" fill="#323E48" style="fill:#323E48;fill:color(display-p3 0.1961 0.2431 0.2824);fill-opacity:1;"/>
<path d="M1.99195 15.4C1.99195 15.4 1.93041 15.3359 1.99195 15.4L1.86888 15.3359V15.2077H1.99195C2.05349 15.2077 2.11503 15.2077 2.05349 15.3359L1.99195 15.7846C1.99195 15.9128 1.99195 16.0411 2.11503 16.0411C2.29964 16.0411 2.48426 15.8487 2.48426 15.6564L2.54579 15.2077H2.73041L2.54579 15.977V16.0411H2.60733V16.1693H2.54579C2.48426 16.1693 2.42272 16.1052 2.48426 16.0411V15.977C2.48426 15.9128 2.48426 15.9128 2.48426 15.9128C2.42272 16.0411 2.29964 16.1693 2.11503 16.1693C1.86888 16.1693 1.80734 16.0411 1.86888 15.8487L1.99195 15.4ZM2.2381 14.8872H2.36118L2.29964 15.0795H2.2381V14.8872ZM2.48426 14.8872H2.60733V15.0795H2.48426V14.8872Z" fill="#323E48" style="fill:#323E48;fill:color(display-p3 0.1961 0.2431 0.2824);fill-opacity:1;"/>
<path fill-rule="evenodd" clip-rule="evenodd" d="M2.97659 15.4003C2.97659 15.4003 2.97659 15.3362 2.97659 15.4003L2.91505 15.3362V15.208H3.03813C3.09967 15.208 3.16121 15.208 3.09967 15.3362V15.4003C3.09967 15.4644 3.09967 15.4644 3.09967 15.4644C3.16121 15.3362 3.28429 15.208 3.40736 15.208H3.4689V15.3362C3.4689 15.3362 3.4689 15.3362 3.40736 15.3362C3.28429 15.3362 3.16121 15.4644 3.09967 15.5926C3.09967 15.6567 3.03813 15.7208 3.03813 15.7849L2.97659 16.1695H2.85352L2.97659 15.4003Z" fill="#323E48" style="fill:#323E48;fill:color(display-p3 0.1961 0.2431 0.2824);fill-opacity:1;"/>
<path fill-rule="evenodd" clip-rule="evenodd" d="M3.65337 15.0795C3.65337 15.0154 3.65337 15.0154 3.65337 15.0795L3.5303 15.0154V14.8872H3.65337C3.71491 14.8872 3.77645 14.8872 3.71491 15.0154L3.65337 15.5923H3.71491C3.77645 15.5923 3.77645 15.5923 3.83798 15.5282L4.14566 15.2077H4.26874L3.96106 15.5923C3.89952 15.6564 3.89952 15.6564 3.89952 15.6564C3.89952 15.6564 3.89952 15.6564 3.96106 15.7205L4.02259 16.0411C4.02259 16.0411 4.02259 16.1052 4.08413 16.1052H4.14566V16.2334H4.02259C3.96106 16.2334 3.89952 16.2334 3.89952 16.1693L3.77645 15.7205C3.77645 15.6564 3.71491 15.6564 3.71491 15.6564H3.65337L3.5303 16.1693H3.40723L3.65337 15.0795Z" fill="#323E48" style="fill:#323E48;fill:color(display-p3 0.1961 0.2431 0.2824);fill-opacity:1;"/>
<path d="M4.63814 15.4C4.63814 15.4 4.63814 15.3359 4.63814 15.4L4.39199 15.3359L4.45353 15.2077H4.76122C4.94583 15.2077 5.00737 15.2077 4.94583 15.3359L4.5766 15.977C4.5766 15.977 4.5766 16.0411 4.63814 16.0411H4.82276L4.76122 16.1693H4.51506C4.33045 16.1693 4.26891 16.1052 4.33045 16.0411L4.63814 15.4ZM4.88429 14.8872H5.13045L5.06891 15.0795H4.82276L4.88429 14.8872Z" fill="#323E48" style="fill:#323E48;fill:color(display-p3 0.1961 0.2431 0.2824);fill-opacity:1;"/>
<path fill-rule="evenodd" clip-rule="evenodd" d="M4.69951 16.426C4.76105 16.426 4.82259 16.3619 4.88413 16.2978L4.94568 16.1695L4.82259 15.4003C4.82259 15.4003 4.82259 15.3362 4.76105 15.3362V15.208H4.82259C4.88413 15.208 4.94568 15.208 4.94568 15.2721L5.06876 15.849C5.06876 15.9131 5.06876 15.9772 5.06876 15.9772C5.06876 15.9772 5.06876 15.9131 5.1303 15.849L5.438 15.2721C5.49954 15.208 5.49954 15.208 5.56108 15.208H5.62262V15.3362C5.62262 15.3362 5.56108 15.3362 5.56108 15.4003L4.94568 16.3619C4.88413 16.426 4.76105 16.4901 4.69951 16.426C4.51489 16.4901 4.51489 16.426 4.51489 16.426L4.57643 16.3619C4.57643 16.3619 4.57643 16.426 4.69951 16.426Z" fill="#323E48" style="fill:#323E48;fill:color(display-p3 0.1961 0.2431 0.2824);fill-opacity:1;"/>
<path d="M6.11508 15.208C6.36124 15.208 6.48432 15.4003 6.42278 15.6567V15.7208H5.74585C5.68431 15.9131 5.80739 16.0413 5.992 16.0413C6.17662 16.0413 6.2997 15.9131 6.2997 15.9131L6.36124 15.9772C6.36124 15.9772 6.23816 16.1054 5.992 16.1054C5.74585 16.1054 5.56123 15.9131 5.62277 15.6567C5.68431 15.4003 5.86892 15.208 6.11508 15.208ZM6.2997 15.5926C6.36124 15.4003 6.23816 15.3362 6.11508 15.3362C5.992 15.3362 5.80739 15.4644 5.74585 15.5926H6.2997Z" fill="#323E48" style="fill:#323E48;fill:color(display-p3 0.1961 0.2431 0.2824);fill-opacity:1;"/>
<path fill-rule="evenodd" clip-rule="evenodd" d="M6.7305 14.8872H6.85358L6.7305 15.2077H6.60742L6.7305 14.8872Z" fill="#323E48" style="fill:#323E48;fill:color(display-p3 0.1961 0.2431 0.2824);fill-opacity:1;"/>
<path fill-rule="evenodd" clip-rule="evenodd" d="M6.9766 15.4003C6.9766 15.4003 6.9766 15.3362 6.9766 15.4003L6.91506 15.208H7.03814C7.09967 15.208 7.16121 15.208 7.09968 15.3362V15.4003C7.09968 15.4644 7.09968 15.4644 7.09968 15.4644C7.16121 15.4003 7.28429 15.208 7.46891 15.208C7.71507 15.208 7.71507 15.3362 7.71507 15.5285L7.65353 15.9772V16.0413H7.71507V16.1695H7.59199C7.53045 16.1695 7.46891 16.1054 7.53045 16.0413L7.59199 15.5926C7.59199 15.4644 7.65353 15.3362 7.46891 15.3362C7.34583 15.3362 7.16121 15.4644 7.09968 15.5926C7.09968 15.6567 7.09967 15.6567 7.03814 15.7208L6.9766 16.1695H6.85352L6.9766 15.4003Z" fill="#323E48" style="fill:#323E48;fill:color(display-p3 0.1961 0.2431 0.2824);fill-opacity:1;"/>
<path d="M8.20746 15.4C8.20746 15.4 8.20746 15.3359 8.20746 15.4L7.96132 15.3359L8.02286 15.2077H8.33054C8.51515 15.2077 8.57668 15.2077 8.51514 15.3359L8.20746 15.977C8.20746 15.977 8.20747 16.0411 8.269 16.0411H8.45361L8.39207 16.1693H8.08439C7.89979 16.1693 7.83825 16.1052 7.89978 16.0411L8.20746 15.4ZM8.45361 14.8872H8.69975L8.63822 15.0154H8.39207L8.45361 14.8872Z" fill="#323E48" style="fill:#323E48;fill:color(display-p3 0.1961 0.2431 0.2824);fill-opacity:1;"/>
<path fill-rule="evenodd" clip-rule="evenodd" d="M8.45341 15.4003C8.45341 15.4003 8.45341 15.3362 8.45341 15.4003L8.33034 15.3362V15.208H8.45341C8.51494 15.208 8.57648 15.208 8.45341 15.4003C8.51494 15.4644 8.51494 15.4644 8.51494 15.4644C8.57648 15.4003 8.76109 15.208 8.9457 15.208C9.13031 15.208 9.19184 15.3362 9.13031 15.5285L9.06877 15.9772V16.0413H9.13031V16.1695H9.00723C8.9457 16.1695 8.88416 16.1054 8.9457 16.0413L9.00723 15.5926C9.00723 15.4644 9.06877 15.3362 8.88416 15.3362C8.76109 15.3362 8.57648 15.4644 8.51494 15.5926C8.51494 15.6567 8.51494 15.6567 8.45341 15.7208L8.33034 16.1695H8.2688L8.45341 15.4003Z" fill="#323E48" style="fill:#323E48;fill:color(display-p3 0.1961 0.2431 0.2824);fill-opacity:1;"/>
<path d="M10.6073 14.8873C10.9765 14.8873 11.1612 15.1437 11.0996 15.5283C11.0381 15.9129 10.6688 16.1693 10.3612 16.1693C9.99192 16.1693 9.8073 15.9129 9.86884 15.5283C9.93038 15.1437 10.2381 14.8873 10.6073 14.8873ZM10.2996 16.0411C10.5458 16.0411 10.8535 15.7847 10.915 15.5283C10.9765 15.2078 10.7919 15.0155 10.5458 15.0155C10.2996 15.0155 9.99192 15.2719 9.93038 15.5283C9.86884 15.8488 10.0535 16.0411 10.2996 16.0411ZM10.4842 14.6309H10.6073L10.5458 14.7591H10.4227L10.4842 14.6309ZM10.7304 14.6309H10.8535L10.7919 14.7591H10.6688L10.7304 14.6309Z" fill="#323E48" style="fill:#323E48;fill:color(display-p3 0.1961 0.2431 0.2824);fill-opacity:1;"/>
<path d="M11.6534 15.2079C11.838 15.2079 11.8996 15.4002 11.8996 15.4002C11.8996 15.4002 11.8996 15.4002 11.8996 15.3361L11.9611 15.0155V14.9514H11.8996V14.8232H12.0226C12.0842 14.8232 12.1457 14.8232 12.0842 14.9514L11.8996 15.913V15.9771H11.9611V16.1053H11.838C11.7765 16.1053 11.7149 16.0412 11.7765 15.9771C11.7765 15.913 11.7765 15.913 11.7765 15.913C11.7765 15.913 11.6534 16.1053 11.4688 16.1053C11.2226 16.1053 11.1611 15.913 11.2226 15.6566C11.2226 15.4002 11.4073 15.2079 11.6534 15.2079ZM11.838 15.7207C11.8996 15.5284 11.838 15.3361 11.6534 15.3361C11.5303 15.3361 11.3457 15.4643 11.2842 15.7207C11.2226 15.913 11.3457 16.1053 11.4688 16.1053C11.5919 16.0412 11.7765 15.9771 11.838 15.7207Z" fill="#323E48" style="fill:#323E48;fill:color(display-p3 0.1961 0.2431 0.2824);fill-opacity:1;"/>
<path d="M12.6996 15.208C12.9457 15.208 13.0073 15.4003 13.0073 15.5926V15.6567H12.3303C12.2688 15.849 12.3919 16.0413 12.5765 16.0413C12.7611 16.0413 12.8842 15.9131 12.8842 15.9131L12.9457 15.9772C12.9457 15.9772 12.7611 16.1054 12.5765 16.1054C12.3303 16.1054 12.1457 15.9131 12.2072 15.6567C12.2072 15.4003 12.4534 15.208 12.6996 15.208ZM12.8226 15.5926C12.8842 15.4003 12.7611 15.3362 12.638 15.3362C12.5149 15.3362 12.3303 15.4003 12.2688 15.5926H12.8226Z" fill="#323E48" style="fill:#323E48;fill:color(display-p3 0.1961 0.2431 0.2824);fill-opacity:1;"/>
<path fill-rule="evenodd" clip-rule="evenodd" d="M13.1919 15.4003C13.2535 15.4003 13.1919 15.3362 13.1919 15.4003L13.0688 15.3362V15.208H13.1919C13.2535 15.208 13.315 15.208 13.2535 15.3362V15.4003C13.2535 15.4644 13.2535 15.4644 13.2535 15.4644C13.3765 15.3362 13.5612 15.208 13.6842 15.208C13.8689 15.208 13.9304 15.2721 13.9304 15.4003C13.9919 15.3362 14.115 15.208 14.2996 15.208C14.4842 15.208 14.5458 15.3362 14.4842 15.5285L14.4227 15.9772V16.0413H14.4842V16.1695H14.3612C14.2996 16.1695 14.2381 16.1054 14.2996 16.0413L14.4227 15.5926C14.4842 15.4644 14.4227 15.3362 14.2996 15.3362C14.1766 15.3362 14.0535 15.4644 13.9919 15.5926C13.9919 15.6567 13.9304 15.6567 13.9304 15.7208L13.8689 16.1695H13.7458L13.8689 15.6567C13.8689 15.5285 13.9304 15.4003 13.7458 15.4003C13.6227 15.4003 13.4996 15.5285 13.4381 15.6567C13.4381 15.7208 13.3765 15.7208 13.3765 15.7849L13.1919 16.1695H13.0688L13.1919 15.4003Z" fill="#323E48" style="fill:#323E48;fill:color(display-p3 0.1961 0.2431 0.2824);fill-opacity:1;"/>
<path d="M15.2227 15.208C15.4689 15.208 15.5304 15.4003 15.5304 15.5926V15.6567H14.8535C14.792 15.849 14.9151 16.0413 15.0997 16.0413C15.2843 16.0413 15.4074 15.9131 15.4074 15.9131L15.4689 15.9772C15.4689 15.9772 15.2843 16.1054 15.0997 16.1054C14.8535 16.1054 14.6689 15.9131 14.7304 15.6567C14.7304 15.4003 14.9766 15.208 15.2227 15.208ZM15.3458 15.5926C15.4074 15.4003 15.2843 15.3362 15.1612 15.3362C15.0381 15.3362 14.8535 15.4003 14.792 15.5926H15.3458Z" fill="#323E48" style="fill:#323E48;fill:color(display-p3 0.1961 0.2431 0.2824);fill-opacity:1;"/>
<path fill-rule="evenodd" clip-rule="evenodd" d="M16.3919 15.5925L16.2073 15.0156C16.2073 14.9514 16.1458 14.9514 16.1458 14.9514V14.8232H16.2073C16.2688 14.8232 16.3304 14.8232 16.3304 14.9514L16.4534 15.272C16.4534 15.3361 16.515 15.4002 16.515 15.4002C16.515 15.4002 16.5765 15.3361 16.638 15.272L16.8842 15.0156C16.9457 14.9514 17.0073 14.8873 17.0688 14.8873H17.1303V15.0156C17.0688 15.0156 17.0688 15.0156 17.0688 15.0797L16.638 15.6566L16.515 16.1694H16.2688L16.3919 15.5925Z" fill="#323E48" style="fill:#323E48;fill:color(display-p3 0.1961 0.2431 0.2824);fill-opacity:1;"/>
<path d="M17.4381 15.2077C17.6842 15.2077 17.8688 15.4 17.8073 15.6564C17.7458 15.9128 17.4996 16.1052 17.2535 16.1052C17.0073 16.1052 16.8227 15.9128 16.8842 15.6564C16.9458 15.4641 17.1919 15.2077 17.4381 15.2077ZM17.2535 16.0411C17.4381 16.0411 17.6227 15.9128 17.6842 15.6564C17.7458 15.4641 17.6227 15.3359 17.4381 15.3359C17.2535 15.3359 17.0689 15.4641 17.0073 15.6564C16.9458 15.9128 17.0689 16.0411 17.2535 16.0411ZM17.315 14.8872H17.4381L17.3765 15.0154H17.2535L17.315 14.8872ZM17.5612 14.8872H17.6842V15.0154H17.5612V14.8872Z" fill="#323E48" style="fill:#323E48;fill:color(display-p3 0.1961 0.2431 0.2824);fill-opacity:1;"/>
<path fill-rule="evenodd" clip-rule="evenodd" d="M18.0535 15.4003C18.0535 15.4003 18.0535 15.3362 18.0535 15.4003L17.9304 15.3362V15.208H18.115C18.1766 15.208 18.2381 15.208 18.1766 15.3362V15.4003C18.1766 15.4644 18.1766 15.4644 18.1766 15.4644C18.2381 15.4003 18.3612 15.208 18.5458 15.208C18.7304 15.208 18.792 15.3362 18.7304 15.5285L18.6689 15.9772C18.6689 15.9772 18.6689 16.0413 18.7304 16.0413H18.792V16.1695H18.6689C18.6073 16.1695 18.5458 16.1054 18.6073 16.0413L18.6689 15.5926C18.6689 15.4644 18.7304 15.3362 18.5458 15.3362C18.4227 15.3362 18.2381 15.4644 18.1766 15.5926C18.115 15.6567 18.115 15.6567 18.115 15.7208L18.0535 16.1695H17.9304L18.0535 15.4003Z" fill="#323E48" style="fill:#323E48;fill:color(display-p3 0.1961 0.2431 0.2824);fill-opacity:1;"/>
<path fill-rule="evenodd" clip-rule="evenodd" d="M19.0997 15.3358H18.9766V15.2076H19.0997L19.1612 14.9512H19.2843L19.2228 15.2076H19.4689V15.3358H19.2228L19.0997 15.7845C19.0381 15.9768 19.1612 16.0409 19.2228 16.0409H19.2843V16.1691C19.2843 16.1691 19.2843 16.1691 19.2228 16.1691C19.0997 16.1691 18.915 16.105 18.9766 15.8486L19.0997 15.3358Z" fill="#323E48" style="fill:#323E48;fill:color(display-p3 0.1961 0.2431 0.2824);fill-opacity:1;"/>
<path d="M20.0228 15.208C20.269 15.208 20.3305 15.4003 20.3305 15.5926V15.6567H19.6536C19.592 15.849 19.7151 16.0413 19.8997 16.0413C20.0844 16.0413 20.2074 15.9131 20.2074 15.9131L20.269 15.9772C20.269 15.9772 20.1459 16.1054 19.8997 16.1054C19.6536 16.1054 19.4689 15.9131 19.5305 15.6567C19.5305 15.4003 19.7766 15.208 20.0228 15.208ZM20.2074 15.5926C20.269 15.4003 20.1459 15.3362 20.0228 15.3362C19.8997 15.3362 19.7151 15.4003 19.6536 15.5926H20.2074Z" fill="#323E48" style="fill:#323E48;fill:color(display-p3 0.1961 0.2431 0.2824);fill-opacity:1;"/>
<path fill-rule="evenodd" clip-rule="evenodd" d="M20.5767 15.4003C20.5767 15.4003 20.5767 15.3362 20.5767 15.4003L20.4536 15.3362V15.208H20.5767C20.6382 15.208 20.6998 15.208 20.5767 15.4003C20.6382 15.4644 20.6382 15.4644 20.6382 15.4644C20.7613 15.3362 20.8844 15.208 21.0074 15.208C21.1921 15.208 21.2536 15.2721 21.2536 15.4003C21.3151 15.3362 21.4997 15.208 21.6228 15.208C21.8074 15.208 21.869 15.3362 21.8074 15.5926L21.7459 16.0413V16.1054H21.8074V16.2336H21.6844C21.6228 16.2336 21.5613 16.1695 21.6228 16.1054L21.6844 15.6567C21.7459 15.5285 21.6844 15.4003 21.5613 15.4003C21.4382 15.4003 21.3151 15.5285 21.2536 15.6567C21.2536 15.7208 21.1921 15.7208 21.1921 15.7849L21.1305 16.2336H21.0074L21.1305 15.7208C21.1305 15.5926 21.1921 15.4644 21.0074 15.4644C20.8844 15.4644 20.7613 15.5926 20.6998 15.7208C20.6998 15.7849 20.6998 15.7849 20.6382 15.849L20.5767 16.2978H20.4536L20.5767 15.4003Z" fill="#323E48" style="fill:#323E48;fill:color(display-p3 0.1961 0.2431 0.2824);fill-opacity:1;"/>
<path d="M22.3613 15.4C22.3613 15.4 22.3613 15.3359 22.2998 15.3359H22.1151L22.1767 15.2077H22.4844C22.669 15.2077 22.7305 15.2077 22.669 15.3359L22.3613 15.977C22.3613 15.977 22.3613 16.0411 22.4228 16.0411H22.6074L22.5459 16.1693H22.2382C22.0536 16.1693 21.9921 16.1052 22.0536 16.0411L22.3613 15.4ZM22.6074 14.8872H22.8536L22.7921 15.0154H22.5459L22.6074 14.8872Z" fill="#323E48" style="fill:#323E48;fill:color(display-p3 0.1961 0.2431 0.2824);fill-opacity:1;"/>
<path fill-rule="evenodd" clip-rule="evenodd" d="M33.2308 2.82031C32.7385 2.82031 32.1846 3.14083 31.9385 3.65365L29.6 9.23057L28.7385 3.65365C28.6154 3.14083 28.3077 2.82031 27.7539 2.82031H24.7385L27.3231 12.1152C27.3846 12.3075 27.3846 12.4998 27.3231 12.6921C27.2 13.4613 26.5231 14.1024 25.7846 14.1024H24.1231C23.6923 14.1024 23.4462 14.3588 23.2616 14.9998L22.8923 17.3075H25.8462C27.3846 17.3075 29.1693 16.5383 30.4 14.2947L36.3077 2.82031H33.2308Z" fill="#323E48" style="fill:#323E48;fill:color(display-p3 0.1961 0.2431 0.2824);fill-opacity:1;"/>
<path fill-rule="evenodd" clip-rule="evenodd" d="M4.18461 0C5.04615 0 5.47692 0.384615 5.35384 1.28205L5.10769 2.75641H7.13846L6.70769 5.38462H4.61538L4.06154 8.65385C3.87692 9.80769 4.92307 9.9359 5.6 9.9359C5.72307 9.9359 5.84615 9.9359 5.90769 9.9359L5.41538 12.8205C5.29231 12.8205 5.10769 12.8846 4.8 12.8846C3.26154 12.8846 0.369231 12.4359 0.923077 9.10256L1.53846 5.38462H0L0.430769 2.75641H1.90769L2.4 0H4.18461Z" fill="#323E48" style="fill:#323E48;fill:color(display-p3 0.1961 0.2431 0.2824);fill-opacity:1;"/>
<path fill-rule="evenodd" clip-rule="evenodd" d="M21.2868 2.88232L20.7329 5.95925C21.3483 6.27976 21.8406 6.98489 21.8406 7.75412C21.8406 8.77976 21.1022 9.6772 20.1176 9.8054L19.6252 12.8823C19.6868 12.8823 19.8099 12.8823 19.9329 12.8823C22.6406 12.8823 24.856 10.5746 24.856 7.75412C24.7945 5.51053 23.3176 3.52335 21.2868 2.88232Z" fill="#00ADBB" style="fill:#00ADBB;fill:color(display-p3 0.0000 0.6784 0.7333);fill-opacity:1;"/>
<path fill-rule="evenodd" clip-rule="evenodd" d="M18.9483 9.61302C18.3329 9.29251 17.8406 8.58738 17.8406 7.81815C17.8406 6.79251 18.579 5.89507 19.5636 5.76686L20.1175 2.68994C20.056 2.68994 19.9329 2.68994 19.8098 2.68994C17.1021 2.68994 14.8867 4.99763 14.8867 7.81815C14.8867 10.1258 16.3636 12.0489 18.3944 12.6899L18.9483 9.61302Z" fill="#00ADBB" style="fill:#00ADBB;fill:color(display-p3 0.0000 0.6784 0.7333);fill-opacity:1;"/>
<path fill-rule="evenodd" clip-rule="evenodd" d="M8.30779 2.82059H10.0309C10.8924 2.82059 11.3232 3.2052 11.2001 4.10264L11.0155 5.19238C11.6924 3.84623 13.0463 2.69238 14.5232 2.69238C14.7078 2.69238 14.8924 2.75649 14.8924 2.75649L14.3386 6.08982C14.3386 6.08982 14.0924 6.02572 13.6616 6.02572C12.8616 6.02572 11.5693 6.28213 10.8309 7.75649C10.6463 8.1411 10.5232 8.58982 10.4616 9.10264L9.84626 12.8206H6.58472L8.30779 2.82059Z" fill="#323E48" style="fill:#323E48;fill:color(display-p3 0.1961 0.2431 0.2824);fill-opacity:1;"/>
<path d="M36.3076 13.2694C36.3076 13.5899 36.1846 13.8464 36 14.0387C35.8153 14.231 35.5692 14.3592 35.2615 14.3592C34.9538 14.3592 34.7076 14.231 34.523 14.0387C34.3384 13.8464 34.2153 13.5899 34.2153 13.2694C34.2153 12.9489 34.3384 12.6925 34.523 12.5002C34.7076 12.3079 34.9538 12.1797 35.2615 12.1797C35.5692 12.1797 35.8153 12.3079 36 12.5002C36.1846 12.6925 36.3076 12.9489 36.3076 13.2694ZM36.123 13.2694C36.123 13.013 36.0615 12.8207 35.8769 12.6284C35.6923 12.4361 35.5076 12.372 35.2615 12.372C35.0153 12.372 34.8307 12.4361 34.6461 12.6284C34.4615 12.8207 34.3999 13.013 34.3999 13.2694C34.3999 13.5258 34.4615 13.7181 34.6461 13.9105C34.8307 14.1028 35.0153 14.1669 35.2615 14.1669C35.5076 14.1669 35.6923 14.1028 35.8769 13.9105C36.0615 13.7181 36.123 13.5258 36.123 13.2694ZM35.6923 13.8464H35.5076L35.2615 13.3335H35.0769V13.8464H34.8923V12.6925H35.2615C35.3846 12.6925 35.4461 12.7566 35.5076 12.8207C35.5692 12.8848 35.6307 12.9489 35.6307 13.0771C35.6307 13.2694 35.5692 13.3335 35.3846 13.3976L35.6923 13.8464ZM35.5076 13.013C35.5076 12.9489 35.5076 12.8848 35.4461 12.8848C35.3846 12.8848 35.323 12.8207 35.2615 12.8207H35.0769V13.2053H35.2615C35.323 13.2053 35.3846 13.2053 35.4461 13.1412C35.4461 13.1412 35.5076 13.0771 35.5076 13.013Z" fill="#323E48" style="fill:#323E48;fill:color(display-p3 0.1961 0.2431 0.2824);fill-opacity:1;"/>
</svg>
