<svg width="39" height="13" viewBox="0 0 39 13" fill="none" xmlns="http://www.w3.org/2000/svg">
<path fill-rule="evenodd" clip-rule="evenodd" d="M18.8923 0.25641L16.3692 12.6282H13.2923L15.8154 0.25641H18.8923V0.25641ZM31.8769 8.20513L33.4769 3.52564L34.4 8.20513H31.8769ZM35.3231 12.6282H38.1538L35.6923 0.25641H33.0461C32.4308 0.25641 31.9385 0.641026 31.7538 1.15385L27.0769 12.6282H30.3385L30.9538 10.7692H34.8923L35.3231 12.6282ZM27.2615 8.58974C27.2615 5.32051 22.8923 5.1282 22.9538 3.65385C22.9538 3.20513 23.3846 2.75641 24.2462 2.6282C24.6769 2.5641 25.9077 2.5 27.2615 3.20513L27.8154 0.576923C27.0769 0.25641 26.1538 0 24.9231 0C21.8462 0 19.7538 1.66667 19.6923 4.10256C19.6923 5.89744 21.2308 6.85897 22.4 7.5C23.6308 8.07692 24 8.52564 24 9.03846C24 9.87179 23.0154 10.2564 22.1538 10.2564C20.6154 10.2564 19.6923 9.80769 19.0154 9.48718L18.4615 12.1795C19.2 12.5 20.4923 12.8205 21.9077 12.8205C25.1077 12.8205 27.2615 11.1538 27.2615 8.58974ZM14.4615 0.25641L9.47692 12.6282H6.21538L3.75385 2.75641C3.63077 2.11538 3.44615 1.92308 3.01538 1.66667C2.27692 1.21795 1.04615 0.833333 0 0.641026L0.0615385 0.25641H5.29231C5.96923 0.25641 6.58461 0.705128 6.70769 1.53846L8 8.71795L11.2 0.25641H14.4615V0.25641Z" fill="url(#paint0_linear_676_2602)" style=""/>
<defs>
<linearGradient id="paint0_linear_676_2602" x1="0.000738461" y1="6.41026" x2="38.1546" y2="6.41026" gradientUnits="userSpaceOnUse">
<stop stop-color="#1D1C45" style="stop-color:#1D1C45;stop-color:color(display-p3 0.1137 0.1098 0.2706);stop-opacity:1;"/>
<stop offset="1" stop-color="#174489" style="stop-color:#174489;stop-color:color(display-p3 0.0902 0.2667 0.5373);stop-opacity:1;"/>
</linearGradient>
</defs>
</svg>
